<svg xmlns="http://www.w3.org/2000/svg" viewBox="0 0 32 32" id="address">
  <g>
    <path d="M15.59,26.86l.41.54.4-.55c.29-.4,7.21-9.92,7.69-14.59a9.45,9.45,0,0,0-2.35-7.19A7.7,7.7,0,0,0,16,2.42,7.6,7.6,0,0,0,10.39,5,9.78,9.78,0,0,0,7.9,12.25C8.27,17,15.29,26.46,15.59,26.86ZM16,6.3a4.22,4.22,0,1,1-4.22,4.22A4.22,4.22,0,0,1,16,6.3Z"></path>
    <path d="M20.11,24.88l-.1,1c3.43.34,4.76,1,4.87,1.23-.21.53-3.35,1.47-8.88,1.47s-8.67-.94-8.88-1.42c.1-.25,1.34-.89,4.54-1.24l-.11-1c-3.6.4-5.43,1.14-5.43,2.22,0,2.42,9.47,2.45,9.87,2.45s9.87,0,9.87-2.45C25.87,25.75,22.74,25.14,20.11,24.88Z"></path>
  </g>
</svg>
