<svg width="13" height="18" viewBox="0 0 13 18" fill="none" xmlns="http://www.w3.org/2000/svg">
<path d="M6.0973 0C3.93145 0 2.16733 2.25788 2.16733 5.02993C2.16687 5.08986 2.17395 5.14949 2.18829 5.20654C2.22497 6.97148 2.82232 8.51511 3.52448 9.94585C4.25108 11.4246 5.0921 12.8107 5.63181 14.2258C5.6673 14.319 5.72236 14.3978 5.79082 14.4532C5.85929 14.5087 5.93847 14.5387 6.01949 14.5399C6.10052 14.541 6.1802 14.5133 6.24962 14.4598C6.31904 14.4063 6.37546 14.3291 6.41257 14.2369C6.98023 12.823 7.86403 11.4347 8.62732 9.95703C9.38974 8.47935 10.0412 6.88318 10.0412 5.03887C10.042 4.96786 10.0323 4.8973 10.0124 4.83097C9.9277 2.15393 8.20987 0 6.0973 0ZM6.0973 1.11776C7.79155 1.11776 9.15394 2.86259 9.15394 5.02993C9.15348 5.07008 9.15641 5.11018 9.16267 5.14953C9.13647 6.61156 8.60898 7.96629 7.89897 9.34114C7.29812 10.5047 6.61867 11.7063 6.03267 12.9549C5.47636 11.7119 4.83534 10.5126 4.26506 9.35232C3.57251 7.94058 3.05463 6.55232 3.05463 5.03776C3.05452 5.00514 3.05218 4.9726 3.04764 4.94051C3.0632 3.91895 3.39147 2.94604 3.96182 2.23111C4.53216 1.51619 5.29898 1.1164 6.0973 1.11776ZM6.0973 3.35552C5.37942 3.35552 4.78731 4.11337 4.78731 5.03217C4.78731 5.95097 5.37942 6.70881 6.0973 6.70881C6.81604 6.70881 7.40729 5.95097 7.40729 5.03217C7.40729 4.11337 6.81604 3.35552 6.0973 3.35552ZM6.0973 4.47329C6.34357 4.47329 6.53396 4.71696 6.53396 5.03217C6.53396 5.34738 6.34357 5.59105 6.0973 5.59105C6.03973 5.5921 5.98257 5.57837 5.92922 5.55065C5.87587 5.52294 5.82741 5.48181 5.78669 5.4297C5.74598 5.3776 5.71385 5.31556 5.69219 5.24728C5.67054 5.179 5.65981 5.10585 5.66063 5.03217C5.66063 4.71696 5.85102 4.47329 6.0973 4.47329ZM9.6692 10.3158C9.56745 10.3161 9.46898 10.3619 9.3908 10.4453C9.31262 10.5286 9.25964 10.6443 9.241 10.7723C9.22236 10.9004 9.23924 11.0327 9.28872 11.1465C9.3382 11.2603 9.41717 11.3484 9.512 11.3956C10.3827 11.8472 10.9425 12.4385 11.1835 12.9828C11.4255 13.5272 11.4193 13.9977 11.1041 14.5767C10.4709 15.7347 8.45266 16.7608 6.14882 16.7731C3.84412 16.7843 1.79791 15.7862 1.12894 14.6248C0.79446 14.0436 0.777867 13.5708 1.00231 13.0286C1.22763 12.4876 1.76647 11.8908 2.6232 11.4302C2.67855 11.4041 2.72918 11.3639 2.77206 11.3121C2.81493 11.2602 2.84915 11.1978 2.87266 11.1286C2.89617 11.0593 2.90847 10.9847 2.90883 10.9092C2.90919 10.8337 2.89759 10.7589 2.87474 10.6893C2.85189 10.6198 2.81826 10.5568 2.77588 10.5043C2.7335 10.4518 2.68325 10.4108 2.62816 10.3838C2.57307 10.3569 2.51428 10.3445 2.45534 10.3474C2.3964 10.3503 2.33853 10.3685 2.28523 10.4008C1.3071 10.9261 0.593595 11.6326 0.231165 12.5055C-0.131266 13.3774 -0.0683861 14.4303 0.425916 15.2888C1.41452 17.0034 3.66683 17.9043 6.15406 17.8909C8.64042 17.8775 10.8718 16.9553 11.8202 15.2195C12.2944 14.351 12.3267 13.2935 11.9425 12.4306C11.56 11.5677 10.8307 10.8725 9.8395 10.3594C9.78565 10.3301 9.72773 10.3149 9.6692 10.3147V10.3158Z" fill="white"/>
</svg>
