<svg xmlns="http://www.w3.org/2000/svg" width="24" height="24" fill="none" viewBox="0 0 24 24" id="arrow-top">
  <g clip-path="url(#clip0_19_411)">
    <path fill="#000" fill-rule="evenodd" d="M12 3.75C7.44365 3.75 3.75 7.44365 3.75 12C3.75 16.5563 7.44365 20.25 12 20.25C16.5563 20.25 20.25 16.5563 20.25 12C20.25 7.44365 16.5563 3.75 12 3.75ZM2.25 12C2.25 6.61522 6.61522 2.25 12 2.25C17.3848 2.25 21.75 6.61522 21.75 12C21.75 17.3848 17.3848 21.75 12 21.75C6.61522 21.75 2.25 17.3848 2.25 12ZM12 7.93934L17.5303 13.4697L16.4697 14.5303L12 10.0607L7.53033 14.5303L6.46967 13.4697L12 7.93934Z" clip-rule="evenodd"></path>
  </g>
  <defs>
    <clipPath id="clip0_19_411">
      <rect width="24" height="24" fill="#fff"></rect>
    </clipPath>
  </defs>
</svg>
