<?xml version="1.0" encoding="utf-8"?>
<!-- Generator: Adobe Illustrator 25.2.3, SVG Export Plug-In . SVG Version: 6.00 Build 0)  -->
<svg version="1.1" id="Calque_1" xmlns="http://www.w3.org/2000/svg" xmlns:xlink="http://www.w3.org/1999/xlink" x="0px" y="0px"
	 viewBox="0 0 470 156.2" style="enable-background:new 0 0 470 156.2;" xml:space="preserve">
<style type="text/css">
	.st0{fill:#85BD58;}
	.st1{fill:#0B428B;}
</style>
<g>
	<g>
		<defs>
			<path id="SVGID_1_" d="M174.1,79.4c0,0.5,0,1,0,1.4c0,0.4-0.1,0.7-0.2,1c-0.1,0.3-0.2,0.5-0.3,0.7c-0.1,0.2-0.4,0.5-0.7,0.9
				c-0.4,0.4-1,0.9-2,1.4c-0.9,0.6-2,1.1-3.1,1.5c-1.2,0.4-2.4,0.8-3.8,1.1c-1.4,0.3-2.8,0.4-4.2,0.4c-3,0-5.7-0.5-8-1.5
				s-4.3-2.4-5.8-4.3c-1.6-1.9-2.8-4.2-3.6-7c-0.8-2.8-1.2-6-1.2-9.6c0-4.1,0.5-7.7,1.5-10.6c1-3,2.4-5.4,4.1-7.3
				c1.7-1.9,3.8-3.3,6.2-4.2c2.4-0.9,4.9-1.4,7.7-1.4c1.3,0,2.6,0.1,3.9,0.4c1.3,0.2,2.4,0.6,3.5,1c1.1,0.4,2,0.9,2.8,1.4
				c0.8,0.5,1.4,1,1.8,1.3c0.4,0.4,0.6,0.7,0.8,0.9c0.1,0.2,0.3,0.5,0.3,0.8c0.1,0.3,0.2,0.6,0.2,1c0,0.4,0,0.8,0,1.4
				c0,1.2-0.1,2.1-0.4,2.5c-0.3,0.5-0.6,0.7-1,0.7c-0.5,0-1-0.3-1.6-0.8c-0.6-0.5-1.4-1.1-2.3-1.7c-0.9-0.6-2.1-1.2-3.4-1.7
				c-1.3-0.5-2.9-0.8-4.7-0.8c-3.7,0-6.5,1.4-8.5,4.3c-2,2.8-2.9,7-2.9,12.3c0,2.7,0.3,5.1,0.8,7.1c0.5,2,1.3,3.7,2.3,5.1
				c1,1.4,2.2,2.4,3.6,3c1.4,0.7,3.1,1,4.9,1c1.8,0,3.3-0.3,4.6-0.8c1.3-0.6,2.5-1.2,3.5-1.8c1-0.7,1.8-1.3,2.5-1.8
				c0.7-0.5,1.2-0.8,1.6-0.8c0.2,0,0.4,0.1,0.6,0.2c0.2,0.1,0.3,0.3,0.4,0.6c0.1,0.3,0.2,0.7,0.2,1.1
				C174.1,78.3,174.1,78.8,174.1,79.4z M220.1,85.8c0,0.2-0.1,0.5-0.2,0.6c-0.1,0.2-0.3,0.3-0.6,0.4c-0.3,0.1-0.6,0.2-1.1,0.3
				c-0.4,0.1-1,0.1-1.6,0.1c-0.7,0-1.3,0-1.7-0.1c-0.4-0.1-0.8-0.2-1.1-0.3c-0.3-0.1-0.4-0.3-0.5-0.4c-0.1-0.2-0.1-0.4-0.1-0.6v-5.5
				c-2.4,2.6-4.7,4.6-7.1,5.8c-2.3,1.2-4.7,1.8-7.1,1.8c-2.8,0-5.1-0.5-7-1.4c-1.9-0.9-3.4-2.2-4.6-3.8c-1.2-1.6-2-3.5-2.5-5.6
				c-0.5-2.1-0.8-4.7-0.8-7.7V43.9c0-0.2,0.1-0.5,0.2-0.6c0.1-0.2,0.3-0.3,0.6-0.5c0.3-0.1,0.7-0.2,1.2-0.3c0.5,0,1.1-0.1,1.9-0.1
				c0.7,0,1.4,0,1.9,0.1c0.5,0,0.9,0.1,1.2,0.3c0.3,0.1,0.5,0.3,0.6,0.5c0.1,0.2,0.2,0.4,0.2,0.6v24.4c0,2.5,0.2,4.4,0.5,5.9
				c0.4,1.5,0.9,2.7,1.6,3.8c0.7,1,1.6,1.8,2.8,2.4c1.1,0.6,2.4,0.9,3.9,0.9c1.9,0,3.8-0.7,5.7-2c1.9-1.4,3.9-3.4,6.1-6V43.9
				c0-0.2,0.1-0.5,0.2-0.6c0.1-0.2,0.3-0.3,0.6-0.5c0.3-0.1,0.7-0.2,1.2-0.3c0.5,0,1.1-0.1,1.9-0.1c0.7,0,1.4,0,1.9,0.1
				c0.5,0,0.9,0.1,1.2,0.3c0.3,0.1,0.5,0.3,0.6,0.5c0.1,0.2,0.2,0.4,0.2,0.6V85.8z M258.7,46.7c0,0.7,0,1.3,0,1.7
				c0,0.5-0.1,0.8-0.2,1.1c-0.1,0.3-0.2,0.5-0.3,0.6c-0.1,0.1-0.3,0.2-0.6,0.2c-0.2,0-0.6-0.1-0.9-0.2c-0.4-0.1-0.8-0.3-1.2-0.4
				c-0.4-0.1-1-0.3-1.5-0.4c-0.6-0.1-1.2-0.2-1.8-0.2c-0.8,0-1.5,0.2-2.3,0.5c-0.7,0.3-1.5,0.8-2.3,1.5c-0.8,0.7-1.7,1.7-2.6,2.8
				c-0.9,1.2-1.9,2.6-3,4.3v27.5c0,0.2-0.1,0.5-0.2,0.6c-0.1,0.2-0.3,0.3-0.6,0.4c-0.3,0.1-0.7,0.2-1.2,0.3
				c-0.5,0.1-1.1,0.1-1.9,0.1c-0.7,0-1.4,0-1.9-0.1c-0.5-0.1-0.9-0.2-1.2-0.3c-0.3-0.1-0.5-0.3-0.6-0.4c-0.1-0.2-0.2-0.4-0.2-0.6
				V43.9c0-0.2,0-0.5,0.1-0.6c0.1-0.2,0.3-0.3,0.6-0.5c0.3-0.1,0.6-0.2,1.1-0.3c0.4,0,1-0.1,1.7-0.1c0.7,0,1.2,0,1.7,0.1
				c0.4,0,0.8,0.1,1,0.3c0.2,0.1,0.4,0.3,0.5,0.5c0.1,0.2,0.2,0.4,0.2,0.6V50c1.1-1.7,2.2-3,3.2-4.1c1-1.1,2-1.9,2.9-2.5
				c0.9-0.6,1.8-1,2.7-1.3c0.9-0.2,1.8-0.3,2.7-0.3c0.4,0,0.9,0,1.4,0.1c0.5,0,1,0.1,1.6,0.3c0.6,0.1,1.1,0.3,1.5,0.4
				c0.4,0.2,0.8,0.3,1,0.5c0.2,0.2,0.3,0.3,0.4,0.4c0.1,0.1,0.1,0.3,0.2,0.5c0,0.2,0.1,0.5,0.1,1C258.7,45.4,258.7,46,258.7,46.7z
				 M297,85.8c0,0.4-0.1,0.7-0.4,0.8c-0.2,0.2-0.6,0.3-1,0.4c-0.4,0.1-1.1,0.1-1.9,0.1c-0.8,0-1.4,0-1.9-0.1c-0.5-0.1-0.8-0.2-1-0.4
				c-0.2-0.2-0.3-0.5-0.3-0.8v-4.2c-1.8,2-3.9,3.5-6.1,4.6c-2.2,1.1-4.6,1.6-7.1,1.6c-2.2,0-4.2-0.3-6-0.9c-1.8-0.6-3.3-1.4-4.6-2.5
				c-1.3-1.1-2.2-2.4-2.9-4c-0.7-1.6-1-3.4-1-5.4c0-2.4,0.5-4.4,1.4-6.1c1-1.7,2.3-3.2,4.1-4.3c1.8-1.1,4-2,6.6-2.6
				c2.6-0.6,5.5-0.9,8.8-0.9h5.8v-3.3c0-1.6-0.2-3-0.5-4.3c-0.3-1.2-0.9-2.3-1.6-3.1c-0.8-0.8-1.7-1.4-2.9-1.9
				c-1.2-0.4-2.7-0.6-4.5-0.6c-1.9,0-3.6,0.2-5.1,0.7c-1.5,0.4-2.8,0.9-3.9,1.5c-1.1,0.5-2.1,1-2.8,1.5c-0.8,0.4-1.3,0.7-1.7,0.7
				c-0.2,0-0.5-0.1-0.7-0.2c-0.2-0.1-0.3-0.3-0.5-0.6c-0.1-0.2-0.2-0.6-0.3-1c-0.1-0.4-0.1-0.8-0.1-1.3c0-0.8,0.1-1.4,0.2-1.8
				c0.1-0.4,0.4-0.9,0.8-1.3c0.4-0.4,1.1-0.9,2.2-1.4c1-0.5,2.2-1,3.5-1.5c1.3-0.4,2.8-0.8,4.4-1.1c1.6-0.3,3.2-0.4,4.8-0.4
				c3,0,5.6,0.3,7.7,1c2.1,0.7,3.8,1.7,5.1,3c1.3,1.3,2.2,3,2.8,4.9c0.6,2,0.9,4.2,0.9,6.8V85.8z M289.4,66.7h-6.5
				c-2.1,0-3.9,0.2-5.5,0.5c-1.5,0.4-2.8,0.9-3.9,1.6c-1,0.7-1.8,1.5-2.3,2.5c-0.5,1-0.7,2.1-0.7,3.4c0,2.2,0.7,3.9,2.1,5.2
				c1.4,1.3,3.3,1.9,5.8,1.9c2,0,3.9-0.5,5.6-1.5c1.7-1,3.5-2.6,5.4-4.7V66.7z M341.1,79.4c0,0.5,0,1,0,1.4c0,0.4-0.1,0.7-0.2,1
				c-0.1,0.3-0.2,0.5-0.3,0.7c-0.1,0.2-0.4,0.5-0.7,0.9c-0.4,0.4-1,0.9-2,1.4c-0.9,0.6-2,1.1-3.1,1.5c-1.2,0.4-2.4,0.8-3.8,1.1
				c-1.4,0.3-2.8,0.4-4.2,0.4c-3,0-5.7-0.5-8-1.5c-2.3-1-4.3-2.4-5.8-4.3c-1.6-1.9-2.8-4.2-3.6-7c-0.8-2.8-1.2-6-1.2-9.6
				c0-4.1,0.5-7.7,1.5-10.6c1-3,2.4-5.4,4.1-7.3c1.7-1.9,3.8-3.3,6.2-4.2c2.4-0.9,4.9-1.4,7.7-1.4c1.3,0,2.6,0.1,3.9,0.4
				c1.3,0.2,2.4,0.6,3.5,1c1.1,0.4,2,0.9,2.8,1.4c0.8,0.5,1.4,1,1.8,1.3c0.4,0.4,0.6,0.7,0.8,0.9c0.1,0.2,0.3,0.5,0.3,0.8
				c0.1,0.3,0.2,0.6,0.2,1c0,0.4,0,0.8,0,1.4c0,1.2-0.1,2.1-0.4,2.5c-0.3,0.5-0.6,0.7-1,0.7c-0.5,0-1-0.3-1.6-0.8
				c-0.6-0.5-1.4-1.1-2.3-1.7c-0.9-0.6-2.1-1.2-3.4-1.7c-1.3-0.5-2.9-0.8-4.7-0.8c-3.7,0-6.5,1.4-8.5,4.3c-2,2.8-2.9,7-2.9,12.3
				c0,2.7,0.3,5.1,0.8,7.1c0.5,2,1.3,3.7,2.3,5.1c1,1.4,2.2,2.4,3.6,3c1.4,0.7,3.1,1,4.9,1c1.8,0,3.3-0.3,4.6-0.8
				c1.3-0.6,2.5-1.2,3.5-1.8c1-0.7,1.8-1.3,2.5-1.8c0.7-0.5,1.2-0.8,1.6-0.8c0.2,0,0.4,0.1,0.6,0.2c0.2,0.1,0.3,0.3,0.4,0.6
				c0.1,0.3,0.2,0.7,0.2,1.1C341.1,78.3,341.1,78.8,341.1,79.4z M382,85.8c0,0.4-0.1,0.7-0.4,0.8c-0.2,0.2-0.6,0.3-1,0.4
				c-0.4,0.1-1.1,0.1-1.9,0.1c-0.8,0-1.4,0-1.9-0.1c-0.5-0.1-0.8-0.2-1-0.4c-0.2-0.2-0.3-0.5-0.3-0.8v-4.2c-1.8,2-3.9,3.5-6.1,4.6
				c-2.2,1.1-4.6,1.6-7.1,1.6c-2.2,0-4.2-0.3-6-0.9c-1.8-0.6-3.3-1.4-4.6-2.5c-1.3-1.1-2.2-2.4-2.9-4c-0.7-1.6-1-3.4-1-5.4
				c0-2.4,0.5-4.4,1.4-6.1c1-1.7,2.3-3.2,4.1-4.3c1.8-1.1,4-2,6.6-2.6c2.6-0.6,5.5-0.9,8.8-0.9h5.8v-3.3c0-1.6-0.2-3-0.5-4.3
				c-0.3-1.2-0.9-2.3-1.6-3.1c-0.8-0.8-1.7-1.4-2.9-1.9c-1.2-0.4-2.7-0.6-4.5-0.6c-1.9,0-3.6,0.2-5.1,0.7c-1.5,0.4-2.8,0.9-3.9,1.5
				c-1.1,0.5-2.1,1-2.8,1.5c-0.8,0.4-1.3,0.7-1.7,0.7c-0.2,0-0.5-0.1-0.7-0.2c-0.2-0.1-0.3-0.3-0.5-0.6c-0.1-0.2-0.2-0.6-0.3-1
				c-0.1-0.4-0.1-0.8-0.1-1.3c0-0.8,0.1-1.4,0.2-1.8c0.1-0.4,0.4-0.9,0.8-1.3c0.4-0.4,1.1-0.9,2.2-1.4c1-0.5,2.2-1,3.5-1.5
				c1.3-0.4,2.8-0.8,4.4-1.1c1.6-0.3,3.2-0.4,4.8-0.4c3,0,5.6,0.3,7.7,1c2.1,0.7,3.8,1.7,5.1,3c1.3,1.3,2.2,3,2.8,4.9
				c0.6,2,0.9,4.2,0.9,6.8V85.8z M374.4,66.7h-6.5c-2.1,0-3.9,0.2-5.5,0.5c-1.5,0.4-2.8,0.9-3.9,1.6c-1,0.7-1.8,1.5-2.3,2.5
				c-0.5,1-0.7,2.1-0.7,3.4c0,2.2,0.7,3.9,2.1,5.2c1.4,1.3,3.3,1.9,5.8,1.9c2,0,3.9-0.5,5.6-1.5c1.7-1,3.5-2.6,5.4-4.7V66.7z
				 M422.3,74.4c0,2.1-0.4,4-1.2,5.7c-0.8,1.7-1.9,3.1-3.4,4.2c-1.5,1.1-3.2,2-5.2,2.6c-2,0.6-4.2,0.9-6.6,0.9
				c-1.5,0-2.9-0.1-4.2-0.3c-1.3-0.2-2.6-0.5-3.6-0.9c-1.1-0.4-2-0.7-2.7-1.1c-0.7-0.4-1.3-0.7-1.6-1c-0.3-0.3-0.6-0.7-0.7-1.3
				c-0.2-0.6-0.2-1.3-0.2-2.3c0-0.6,0-1.1,0.1-1.5c0.1-0.4,0.1-0.7,0.2-1c0.1-0.2,0.2-0.4,0.4-0.5c0.2-0.1,0.4-0.2,0.6-0.2
				c0.3,0,0.8,0.2,1.5,0.6c0.7,0.4,1.5,0.9,2.5,1.4c1,0.5,2.1,1,3.5,1.4c1.3,0.4,2.9,0.6,4.6,0.6c1.3,0,2.5-0.1,3.5-0.4
				c1.1-0.3,2-0.7,2.7-1.2c0.8-0.5,1.4-1.2,1.8-2.1c0.4-0.8,0.6-1.8,0.6-3c0-1.2-0.3-2.2-0.9-3c-0.6-0.8-1.4-1.5-2.4-2.1
				c-1-0.6-2.1-1.2-3.3-1.7c-1.2-0.5-2.5-1-3.8-1.5c-1.3-0.5-2.6-1.1-3.9-1.8c-1.3-0.7-2.4-1.5-3.4-2.4c-1-1-1.8-2.1-2.4-3.4
				c-0.6-1.3-0.9-2.9-0.9-4.8c0-1.6,0.3-3.2,1-4.7c0.6-1.5,1.6-2.8,2.9-4c1.3-1.1,2.9-2,4.8-2.7c1.9-0.7,4.1-1,6.7-1
				c1.1,0,2.2,0.1,3.3,0.3c1.1,0.2,2.1,0.4,3,0.7c0.9,0.3,1.7,0.6,2.3,0.9c0.6,0.3,1.1,0.6,1.4,0.9c0.3,0.2,0.5,0.5,0.7,0.7
				c0.1,0.2,0.2,0.4,0.2,0.6c0,0.2,0.1,0.5,0.1,0.9c0,0.3,0.1,0.8,0.1,1.3c0,0.5,0,1-0.1,1.4c0,0.4-0.1,0.7-0.2,1
				c-0.1,0.2-0.2,0.4-0.4,0.5c-0.2,0.1-0.3,0.2-0.5,0.2c-0.3,0-0.7-0.2-1.2-0.5c-0.5-0.3-1.2-0.7-2-1.1c-0.8-0.4-1.8-0.8-2.9-1.1
				c-1.1-0.3-2.4-0.5-3.9-0.5c-1.3,0-2.4,0.1-3.4,0.4c-1,0.3-1.8,0.7-2.4,1.3c-0.6,0.5-1.1,1.2-1.4,1.9c-0.3,0.7-0.5,1.6-0.5,2.4
				c0,1.2,0.3,2.2,0.9,3c0.6,0.8,1.4,1.5,2.4,2.2c1,0.6,2.1,1.2,3.4,1.7c1.3,0.5,2.6,1,3.9,1.5c1.3,0.5,2.6,1.1,3.9,1.8
				c1.3,0.7,2.4,1.4,3.4,2.4c1,0.9,1.8,2,2.4,3.3C422,71.1,422.3,72.6,422.3,74.4z M464.7,85.8c0,0.4-0.1,0.7-0.4,0.8
				c-0.2,0.2-0.6,0.3-1,0.4c-0.4,0.1-1.1,0.1-1.9,0.1c-0.8,0-1.4,0-1.9-0.1c-0.5-0.1-0.8-0.2-1-0.4c-0.2-0.2-0.3-0.5-0.3-0.8v-4.2
				c-1.8,2-3.9,3.5-6.1,4.6c-2.2,1.1-4.6,1.6-7.1,1.6c-2.2,0-4.2-0.3-6-0.9c-1.8-0.6-3.3-1.4-4.6-2.5c-1.3-1.1-2.2-2.4-2.9-4
				c-0.7-1.6-1-3.4-1-5.4c0-2.4,0.5-4.4,1.4-6.1c1-1.7,2.3-3.2,4.1-4.3c1.8-1.1,4-2,6.6-2.6c2.6-0.6,5.5-0.9,8.8-0.9h5.8v-3.3
				c0-1.6-0.2-3-0.5-4.3c-0.3-1.2-0.9-2.3-1.6-3.1c-0.8-0.8-1.7-1.4-2.9-1.9c-1.2-0.4-2.7-0.6-4.5-0.6c-1.9,0-3.6,0.2-5.1,0.7
				c-1.5,0.4-2.8,0.9-3.9,1.5c-1.1,0.5-2.1,1-2.8,1.5c-0.8,0.4-1.3,0.7-1.7,0.7c-0.2,0-0.5-0.1-0.7-0.2c-0.2-0.1-0.3-0.3-0.5-0.6
				c-0.1-0.2-0.2-0.6-0.3-1c-0.1-0.4-0.1-0.8-0.1-1.3c0-0.8,0.1-1.4,0.2-1.8c0.1-0.4,0.4-0.9,0.8-1.3c0.4-0.4,1.1-0.9,2.2-1.4
				c1-0.5,2.2-1,3.5-1.5c1.3-0.4,2.8-0.8,4.4-1.1c1.6-0.3,3.2-0.4,4.8-0.4c3,0,5.6,0.3,7.7,1c2.1,0.7,3.8,1.7,5.1,3
				c1.3,1.3,2.2,3,2.8,4.9c0.6,2,0.9,4.2,0.9,6.8V85.8z M457.1,66.7h-6.5c-2.1,0-3.9,0.2-5.5,0.5c-1.5,0.4-2.8,0.9-3.9,1.6
				c-1,0.7-1.8,1.5-2.3,2.5c-0.5,1-0.7,2.1-0.7,3.4c0,2.2,0.7,3.9,2.1,5.2c1.4,1.3,3.3,1.9,5.8,1.9c2,0,3.9-0.5,5.6-1.5
				c1.7-1,3.5-2.6,5.4-4.7V66.7z"/>
		</defs>
		<use xlink:href="#SVGID_1_"  style="overflow:visible;fill:#0B428B;"/>
		<clipPath id="SVGID_2_">
			<use xlink:href="#SVGID_1_"  style="overflow:visible;"/>
		</clipPath>
	</g>
	<g>
		<path class="st0" d="M64.1,37.1c2.2-1,4.7-1.8,6.7-2.4c-1.8-1.2-3.6-2.4-5.3-3.6c-2.2,1-4.3,1.6-6.1,2.4
			C60.6,34.4,62.4,35.9,64.1,37.1z"/>
		<path class="st0" d="M108.3,28.4v-5.3c-13.8,0-27.4,2.4-39.5,6.7c1.8,1.2,3.6,2.4,5.5,3.6C84.9,30,96.3,28.4,108.3,28.4z"/>
		<path class="st0" d="M34.3,48c-1.6,1.2-3,2.4-4.7,3.6c1.2,1.2,2.4,2.4,3.6,3.6c1.6-1.2,3-2.4,4.7-3.6C36.7,50.5,35.5,49.2,34.3,48
			z"/>
		<path class="st0" d="M52.7,42.1c-1.6-1.2-2.8-2.4-4.1-3.6c-1.8,1-3.4,2.2-5.3,3c1.2,1.2,2.4,2.4,4.1,3.6
			C49.1,44.4,50.9,43.2,52.7,42.1z"/>
		<path class="st0" d="M45,46.8c-1.2-1.2-2.8-2.4-4.1-3.6c-1.6,1.2-3.4,2.2-4.9,3.4c1.2,1.2,2.4,2.4,3.6,3.6
			C41.6,49,43.6,47.8,45,46.8z"/>
		<path class="st0" d="M31.4,57.3c-1.2-1.2-2.4-2.4-3.6-3.6C17.5,62.4,8.7,73.2,2.1,85.1l2.8,5.5C11.6,78.2,20.5,66.5,31.4,57.3z"/>
		<path class="st0" d="M61.2,38.3c-1.6-1.2-3-2.4-4.7-3.6c-1.8,1-3.6,1.8-5.9,2.8c1.2,1.2,2.8,2.4,4.3,3.6
			C57.4,40.1,59.2,39.1,61.2,38.3z"/>
		<path class="st0" d="M58.2,43.2c1.6,1.2,3.4,2.2,4.9,3.4c2.2-1,4.7-1.8,6.7-2.8c-1.8-1-3.6-2.2-5.5-3.4
			C62.2,41.3,60.4,42.1,58.2,43.2z"/>
		<path class="st0" d="M37.9,62.8c-1.2-1.2-2.8-2.2-4.1-3.4C22.7,69.3,13.4,81.3,6.7,94.6l2.8,5.9C16.2,85.9,25.8,73,37.9,62.8z"/>
		<path class="st0" d="M60.4,47.8c-1.6-1-3.4-2.2-4.9-3.4c-1.8,1-3.6,2.2-5.5,3c1.6,1.2,3,2.2,4.7,3.4
			C56.4,49.9,58.6,48.6,60.4,47.8z"/>
		<path class="st0" d="M81.9,40.1c-2.4-1-4.9-2.2-7.1-3.4c-2.4,0.6-4.9,1.6-7.3,2.4c1.8,1.2,4.1,2.4,5.9,3.4
			C76,41.5,78.9,40.7,81.9,40.1z"/>
		<path class="st0" d="M47.9,49c-1.8,1.2-3.4,2.2-5.3,3.4c1.2,1.2,2.8,2.2,4.3,3.4c1.8-1.2,3.4-2.4,5.3-3.4
			C50.5,51.1,49.3,50.3,47.9,49z"/>
		<path class="st0" d="M40.4,53.9c-1.6,1.2-3,2.4-4.7,3.6c1.2,1.2,2.8,2.2,4.1,3.4c1.6-1.2,3-2.4,4.9-3.6
			C43.2,56.3,42,55.1,40.4,53.9z"/>
		<path class="st0" d="M86.2,38.9c7.1-1.6,14.4-2.2,21.9-2.2v-5.3c-10.5,0-20.7,1.6-30,4.1C80.9,37.1,83.5,37.9,86.2,38.9z"/>
		<path class="st0" d="M72.6,51.7c2.8-1,5.5-2.2,8.5-2.8c-2.4-1-4.9-1.8-7.3-3c-2.4,1-4.9,1.8-7.3,2.8
			C68.7,49.6,70.6,50.9,72.6,51.7z"/>
		<path class="st0" d="M77.7,44.6c2.8,1.2,5.5,2.2,8.3,3c7.1-1.6,14.8-2.4,22.5-2.4l0,0c-7.1,0-14.2-1.2-20.7-3
			C84.1,42.8,80.7,43.4,77.7,44.6z"/>
		<path class="st0" d="M44.8,67.7c-1.6-1-2.8-2.2-4.3-3C28,75.4,18.1,89,11.4,104.2l3,6.1C20.7,93.8,31.2,79,44.8,67.7z"/>
		<path class="st0" d="M57.6,52.9c1.6,1.2,3.4,2.2,5.3,3c2.2-1.2,4.3-2.2,6.7-3c-1.8-1-3.6-1.8-5.5-3C61.6,50.9,59.8,51.7,57.6,52.9
			z"/>
		<path class="st0" d="M47.5,59.4c-1.6,1.2-3.4,2.4-4.9,3.6c1.6,1,2.8,2.2,4.3,3c1.6-1.2,3.4-2.4,5.3-3.6
			C50.5,61.6,49.1,60.4,47.5,59.4z"/>
		<path class="st0" d="M54.3,61c1.8-1.2,3.6-2.4,5.9-3.4c-1.6-1-3.4-2.2-4.9-3c-1.8,1.2-3.6,2.2-5.5,3.4C51.1,58.8,52.7,60,54.3,61z
			"/>
		<path class="st0" d="M108.3,42.6v-2.4c-4.9,0-9.7,0.4-14.4,1C98.5,41.9,103.4,42.6,108.3,42.6z"/>
		<path class="st0" d="M77.2,53.5c2.8,1.2,5.5,2.2,8.5,2.8c7.1-1.8,14.8-2.8,22.5-2.8l0,0c-7.3,0-14.2-1-20.9-2.8
			C83.7,51.5,80.3,52.3,77.2,53.5z"/>
		<path class="st0" d="M108.3,51.1v-2.4c-4.9,0-9.7,0.4-14.8,1.2C98.1,50.5,103,51.1,108.3,51.1z"/>
		<path class="st0" d="M52.3,72.6c-1.6-1-3-1.8-4.7-2.8c-14.2,11.6-25.3,27.2-31.2,45l3.4,6.7C25.2,101.7,36.7,84.5,52.3,72.6z"/>
		<path class="st0" d="M72.6,61c2.8-1.2,5.5-2.2,8.5-3c-2.4-1-4.9-1.8-7.3-2.8c-2.4,1-4.9,1.8-7.3,3C68.3,59.2,70.6,60,72.6,61z"/>
		<path class="st0" d="M57.6,62.8c1.8,1,3.4,1.8,5.3,2.8c2.2-1.2,4.3-2.4,6.5-3.4c-1.8-1-4.1-1.8-5.9-2.8
			C61.6,60.4,59.4,61.6,57.6,62.8z"/>
		<path class="st0" d="M55.2,64.2c-1.8,1.2-3.4,2.4-5.3,3.6c1.6,1,3,1.8,4.9,2.8c1.8-1.2,3.6-2.4,5.5-3.6
			C58.6,66.3,56.8,65.3,55.2,64.2z"/>
		<path class="st0" d="M58,72.6c1.8,1,3.6,1.8,5.5,2.4c2.2-1.2,4.3-2.4,6.5-3.6c-2.2-1-4.1-1.6-5.9-2.4C61.6,70.1,59.8,71.3,58,72.6
			z"/>
		<path class="st0" d="M60.6,77c-1.8-1-3.4-1.6-5.3-2.4c-16.6,12.4-28.8,30.8-33.4,51.9l4.1,7.9C29,110.5,42.2,89.8,60.6,77z"/>
		<path class="st0" d="M72.6,69.9c2.8-1.2,5.5-2.4,8.3-3.4c-2.4-0.6-5.3-1.6-7.7-2.4c-2.4,1-4.9,2.2-7.1,3.4
			C68.7,68.3,70.6,69.3,72.6,69.9z"/>
		<path class="st0" d="M77,62.4c2.8,1,5.9,1.8,8.5,2.4c7.1-2.2,14.8-3,22.5-3l0,0c-7.3,0-14.4-1-21.3-2.4
			C83.7,60.4,80.3,61.2,77,62.4z"/>
		<path class="st0" d="M108.3,59.4v-2.4c-4.9,0-9.7,0.4-14.8,1.2C98.1,59.2,103,59.4,108.3,59.4z"/>
		<path class="st0" d="M108.3,68.1v-2.4c-4.9,0-9.7,0.6-14.8,1.6C98.1,67.5,103,68.1,108.3,68.1z"/>
		<path class="st0" d="M28.8,139.8l5.3,10.7c0-1.8-0.4-3.6-0.4-5.5c0-27.4,14.8-51.3,36.5-64.3c-2.2-0.6-4.1-1.6-6.1-2.4
			C44.2,92,30.2,114.3,28.8,139.8z"/>
		<path class="st0" d="M77.2,71.3c2.8,1,5.9,1.6,8.5,2.4c7.1-2.2,14.4-3.4,22.1-3.4l0,0c-7.1,0-14.2-1-20.9-2.4
			C83.7,68.9,80.7,70.1,77.2,71.3z"/>
		<path class="st0" d="M67.1,77c2.2,1,4.3,1.6,6.5,2.4c2.8-1.6,5.3-2.8,7.9-3.6c-2.4-0.6-5.3-1.6-7.7-2.4
			C71.4,74.2,69.3,75.4,67.1,77z"/>
		<path class="st1" d="M8.7,22.5l-2,1.2C12.2,34.9,19.3,45,27.8,53.5c0.6-0.6,1.2-1.2,1.8-1.6C21.3,43.4,14.4,33.6,8.7,22.5z"/>
		<path class="st1" d="M31.4,57.3c0.6-0.6,1.2-1.2,1.8-1.6c-1.2-1.2-2.4-2.4-3.6-3.6c-0.6,0.6-1.2,1.2-1.8,1.6
			C28.8,54.7,30,56.1,31.4,57.3z"/>
		<path class="st1" d="M33.5,55.5c-0.6,0.6-1.2,1.2-1.8,1.6c1,0.6,1.6,1.6,2.4,2.2c0.6-0.6,1.2-1.2,1.8-1.8
			C34.9,56.9,34.3,56.3,33.5,55.5z"/>
		<path class="st1" d="M35.9,57.6c-0.6,0.6-1.2,1.2-1.8,1.8c1.2,1.2,2.8,2.2,4.1,3.4c0.6-0.6,1.2-1.2,2.2-1.8
			C38.5,60,37.1,58.8,35.9,57.6z"/>
		<path class="st1" d="M39.7,61c-0.6,0.6-1.2,1.2-2.2,1.8c1,0.6,1.8,1.6,2.8,2.2c0.6-0.6,1.2-1.2,2.2-1.6
			C41.6,62.4,40.8,61.6,39.7,61z"/>
		<path class="st1" d="M46.8,66.3c-1.6-1-3-2.2-4.3-3c-0.6,0.6-1.2,1.2-2.2,1.6c1.6,1,2.8,2.2,4.3,3C45.6,67.5,46.2,66.9,46.8,66.3z
			"/>
		<path class="st1" d="M46.8,66.3c-0.6,0.6-1.6,1.2-2.2,1.6c1,0.6,1.8,1.2,3,1.8c0.6-0.6,1.6-1.2,2.2-1.6
			C49.1,67.5,47.9,66.9,46.8,66.3z"/>
		<path class="st1" d="M49.9,68.1c-0.6,0.6-1.6,1.2-2.2,1.6c1.6,1,3,1.8,4.7,2.8c0.6-0.6,1.6-1.2,2.2-1.6
			C53.1,69.9,51.5,68.9,49.9,68.1z"/>
		<path class="st1" d="M54.5,70.7c-0.6,0.6-1.6,1.2-2.2,1.6c1,0.6,2.2,1.2,3,1.8c1-0.6,1.6-1.2,2.4-1.6C57,71.9,55.8,71.3,54.5,70.7
			z"/>
		<path class="st1" d="M58,72.6c-1,0.6-1.6,1.2-2.4,1.6c1.8,1,3.4,1.8,5.3,2.4c1-0.6,1.6-1.2,2.4-1.6C61.6,74.4,59.8,73.6,58,72.6z"
			/>
		<path class="st1" d="M60.6,77c1.2,0.6,2.4,1.2,3.4,1.6c1-0.6,1.8-1.2,2.8-1.8c-1.2-0.6-2.4-1-3.6-1.6C62.4,75.8,61.6,76.4,60.6,77
			z"/>
		<path class="st1" d="M64.5,78.4c1.8,1,4.1,1.6,6.1,2.4c1-0.6,1.8-1.2,3-1.6c-2.2-0.6-4.3-1.6-6.5-2.4
			C66.3,77.2,65.3,77.8,64.5,78.4z"/>
		<path class="st1" d="M70.2,80.9c12,4.3,24.5,6.5,37.7,6.5v-2.4c-12.4,0-23.9-2.2-34.7-5.5C72.4,79.6,71.4,80.3,70.2,80.9z"/>
		<path class="st1" d="M36.5,46.6C28.4,38.5,21.7,29,16.4,18.8l-2,1.2c5.3,10.5,12,19.9,19.9,28.2C34.9,47.8,35.5,47.2,36.5,46.6z"
			/>
		<path class="st1" d="M37.9,51.7c0.6-0.6,1.6-1,2.2-1.6c-1.2-1.2-2.4-2.4-3.6-3.6c-0.6,0.6-1.6,1-2.2,1.6
			C35.5,49.2,36.7,50.5,37.9,51.7z"/>
		<path class="st1" d="M40.2,50.3c-0.6,0.6-1.6,1-2.2,1.6c1,0.6,1.8,1.6,2.4,2.2c0.6-0.6,1.6-1,2.2-1.6C42,51.7,41,50.9,40.2,50.3z"
			/>
		<path class="st1" d="M46.8,55.7c-1.6-1-2.8-2.2-4.3-3.4c-0.6,0.6-1.6,1-2.2,1.6c1.2,1.2,2.8,2.2,4.3,3.4
			C45.4,56.7,46.2,56.3,46.8,55.7z"/>
		<path class="st1" d="M46.8,55.7c-0.6,0.6-1.6,1-2.2,1.6c1,0.6,1.8,1.6,2.8,2.2c0.6-0.6,1.6-1,2.2-1.6
			C48.7,57.3,47.9,56.3,46.8,55.7z"/>
		<path class="st1" d="M49.7,58c-0.6,0.6-1.6,1-2.2,1.6c1.6,1,3,2.2,4.7,3c1-0.6,1.6-1,2.4-1.6C52.7,60,51.1,58.8,49.7,58z"/>
		<path class="st1" d="M52.1,62.4c1,0.6,2.2,1.2,3,1.8c1-0.6,1.6-1,2.4-1.6c-1-0.6-2.2-1.2-3-1.8C53.7,61.6,52.7,61.8,52.1,62.4z"/>
		<path class="st1" d="M60,67.1c1-0.6,1.8-1,2.8-1.6c-1.8-1-3.6-1.8-5.3-2.8c-1,0.6-1.6,1-2.4,1.6C56.8,65.3,58.6,66.3,60,67.1z"/>
		<path class="st1" d="M63.9,68.9c1-0.6,1.8-1,2.8-1.6c-1.2-0.6-2.4-1.2-3.6-1.8c-1,0.6-1.8,1-2.8,1.6
			C61.2,67.7,62.4,68.3,63.9,68.9z"/>
		<path class="st1" d="M63.9,68.9c1.8,1,4.1,1.8,5.9,2.4c1-0.6,2.2-1,3-1.6c-2.2-1-4.3-1.6-6.1-2.4C65.7,68.1,64.7,68.3,63.9,68.9z"
			/>
		<path class="st1" d="M69.5,71.3c1.6,0.6,2.8,1.2,4.3,1.6c1.2-0.6,2.2-1,3.4-1.6c-1.6-0.6-3-1-4.7-1.6
			C71.8,70.5,70.8,71.1,69.5,71.3z"/>
		<path class="st1" d="M81.5,75.4c1.6-0.6,3-1.2,4.7-1.6c-3-0.6-5.9-1.6-8.5-2.4c-1.2,0.6-2.4,1-3.4,1.6
			C76.4,73.8,78.9,74.8,81.5,75.4z"/>
		<path class="st1" d="M81.5,75.4c8.5,2.2,17.4,3.4,26.8,3.4v-2.4c-7.7,0-15-1-22.1-2.4C84.3,74.4,83.1,74.8,81.5,75.4z"/>
		<path class="st1" d="M41.4,43.2c0.6-0.6,1.6-1,2.2-1.6c-7.9-7.7-14.4-16.6-19.3-26.3l-2.6,1.2C26.6,26.5,33.5,35.5,41.4,43.2z"/>
		<path class="st1" d="M47.5,45.4c-1.2-1.2-2.8-2.4-4.1-3.6c-0.6,0.6-1.6,1-2.2,1.6c1.2,1.2,2.4,2.4,4.1,3.6
			C46,46.2,46.6,46,47.5,45.4z"/>
		<path class="st1" d="M49.9,47.4c-1-0.6-1.8-1.6-2.8-2.2c-0.6,0.6-1.6,1-2.2,1.6c1,0.6,1.8,1.6,2.8,2.2
			C48.5,48.6,49.3,48,49.9,47.4z"/>
		<path class="st1" d="M54.5,50.9c-1.6-1-3-2.2-4.7-3.4c-1,0.6-1.6,1-2.4,1.6c1.6,1.2,2.8,2.2,4.3,3.4
			C53.1,51.7,53.7,51.5,54.5,50.9z"/>
		<path class="st1" d="M52.1,52.3c1,0.6,1.8,1.6,3,2.2c1-0.6,1.6-1,2.4-1.6c-1-0.6-2.2-1.2-3-2.2C53.7,51.5,53.1,51.7,52.1,52.3z"/>
		<path class="st1" d="M60,57.6c1-0.6,1.8-1,2.8-1.6c-1.8-1-3.4-2.2-5.3-3c-1,0.6-1.6,1-2.4,1.6C56.8,55.5,58.6,56.7,60,57.6z"/>
		<path class="st1" d="M63.5,59.4c1-0.6,1.8-1,2.8-1.6c-1.2-0.6-2.4-1.2-3.6-1.8c-1,0.6-1.8,1-2.8,1.6
			C61.2,58.2,62.2,58.8,63.5,59.4z"/>
		<path class="st1" d="M63.5,59.4c1.8,1,4.1,1.8,5.9,2.8c1-0.6,2.2-1,3-1.6c-2.2-1-4.3-1.8-6.1-2.8C65.3,58.6,64.5,58.8,63.5,59.4z"
			/>
		<path class="st1" d="M69.3,62.2c1.2,0.6,2.8,1.2,4.3,1.8c1.2-0.6,2.4-1,3.6-1.6c-1.6-0.6-3-1.2-4.7-1.8
			C71.4,61.2,70.6,61.8,69.3,62.2z"/>
		<path class="st1" d="M81.3,66.5c1.6-0.6,3-1,4.7-1.6c-3-0.6-5.9-1.6-8.5-2.4c-1.2,0.4-2.4,1-3.6,1.6C76,64.8,78.5,65.9,81.3,66.5z
			"/>
		<path class="st1" d="M87.4,68.1c2.2-0.6,4.1-1,6.1-1.6c-2.8-0.4-5.3-1-7.7-1.6c-1.6,0.4-3,1-4.7,1.6
			C83.1,67.1,85.4,67.7,87.4,68.1z"/>
		<path class="st1" d="M87.4,68.1c6.7,1.6,13.8,2.4,20.9,2.4v-2.4c-4.9,0-9.7-0.4-14.8-1.2C91.4,67.1,89.2,67.7,87.4,68.1z"/>
		<path class="st1" d="M48.7,38.5c1-0.4,1.6-1,2.4-1.2c-7.9-7.3-14.8-16-19.3-25.7l-2.4,1.2C34.3,22.5,40.8,31.2,48.7,38.5z"/>
		<path class="st1" d="M55.2,40.9c-1.6-1.2-2.8-2.4-4.3-3.6c-1,0.4-1.6,1-2.4,1.2c1.2,1.2,2.8,2.4,4.1,3.6
			C53.7,41.9,54.5,41.3,55.2,40.9z"/>
		<path class="st1" d="M58.2,43.2c-1-0.6-1.8-1.6-2.8-2.2c-1,0.4-1.6,1-2.4,1.2c1,0.6,1.8,1.6,2.8,2.2C56.4,44,57.4,43.4,58.2,43.2z
			"/>
		<path class="st1" d="M60.4,47.8c1-0.4,1.8-1,2.8-1.2c-1.8-1-3.4-2.2-4.9-3.4c-1,0.4-1.8,1-2.4,1.2C57.4,45.6,58.8,46.8,60.4,47.8z
			"/>
		<path class="st1" d="M63.9,49.9c1-0.4,1.8-1,2.8-1.2c-1.2-0.6-2.4-1.2-3.4-2.2c-1,0.4-1.8,1-2.8,1.2
			C61.6,48.6,62.4,49.2,63.9,49.9z"/>
		<path class="st1" d="M63.9,49.9c1.8,1.2,3.6,2.2,5.5,3c1.2-0.4,2.2-1,3.4-1.2c-2.2-1-4.1-1.8-6.1-3C65.7,49,64.7,49.2,63.9,49.9z"
			/>
		<path class="st1" d="M69.3,52.9c1.2,0.6,2.8,1.2,4.1,1.8c1.2-0.4,2.4-1,3.6-1.2c-1.6-0.6-3-1.2-4.7-1.8
			C71.8,52.1,70.6,52.3,69.3,52.9z"/>
		<path class="st1" d="M80.9,57.6c1.6-0.6,3-1,4.7-1.2c-2.8-1-5.9-1.8-8.5-2.8c-1.2,0.4-2.4,1-3.6,1.2C76,56.1,78.5,56.9,80.9,57.6z
			"/>
		<path class="st1" d="M87.2,59.4c2.2-0.6,4.3-1,6.5-1.2c-2.8-0.6-5.3-1-7.7-1.8c-1.6,0.4-3,1-4.7,1.2
			C83.1,58.6,84.9,58.8,87.2,59.4z"/>
		<path class="st1" d="M87.2,59.4c6.7,1.6,13.8,2.4,21.3,2.4v-2.4c-4.9,0-9.7-0.6-14.8-1.2C91.4,58.6,89.2,58.8,87.2,59.4z"/>
		<path class="st1" d="M56.8,34.4c1-0.4,1.8-1,2.4-1.2c-8.3-7.1-15.4-15.6-19.9-25.5l-2.4,1.2C41.6,18.8,48.5,27.6,56.8,34.4z"/>
		<path class="st1" d="M64.1,37.1c-1.6-1.2-3-2.4-4.7-3.6c-1,0.4-1.8,0.6-2.4,1.2c1.6,1.2,3,2.4,4.7,3.6
			C62.2,37.7,63.3,37.3,64.1,37.1z"/>
		<path class="st1" d="M64.5,40.3c1-0.4,1.8-1,3-1.2c-1.2-0.6-2.2-1.6-3.4-2.2c-1,0.4-1.8,1-2.8,1.2C62.2,38.9,63.5,39.7,64.5,40.3z
			"/>
		<path class="st1" d="M69.9,43.8c1.2-0.4,2.2-1,3.4-1.2c-2.2-1-4.1-2.2-5.9-3.4c-1,0.4-1.8,0.6-3,1.2
			C66.3,41.5,68.1,42.6,69.9,43.8z"/>
		<path class="st1" d="M69.9,43.8c1.2,0.6,2.8,1.6,4.1,2.2c1.2-0.4,2.4-1,3.6-1.2c-1.6-0.6-2.8-1.2-4.3-2.2
			C72,42.8,71.2,43.2,69.9,43.8z"/>
		<path class="st1" d="M81.3,49c1.6-0.4,3-1,4.7-1.2c-2.8-1-5.5-1.8-8.3-3c-1.2,0.4-2.4,1-3.6,1.2C76.4,46.8,78.9,48,81.3,49z"/>
		<path class="st1" d="M87.4,50.9c2.2-0.4,4.1-1,6.1-1.2c-2.4-0.6-5.3-1.2-7.7-1.8c-1.6,0.4-3,0.6-4.7,1.2
			C83.1,49.6,85.4,50.3,87.4,50.9z"/>
		<path class="st1" d="M87.4,50.9c6.7,1.8,13.8,2.8,20.9,2.8v-2.4c-4.9,0-9.7-0.6-14.8-1.6C91.4,49.9,89.2,50.3,87.4,50.9z"/>
		<path class="st1" d="M65.7,30.8c1-0.4,1.8-0.6,3-1c-9.1-6.5-16.6-15.4-21.9-25.5l-2.4,1.2C49.3,15.2,56.8,24.1,65.7,30.8z"/>
		<path class="st1" d="M70.8,34.4c1-0.4,2.2-0.6,3-1c-1.8-1.2-3.6-2.4-5.5-3.6c-1,0.4-1.8,0.6-3,1C67.1,32,68.9,33.2,70.8,34.4z"/>
		<path class="st1" d="M78.3,35.5c-1.6-0.6-2.8-1.6-4.3-2.2c-1.2,0.4-2.2,0.6-3,1c1.2,1,2.4,1.6,3.6,2.2
			C75.8,36.5,77,36.1,78.3,35.5z"/>
		<path class="st1" d="M81.9,40.1c1.6-0.4,3-0.6,4.7-1c-2.8-1-5.5-2.2-7.9-3.4c-1.2,0.4-2.4,0.6-3.6,1C77,37.9,79.5,38.9,81.9,40.1z
			"/>
		<path class="st1" d="M87.4,41.9c2.2-0.4,4.1-0.6,6.1-1c-2.4-0.6-5.3-1.2-7.3-2.2c-1.6,0.4-3,0.6-4.7,1
			C83.7,40.7,85.6,41.3,87.4,41.9z"/>
		<path class="st1" d="M87.4,41.9c6.5,1.8,13.6,3,20.7,3v-2.4c-4.9,0-9.7-0.6-14.4-1.6C91.6,41.3,89.6,41.5,87.4,41.9z"/>
		<path class="st0" d="M31.4,57.3c0.6-0.6,1.2-1.2,1.8-1.6c-1.2-1.2-2.4-2.4-3.6-3.6c-0.6,0.6-1.2,1.2-1.8,1.6
			C28.8,54.7,30,56.1,31.4,57.3z"/>
		<path class="st0" d="M35.9,57.6c-0.6,0.6-1.2,1.2-1.8,1.8c1.2,1.2,2.8,2.2,4.1,3.4c0.6-0.6,1.2-1.2,2.2-1.8
			C38.5,60,37.1,58.8,35.9,57.6z"/>
		<path class="st0" d="M46.8,66.3c-1.6-1-3-2.2-4.3-3c-0.6,0.6-1.2,1.2-2.2,1.6c1.6,1,2.8,2.2,4.3,3C45.6,67.5,46.2,66.9,46.8,66.3z
			"/>
		<path class="st0" d="M49.9,68.1c-0.6,0.6-1.6,1.2-2.2,1.6c1.6,1,3,1.8,4.7,2.8c0.6-0.6,1.6-1.2,2.2-1.6
			C53.1,69.9,51.5,68.9,49.9,68.1z"/>
		<path class="st0" d="M58,72.6c-1,0.6-1.6,1.2-2.4,1.6c1.8,1,3.4,1.8,5.3,2.4c1-0.6,1.6-1.2,2.4-1.6C61.6,74.4,59.8,73.6,58,72.6z"
			/>
		<path class="st0" d="M64.5,78.4c1.8,1,4.1,1.6,6.1,2.4c1-0.6,1.8-1.2,3-1.6c-2.2-0.6-4.3-1.6-6.5-2.4
			C66.3,77.2,65.3,77.8,64.5,78.4z"/>
		<path class="st0" d="M37.9,51.7c0.6-0.6,1.6-1,2.2-1.6c-1.2-1.2-2.4-2.4-3.6-3.6c-0.6,0.6-1.6,1-2.2,1.6
			C35.5,49.2,36.7,50.5,37.9,51.7z"/>
		<path class="st0" d="M46.8,55.7c-1.6-1-2.8-2.2-4.3-3.4c-0.6,0.6-1.6,1-2.2,1.6c1.2,1.2,2.8,2.2,4.3,3.4
			C45.4,56.7,46.2,56.3,46.8,55.7z"/>
		<path class="st0" d="M49.7,58c-0.6,0.6-1.6,1-2.2,1.6c1.6,1,3,2.2,4.7,3c1-0.6,1.6-1,2.4-1.6C52.7,60,51.1,58.8,49.7,58z"/>
		<path class="st0" d="M60,67.1c1-0.6,1.8-1,2.8-1.6c-1.8-1-3.6-1.8-5.3-2.8c-1,0.6-1.6,1-2.4,1.6C56.8,65.3,58.6,66.3,60,67.1z"/>
		<path class="st0" d="M63.9,68.9c1.8,1,4.1,1.8,5.9,2.4c1-0.6,2.2-1,3-1.6c-2.2-1-4.3-1.6-6.1-2.4C65.7,68.1,64.7,68.3,63.9,68.9z"
			/>
		<path class="st0" d="M81.5,75.4c1.6-0.6,3-1.2,4.7-1.6c-3-0.6-5.9-1.6-8.5-2.4c-1.2,0.6-2.4,1-3.4,1.6
			C76.4,73.8,78.9,74.8,81.5,75.4z"/>
		<path class="st0" d="M47.5,45.4c-1.2-1.2-2.8-2.4-4.1-3.6c-0.6,0.6-1.6,1-2.2,1.6c1.2,1.2,2.4,2.4,4.1,3.6
			C46,46.2,46.6,46,47.5,45.4z"/>
		<path class="st0" d="M54.5,50.9c-1.6-1-3-2.2-4.7-3.4c-1,0.6-1.6,1-2.4,1.6c1.6,1.2,2.8,2.2,4.3,3.4
			C53.1,51.7,53.7,51.5,54.5,50.9z"/>
		<path class="st0" d="M60,57.6c1-0.6,1.8-1,2.8-1.6c-1.8-1-3.4-2.2-5.3-3c-1,0.6-1.6,1-2.4,1.6C56.8,55.5,58.6,56.7,60,57.6z"/>
		<path class="st0" d="M63.5,59.4c1.8,1,4.1,1.8,5.9,2.8c1-0.6,2.2-1,3-1.6c-2.2-1-4.3-1.8-6.1-2.8C65.3,58.6,64.5,58.8,63.5,59.4z"
			/>
		<path class="st0" d="M81.3,66.5c1.6-0.6,3-1,4.7-1.6c-3-0.6-5.9-1.6-8.5-2.4c-1.2,0.4-2.4,1-3.6,1.6C76,64.8,78.5,65.9,81.3,66.5z
			"/>
		<path class="st0" d="M87.4,68.1c6.7,1.6,13.8,2.4,20.9,2.4v-2.4c-4.9,0-9.7-0.4-14.8-1.2C91.4,67.1,89.2,67.7,87.4,68.1z"/>
		<path class="st0" d="M55.2,40.9c-1.6-1.2-2.8-2.4-4.3-3.6c-1,0.4-1.6,1-2.4,1.2c1.2,1.2,2.8,2.4,4.1,3.6
			C53.7,41.9,54.5,41.3,55.2,40.9z"/>
		<path class="st0" d="M60.4,47.8c1-0.4,1.8-1,2.8-1.2c-1.8-1-3.4-2.2-4.9-3.4c-1,0.4-1.8,1-2.4,1.2C57.4,45.6,58.8,46.8,60.4,47.8z
			"/>
		<path class="st0" d="M63.9,49.9c1.8,1.2,3.6,2.2,5.5,3c1.2-0.4,2.2-1,3.4-1.2c-2.2-1-4.1-1.8-6.1-3C65.7,49,64.7,49.2,63.9,49.9z"
			/>
		<path class="st0" d="M80.9,57.6c1.6-0.6,3-1,4.7-1.2c-2.8-1-5.9-1.8-8.5-2.8c-1.2,0.4-2.4,1-3.6,1.2C76,56.1,78.5,56.9,80.9,57.6z
			"/>
		<path class="st0" d="M87.2,59.4c6.7,1.6,13.8,2.4,21.3,2.4v-2.4c-4.9,0-9.7-0.6-14.8-1.2C91.4,58.6,89.2,58.8,87.2,59.4z"/>
		<path class="st0" d="M64.1,37.1c-1.6-1.2-3-2.4-4.7-3.6c-1,0.4-1.8,0.6-2.4,1.2c1.6,1.2,3,2.4,4.7,3.6
			C62.2,37.7,63.3,37.3,64.1,37.1z"/>
		<path class="st0" d="M69.9,43.8c1.2-0.4,2.2-1,3.4-1.2c-2.2-1-4.1-2.2-5.9-3.4c-1,0.4-1.8,0.6-3,1.2
			C66.3,41.5,68.1,42.6,69.9,43.8z"/>
		<path class="st0" d="M81.3,49c1.6-0.4,3-1,4.7-1.2c-2.8-1-5.5-1.8-8.3-3c-1.2,0.4-2.4,1-3.6,1.2C76.4,46.8,78.9,48,81.3,49z"/>
		<path class="st0" d="M87.4,50.9c6.7,1.8,13.8,2.8,20.9,2.8v-2.4c-4.9,0-9.7-0.6-14.8-1.6C91.4,49.9,89.2,50.3,87.4,50.9z"/>
		<path class="st0" d="M70.8,34.4c1-0.4,2.2-0.6,3-1c-1.8-1.2-3.6-2.4-5.5-3.6c-1,0.4-1.8,0.6-3,1C67.1,32,68.9,33.2,70.8,34.4z"/>
		<path class="st0" d="M81.9,40.1c1.6-0.4,3-0.6,4.7-1c-2.8-1-5.5-2.2-7.9-3.4c-1.2,0.4-2.4,0.6-3.6,1C77,37.9,79.5,38.9,81.9,40.1z
			"/>
		<path class="st0" d="M87.4,41.9c6.5,1.8,13.6,3,20.7,3v-2.4c-4.9,0-9.7-0.6-14.4-1.6C91.6,41.3,89.6,41.5,87.4,41.9z"/>
	</g>
</g>
</svg>
