<svg xmlns="http://www.w3.org/2000/svg" xml:space="preserve" viewBox="0 0 64 64" id="diploma">
  <g>
    <path fill="#1D1D1D" d="M63 41H51.42a1 1 0 0 1 0-2H62V11.414L52.586 2H2v37h34.58a1 1 0 0 1 0 2H1a1 1 0 0 1-1-1V1a1 1 0 0 1 1-1h52a1 1 0 0 1 .707.293l10 10A1 1 0 0 1 64 11v29a1 1 0 0 1-1 1z"></path>
    <path fill="#1D1D1D" d="M63 12H53a1 1 0 0 1-1-1V1a1 1 0 0 1 2 0v9h9a1 1 0 0 1 0 2zM44 46c-4.962 0-9-4.038-9-9s4.038-9 9-9 9 4.038 9 9-4.038 9-9 9zm0-16c-3.86 0-7 3.14-7 7s3.14 7 7 7 7-3.14 7-7-3.14-7-7-7z"></path>
    <path fill="#1D1D1D" d="M44 42c-2.757 0-5-2.243-5-5s2.243-5 5-5 5 2.243 5 5-2.243 5-5 5zm0-8c-1.654 0-3 1.346-3 3s1.346 3 3 3 3-1.346 3-3-1.346-3-3-3z"></path>
    <path fill="#1D1D1D" d="M50 63a1 1 0 0 1-.9-.565L44 51.862l-5.1 10.573a1 1 0 0 1-1.862-.16l-1.65-5.774-5.892 3.367a.999.999 0 0 1-1.384-1.329l8.8-16.95a1 1 0 1 1 1.776.922l-7.236 13.936 4.052-2.315a.998.998 0 0 1 1.457.593l1.28 4.475 4.858-10.075c.334-.69 1.468-.69 1.802 0L49.76 59.2l1.279-4.475a1 1 0 0 1 1.457-.593l3.963 2.264-7.349-13.622a1 1 0 1 1 1.76-.949l9.01 16.7a.999.999 0 0 1-1.376 1.343l-5.893-3.367-1.65 5.774A1 1 0 0 1 50 63zM42 9H12a1 1 0 0 1 0-2h30a1 1 0 0 1 0 2zM42 15H12a1 1 0 0 1 0-2h30a1 1 0 0 1 0 2zM52 21H12a1 1 0 0 1 0-2h40a1 1 0 0 1 0 2zM52 27H12a1 1 0 0 1 0-2h40a1 1 0 0 1 0 2zM19 33h-7a1 1 0 0 1 0-2h7a1 1 0 0 1 0 2zM27 33c-.26 0-.52-.11-.71-.29-.18-.19-.29-.44-.29-.71 0-.26.11-.52.29-.71.37-.37 1.04-.37 1.42 0 .18.19.29.45.29.71 0 .26-.11.52-.29.71-.19.18-.45.29-.71.29zM31 33c-.26 0-.52-.11-.71-.29-.18-.19-.29-.45-.29-.71 0-.27.11-.52.29-.71.37-.37 1.05-.37 1.42 0 .18.19.29.44.29.71 0 .26-.11.52-.29.71-.19.18-.45.29-.71.29zM44 38c-.26 0-.52-.11-.71-.29-.18-.19-.29-.45-.29-.71 0-.26.11-.52.29-.71.37-.37 1.04-.37 1.42 0 .18.19.29.45.29.71 0 .26-.11.52-.29.71-.19.18-.45.29-.71.29zM23 33c-.26 0-.52-.11-.71-.29-.18-.19-.29-.44-.29-.71s.11-.52.29-.71c.37-.37 1.05-.37 1.42 0 .18.19.29.45.29.71 0 .26-.11.52-.29.71-.19.18-.45.29-.71.29z"></path>
  </g>
</svg>
