<svg width="228" height="225" viewBox="0 0 228 225" fill="none" xmlns="http://www.w3.org/2000/svg">
<path d="M224.438 146.062H183.184C182.239 146.062 181.333 145.687 180.665 145.019C179.997 144.351 179.621 143.445 179.621 142.5C179.621 141.555 179.997 140.649 180.665 139.981C181.333 139.313 182.239 138.938 183.184 138.938H220.875V40.6624L187.338 7.125H7.125V138.938H130.316C131.261 138.938 132.167 139.313 132.835 139.981C133.503 140.649 133.879 141.555 133.879 142.5C133.879 143.445 133.503 144.351 132.835 145.019C132.167 145.687 131.261 146.062 130.316 146.062H3.5625C2.61767 146.062 1.71153 145.687 1.04343 145.019C0.375334 144.351 0 143.445 0 142.5V3.5625C0 2.61767 0.375334 1.71153 1.04343 1.04343C1.71153 0.375334 2.61767 0 3.5625 0L188.812 0C189.757 0.000201771 190.663 0.375668 191.331 1.04381L226.956 36.6688C227.624 37.3368 228 38.2427 228 39.1875V142.5C228 143.445 227.625 144.351 226.957 145.019C226.288 145.687 225.382 146.062 224.438 146.062Z" fill="#0099CC"/>
<path d="M224.438 42.75H188.812C187.868 42.75 186.962 42.3747 186.293 41.7066C185.625 41.0385 185.25 40.1323 185.25 39.1875V3.5625C185.25 2.61767 185.625 1.71153 186.293 1.04343C186.962 0.375334 187.868 0 188.812 0C189.757 0 190.663 0.375334 191.332 1.04343C192 1.71153 192.375 2.61767 192.375 3.5625V35.625H224.438C225.382 35.625 226.288 36.0003 226.957 36.6684C227.625 37.3365 228 38.2427 228 39.1875C228 40.1323 227.625 41.0385 226.957 41.7066C226.288 42.3747 225.382 42.75 224.438 42.75ZM156.75 163.875C139.073 163.875 124.688 149.49 124.688 131.812C124.688 114.135 139.073 99.75 156.75 99.75C174.427 99.75 188.812 114.135 188.812 131.812C188.812 149.49 174.427 163.875 156.75 163.875ZM156.75 106.875C142.999 106.875 131.812 118.061 131.812 131.812C131.812 145.564 142.999 156.75 156.75 156.75C170.501 156.75 181.688 145.564 181.688 131.812C181.688 118.061 170.501 106.875 156.75 106.875Z" fill="#0099CC"/>
<path d="M156.75 149.625C146.928 149.625 138.938 141.634 138.938 131.812C138.938 121.991 146.928 114 156.75 114C166.572 114 174.562 121.991 174.562 131.812C174.562 141.634 166.572 149.625 156.75 149.625ZM156.75 121.125C150.858 121.125 146.062 125.92 146.062 131.812C146.062 137.705 150.858 142.5 156.75 142.5C162.642 142.5 167.438 137.705 167.438 131.812C167.438 125.92 162.642 121.125 156.75 121.125Z" fill="#0099CC"/>
<path d="M178.125 224.438C177.455 224.437 176.799 224.248 176.232 223.892C175.665 223.536 175.21 223.028 174.919 222.425L156.75 184.758L138.581 222.425C138.267 223.075 137.763 223.614 137.136 223.971C136.509 224.329 135.787 224.487 135.068 224.425C134.349 224.363 133.665 224.084 133.108 223.625C132.551 223.166 132.146 222.549 131.948 221.855L126.07 201.285L105.08 213.28C104.412 213.665 103.637 213.823 102.872 213.73C102.107 213.637 101.392 213.298 100.836 212.764C100.281 212.23 99.9129 211.53 99.7889 210.769C99.6649 210.008 99.7913 209.228 100.149 208.545L131.499 148.161C131.715 147.745 132.01 147.376 132.368 147.075C132.727 146.774 133.141 146.546 133.587 146.405C134.033 146.264 134.503 146.212 134.969 146.252C135.436 146.292 135.889 146.424 136.305 146.64C136.72 146.855 137.089 147.151 137.39 147.509C137.692 147.867 137.919 148.281 138.061 148.727C138.202 149.174 138.254 149.643 138.214 150.11C138.173 150.576 138.042 151.03 137.826 151.445L112.048 201.092L126.483 192.845C126.951 192.576 127.475 192.418 128.014 192.381C128.553 192.345 129.093 192.432 129.594 192.635C130.094 192.839 130.541 193.154 130.902 193.557C131.262 193.959 131.526 194.438 131.674 194.958L136.234 210.9L153.54 175.008C154.73 172.55 158.77 172.55 159.96 175.008L177.27 210.9L181.826 194.958C181.975 194.439 182.24 193.961 182.6 193.559C182.961 193.157 183.408 192.843 183.908 192.64C184.408 192.436 184.948 192.349 185.486 192.385C186.025 192.42 186.548 192.578 187.017 192.845L201.135 200.911L174.954 152.382C174.721 151.97 174.571 151.515 174.516 151.044C174.46 150.573 174.499 150.096 174.63 149.64C174.761 149.184 174.982 148.759 175.28 148.39C175.577 148.021 175.945 147.715 176.363 147.49C176.78 147.265 177.238 147.125 177.71 147.08C178.182 147.034 178.659 147.083 179.111 147.224C179.564 147.364 179.984 147.594 180.347 147.9C180.71 148.205 181.008 148.58 181.224 149.002L213.323 208.495C213.693 209.176 213.831 209.96 213.715 210.726C213.599 211.493 213.236 212.201 212.682 212.742C212.127 213.284 211.41 213.629 210.641 213.726C209.872 213.823 209.092 213.666 208.421 213.28L187.427 201.285L181.549 221.855C181.336 222.599 180.887 223.253 180.269 223.719C179.651 224.185 178.899 224.437 178.125 224.438ZM149.625 32.0625H42.75C41.8052 32.0625 40.899 31.6872 40.2309 31.0191C39.5628 30.351 39.1875 29.4448 39.1875 28.5C39.1875 27.5552 39.5628 26.649 40.2309 25.9809C40.899 25.3128 41.8052 24.9375 42.75 24.9375H149.625C150.57 24.9375 151.476 25.3128 152.144 25.9809C152.812 26.649 153.188 27.5552 153.188 28.5C153.188 29.4448 152.812 30.351 152.144 31.0191C151.476 31.6872 150.57 32.0625 149.625 32.0625ZM149.625 53.4375H42.75C41.8052 53.4375 40.899 53.0622 40.2309 52.3941C39.5628 51.726 39.1875 50.8198 39.1875 49.875C39.1875 48.9302 39.5628 48.024 40.2309 47.3559C40.899 46.6878 41.8052 46.3125 42.75 46.3125H149.625C150.57 46.3125 151.476 46.6878 152.144 47.3559C152.812 48.024 153.188 48.9302 153.188 49.875C153.188 50.8198 152.812 51.726 152.144 52.3941C151.476 53.0622 150.57 53.4375 149.625 53.4375ZM185.25 74.8125H42.75C41.8052 74.8125 40.899 74.4372 40.2309 73.7691C39.5628 73.101 39.1875 72.1948 39.1875 71.25C39.1875 70.3052 39.5628 69.399 40.2309 68.7309C40.899 68.0628 41.8052 67.6875 42.75 67.6875H185.25C186.195 67.6875 187.101 68.0628 187.769 68.7309C188.437 69.399 188.812 70.3052 188.812 71.25C188.812 72.1948 188.437 73.101 187.769 73.7691C187.101 74.4372 186.195 74.8125 185.25 74.8125ZM185.25 96.1875H42.75C41.8052 96.1875 40.899 95.8122 40.2309 95.1441C39.5628 94.476 39.1875 93.5698 39.1875 92.625C39.1875 91.6802 39.5628 90.774 40.2309 90.1059C40.899 89.4378 41.8052 89.0625 42.75 89.0625H185.25C186.195 89.0625 187.101 89.4378 187.769 90.1059C188.437 90.774 188.812 91.6802 188.812 92.625C188.812 93.5698 188.437 94.476 187.769 95.1441C187.101 95.8122 186.195 96.1875 185.25 96.1875ZM67.6875 117.562H42.75C41.8052 117.562 40.899 117.187 40.2309 116.519C39.5628 115.851 39.1875 114.945 39.1875 114C39.1875 113.055 39.5628 112.149 40.2309 111.481C40.899 110.813 41.8052 110.438 42.75 110.438H67.6875C68.6323 110.438 69.5385 110.813 70.2066 111.481C70.8747 112.149 71.25 113.055 71.25 114C71.25 114.945 70.8747 115.851 70.2066 116.519C69.5385 117.187 68.6323 117.562 67.6875 117.562ZM96.1875 117.562C95.2613 117.562 94.335 117.171 93.6581 116.529C93.0169 115.852 92.625 114.962 92.625 114C92.625 113.074 93.0169 112.148 93.6581 111.471C94.9763 110.153 97.3631 110.153 98.7169 111.471C99.3581 112.148 99.75 113.074 99.75 114C99.75 114.926 99.3581 115.852 98.7169 116.529C98.04 117.171 97.1137 117.562 96.1875 117.562ZM110.438 117.562C109.511 117.562 108.585 117.171 107.908 116.529C107.267 115.852 106.875 114.926 106.875 114C106.875 113.038 107.267 112.148 107.908 111.471C109.226 110.153 111.649 110.153 112.967 111.471C113.608 112.148 114 113.038 114 114C114 114.926 113.608 115.852 112.967 116.529C112.29 117.171 111.364 117.562 110.438 117.562ZM156.75 135.375C155.824 135.375 154.898 134.983 154.221 134.342C153.579 133.665 153.188 132.739 153.188 131.812C153.188 130.886 153.579 129.96 154.221 129.283C155.539 127.965 157.926 127.965 159.279 129.283C159.921 129.96 160.312 130.886 160.312 131.812C160.312 132.739 159.921 133.665 159.279 134.342C158.602 134.983 157.676 135.375 156.75 135.375ZM81.9375 117.562C81.0113 117.562 80.085 117.171 79.4081 116.529C78.7669 115.852 78.375 114.962 78.375 114C78.375 113.038 78.7669 112.148 79.4081 111.471C80.7263 110.153 83.1487 110.153 84.4669 111.471C85.1081 112.148 85.5 113.074 85.5 114C85.5 114.926 85.1081 115.852 84.4669 116.529C83.79 117.171 82.8637 117.562 81.9375 117.562Z" fill="#0099CC"/>
</svg>
