<svg width="70" height="70" viewBox="0 0 70 70" fill="none" xmlns="http://www.w3.org/2000/svg">
<g clip-path="url(#clip0_258_404)">
<path d="M0 8.22719V5.83333C0 4.28624 0.460936 2.80251 1.28141 1.70854C2.10188 0.614582 3.21468 0 4.375 0L65.625 0C66.7853 0 67.8981 0.614582 68.7186 1.70854C69.5391 2.80251 70 4.28624 70 5.83333V8.22719L35 37.3939L0 8.22719ZM36.1594 43.3074C35.8116 43.5968 35.4099 43.7502 35 43.7502C34.5901 43.7502 34.1884 43.5968 33.8406 43.3074L0 15.1061V64.1667C0 65.7138 0.460936 67.1975 1.28141 68.2915C2.10188 69.3854 3.21468 70 4.375 70H65.625C66.7853 70 67.8981 69.3854 68.7186 68.2915C69.5391 67.1975 70 65.7138 70 64.1667V15.1061L36.1594 43.3074Z" fill="#0099CC"/>
</g>
<defs>
<clipPath id="clip0_258_404">
<rect width="70" height="70" fill="white"/>
</clipPath>
</defs>
</svg>
