<svg width="20" height="17" viewBox="0 0 20 17" fill="none" xmlns="http://www.w3.org/2000/svg">
<path fill-rule="evenodd" clip-rule="evenodd" d="M9.60821 0C4.3096 0 0 3.7594 0 8.38278C0 13.0056 4.3096 16.7656 9.60821 16.7656C14.9075 16.7656 19.2164 13.0056 19.2164 8.38278C19.2164 3.7594 14.9075 0 9.60821 0ZM9.60821 1.11323C14.215 1.11323 17.9404 4.36352 17.9404 8.38278C17.9404 12.4015 14.215 15.6479 9.60821 15.6479C5.00203 15.6479 1.28109 12.4015 1.28109 8.38278C1.28109 4.36352 5.00203 1.11323 9.60821 1.11323ZM9.61077 2.23317C8.22975 2.23317 6.87948 2.58916 5.72905 3.25364C5.6589 3.29419 5.59859 3.34639 5.55156 3.40728C5.50453 3.46816 5.4717 3.53653 5.45496 3.60848C5.43822 3.68043 5.43788 3.75456 5.45397 3.82662C5.47006 3.89869 5.50226 3.96728 5.54874 4.02849C5.59521 4.08969 5.65505 4.14231 5.72484 4.18335C5.79462 4.22438 5.87298 4.25301 5.95545 4.26762C6.03792 4.28223 6.12288 4.28252 6.20548 4.26848C6.28808 4.25445 6.3667 4.22635 6.43686 4.1858C7.37806 3.6419 8.48183 3.35154 9.61077 3.35088C10.3682 3.3497 11.1185 3.47899 11.8185 3.73134C12.5185 3.98369 13.1546 4.35412 13.6902 4.82141C14.2258 5.28869 14.6504 5.84362 14.9396 6.45438C15.2288 7.06514 15.377 7.71971 15.3757 8.38055C15.3757 11.1648 12.802 13.4102 9.61077 13.4102C8.85333 13.4114 8.10307 13.2821 7.40303 13.0298C6.70299 12.7774 6.06693 12.407 5.53134 11.9397C4.99575 11.4724 4.57116 10.9175 4.28192 10.3067C3.99269 9.69595 3.84449 9.04139 3.84584 8.38055C3.84584 7.39585 4.18021 6.43351 4.8041 5.61144C4.89805 5.48782 4.93186 5.33671 4.89811 5.19135C4.86435 5.04598 4.76579 4.91827 4.62411 4.83631C4.48243 4.75434 4.30923 4.72484 4.14261 4.75429C3.976 4.78374 3.82962 4.86973 3.73567 4.99335C2.97294 5.99774 2.56573 7.17571 2.56475 8.38055C2.56347 11.7694 5.72713 14.5279 9.61077 14.5279C13.4944 14.5279 16.6568 11.7689 16.6568 8.38055C16.6568 4.99223 13.495 2.23206 9.61077 2.23317ZM9.59924 4.45852C9.51501 4.45983 9.4319 4.47562 9.35467 4.50499C9.27744 4.53437 9.20762 4.57674 9.14919 4.62969C9.09076 4.68264 9.04488 4.74512 9.01417 4.81357C8.98346 4.88201 8.96852 4.95507 8.97022 5.02855V8.38278C8.97161 8.52999 9.03952 8.67076 9.15918 8.77454L11.7227 11.0099C11.7801 11.0685 11.8507 11.116 11.9302 11.1495C12.0097 11.1831 12.0962 11.2019 12.1845 11.2049C12.2727 11.2078 12.3606 11.1949 12.4428 11.1668C12.525 11.1387 12.5997 11.0961 12.6621 11.0416C12.7245 10.9871 12.7734 10.922 12.8056 10.8503C12.8378 10.7786 12.8527 10.7018 12.8492 10.6249C12.8458 10.5479 12.8242 10.4724 12.7858 10.4031C12.7473 10.3337 12.6929 10.2721 12.6258 10.222L10.2513 8.14695V5.02855C10.2531 4.95337 10.2374 4.87866 10.2052 4.80889C10.1731 4.73912 10.1252 4.67573 10.0643 4.6225C10.0034 4.56928 9.93083 4.52732 9.85092 4.49915C9.77101 4.47097 9.68541 4.45715 9.59924 4.45852Z" fill="white"/>
</svg>
