<svg width="80" height="70" viewBox="0 0 80 70" fill="none" xmlns="http://www.w3.org/2000/svg">
<path d="M64.1904 62.7073H64.3556C65.0274 62.7073 65.572 62.0879 65.572 61.3239V30.2952C65.572 29.5312 65.0274 28.9119 64.3556 28.9119H64.1904C63.5186 28.9119 62.974 29.5312 62.974 30.2952V61.3239C62.974 62.0879 63.5186 62.7073 64.1904 62.7073ZM71.8912 62.7073H72.0564C72.7282 62.7073 73.2728 62.0879 73.2728 61.3239V30.2952C73.2728 29.5312 72.7282 28.9119 72.0564 28.9119H71.8912C71.2194 28.9119 70.6748 29.5312 70.6748 30.2952V61.3239C70.6747 62.0879 71.2194 62.7073 71.8912 62.7073ZM42.9299 41.8344H34.16V31.8608C34.16 31.2222 33.7048 30.7045 33.1432 30.7045H24.9158C24.3542 30.7045 23.899 31.2222 23.899 31.8608V41.8344H15.1291C14.5675 41.8344 14.1123 42.3521 14.1123 42.9908V52.3474C14.1123 52.9861 14.5675 53.5038 15.1291 53.5038H23.899V63.4773C23.899 64.116 24.3542 64.6337 24.9158 64.6337H33.1432C33.7048 64.6337 34.16 64.116 34.16 63.4773V53.5038H42.9299C43.4915 53.5038 43.9467 52.9861 43.9467 52.3474V42.9908C43.9467 42.3521 43.4914 41.8344 42.9299 41.8344Z" fill="#0099CC"/>
<path d="M74.2077 11.806H55.1625H52.6531V4.44078C52.6531 1.99214 50.9014 0 48.7483 0H43.5751H27.0883C24.1872 0 21.827 2.68414 21.827 5.9834V11.806H5.79227C4.24508 11.806 2.79051 12.4912 1.69648 13.7353C0.602488 14.9795 0 16.6337 0 18.3932V23.4623C0 24.6456 0.781903 25.6245 1.78888 25.7675V63.436C1.78888 65.1893 2.38924 66.8377 3.4794 68.0775C4.56955 69.3172 6.01896 70 7.56066 70H26.7153H52.9805H72.1351C73.6768 70 75.1262 69.3172 76.2164 68.0775C77.3065 66.8377 77.9069 65.1893 77.9069 63.436V25.7862H77.9566C79.0833 25.7862 80 24.7437 80 23.4623V18.3932C80 16.6337 79.3975 14.9795 78.3035 13.7353C77.2095 12.4912 75.7549 11.806 74.2077 11.806ZM22.4993 5.9834C22.4993 3.10571 24.5579 0.764539 27.0883 0.764539H43.5711C44.7759 0.788423 45.7561 1.23959 46.4846 2.10551C47.4031 3.1973 47.8615 4.91082 47.8103 7.06079C47.8102 7.06425 47.8101 7.0677 47.8101 7.07116V11.806H45.7295V6.80381C45.7295 4.61677 44.165 2.83751 42.2418 2.83751H32.3212H28.1505C26.2273 2.83751 24.6627 4.61687 24.6627 6.804V11.806H23.1303H22.4993L22.4993 5.9834ZM45.0573 6.80381V11.806H29.5057V6.804C29.5057 6.72635 29.5083 6.64938 29.513 6.57308C29.5134 6.56806 29.5136 6.56301 29.5139 6.558C29.6247 4.90702 30.8414 3.60214 32.3212 3.60205H42.2419C43.7943 3.60205 45.0573 5.03834 45.0573 6.80381ZM26.7153 69.2355H7.56069C4.7488 69.2355 2.46115 66.6339 2.46115 63.436V25.7862H7.82005V28.6256C7.82005 29.7905 8.65339 30.7382 9.67774 30.7382H13.8204C14.8448 30.7382 15.6782 29.7905 15.6782 28.6256V25.7862H19.3814H43.5278V28.6256C43.5278 29.7905 44.3611 30.7382 45.3855 30.7382H49.5282C50.5525 30.7382 51.3859 29.7905 51.3859 28.6256V25.7862H58.0801V63.436C58.0801 66.6339 55.7924 69.2355 52.9805 69.2355H26.7153V69.2355ZM77.2346 63.436C77.2346 66.6339 74.947 69.2355 72.1351 69.2355H55.6896C56.1886 68.9332 56.6508 68.545 57.0618 68.0775C58.152 66.8377 58.7523 65.1894 58.7523 63.4361V25.7862H58.9113H77.2346V63.436H77.2346Z" fill="#0099CC"/>
</svg>
