<svg width="19" height="22" viewBox="0 0 19 20" fill="none" xmlns="http://www.w3.org/2000/svg">
<path fill-rule="evenodd" clip-rule="evenodd" d="M9.37451 0.627441C4.20478 0.627441 0 4.8316 0 10.002C0 15.1717 4.20478 19.3765 9.37451 19.3765C14.5449 19.3765 18.749 15.1717 18.749 10.002C18.749 4.8316 14.5449 0.627441 9.37451 0.627441ZM9.37451 1.87238C13.8693 1.87238 17.5041 5.50719 17.5041 10.002C17.5041 14.4961 13.8693 18.1265 9.37451 18.1265C4.88037 18.1265 1.24994 14.4961 1.24994 10.002C1.24994 5.50719 4.88037 1.87238 9.37451 1.87238ZM9.37701 3.12481C8.02958 3.12481 6.71215 3.52292 5.58971 4.266C5.52126 4.31135 5.46242 4.36973 5.41653 4.43782C5.37065 4.5059 5.33862 4.58236 5.32228 4.66283C5.30595 4.74329 5.30562 4.82618 5.32132 4.90677C5.33702 4.98736 5.36844 5.06407 5.41378 5.13252C5.45913 5.20097 5.51751 5.25981 5.5856 5.3057C5.65368 5.35158 5.73014 5.38361 5.8106 5.39995C5.89107 5.41628 5.97396 5.41661 6.05455 5.40091C6.13514 5.38521 6.21185 5.35379 6.2803 5.30845C7.19861 4.7002 8.27553 4.37549 9.37701 4.37475C10.116 4.37343 10.848 4.51802 11.5311 4.80022C12.2141 5.08242 12.8347 5.49668 13.3572 6.01925C13.8798 6.54181 14.294 7.1624 14.5762 7.84541C14.8584 8.52843 15.003 9.26044 15.0017 9.99945C15.0017 13.113 12.4906 15.6242 9.37701 15.6242C8.638 15.6255 7.90599 15.4809 7.22297 15.1987C6.53996 14.9165 5.91937 14.5022 5.39681 13.9797C4.87424 13.4571 4.45998 12.8365 4.17778 12.1535C3.89558 11.4705 3.75099 10.7385 3.75231 9.99945C3.75231 8.89826 4.07854 7.82207 4.68726 6.90274C4.77892 6.7645 4.81191 6.59552 4.77898 6.43295C4.74604 6.27039 4.64988 6.12757 4.51164 6.03591C4.3734 5.94425 4.20442 5.91126 4.04185 5.94419C3.87929 5.97713 3.73647 6.07329 3.64481 6.21153C2.90064 7.33475 2.50333 8.65208 2.50237 9.99945C2.50112 13.7893 5.58783 16.8741 9.37701 16.8741C13.1662 16.8741 16.2517 13.7886 16.2517 9.99945C16.2517 6.21028 13.1668 3.12356 9.37701 3.12481ZM9.36576 5.61343C9.28358 5.6149 9.20249 5.63256 9.12714 5.6654C9.0518 5.69825 8.98367 5.74563 8.92666 5.80485C8.86965 5.86406 8.82488 5.93394 8.79492 6.01048C8.76496 6.08702 8.75039 6.16872 8.75204 6.2509V10.002C8.7534 10.1666 8.81965 10.324 8.93641 10.4401L11.4375 12.9399C11.4936 13.0053 11.5625 13.0585 11.64 13.096C11.7176 13.1335 11.802 13.1546 11.8881 13.1579C11.9742 13.1612 12.06 13.1467 12.1402 13.1153C12.2204 13.0839 12.2932 13.0362 12.3541 12.9753C12.415 12.9144 12.4627 12.8416 12.4941 12.7614C12.5255 12.6812 12.54 12.5954 12.5367 12.5093C12.5334 12.4232 12.5123 12.3388 12.4748 12.2612C12.4373 12.1837 12.3842 12.1147 12.3187 12.0587L10.002 9.73822V6.2509C10.0037 6.16683 9.98839 6.08328 9.95703 6.00525C9.92567 5.92723 9.87889 5.85633 9.81949 5.79681C9.76009 5.73729 9.68929 5.69037 9.61132 5.65886C9.53336 5.62735 9.44984 5.6119 9.36576 5.61343Z" fill="#0099CC"/>
</svg>
