<svg width="50" height="50" viewBox="0 0 50 50" fill="none" xmlns="http://www.w3.org/2000/svg">
<path d="M25.0002 47.9167C20.4677 47.9167 16.037 46.5727 12.2684 44.0546C8.49973 41.5365 5.56244 37.9574 3.82793 33.7699C2.09343 29.5824 1.6396 24.9746 2.52384 20.5292C3.40809 16.0838 5.59069 12.0005 8.79564 8.79552C12.0006 5.59057 16.084 3.40797 20.5294 2.52372C24.9748 1.63948 29.5825 2.0933 33.77 3.82781C37.9575 5.56232 41.5366 8.49961 44.0547 12.2682C46.5728 16.0369 47.9168 20.4676 47.9168 25.0001C47.91 31.0758 45.4933 36.9008 41.1971 41.197C36.9009 45.4932 31.0759 47.9098 25.0002 47.9167ZM25.0002 4.16672C20.8797 4.16672 16.8518 5.38857 13.4258 7.67777C9.99977 9.96696 7.32951 13.2207 5.75268 17.0275C4.17586 20.8343 3.76329 25.0232 4.56715 29.0644C5.37101 33.1057 7.35519 36.8179 10.2688 39.7314C13.1824 42.645 16.8945 44.6292 20.9358 45.4331C24.9771 46.2369 29.166 45.8244 32.9727 44.2475C36.7795 42.6707 40.0333 40.0005 42.3225 36.5744C44.6117 33.1484 45.8335 29.1205 45.8335 25.0001C45.8272 19.4767 43.6302 14.1813 39.7246 10.2757C35.8189 6.37003 30.5236 4.17306 25.0002 4.16672Z" fill="#0099CC"/>
<path d="M24.7396 20.0521C23.761 20.0521 22.8044 19.7619 21.9907 19.2182C21.177 18.6745 20.5428 17.9018 20.1683 16.9977C19.7938 16.0935 19.6958 15.0987 19.8868 14.1389C20.0777 13.1791 20.5489 12.2974 21.2409 11.6055C21.9329 10.9135 22.8145 10.4422 23.7743 10.2513C24.7341 10.0604 25.729 10.1584 26.6331 10.5329C27.5372 10.9074 28.31 11.5416 28.8536 12.3553C29.3973 13.1689 29.6875 14.1256 29.6875 15.1042C29.6859 16.4159 29.164 17.6735 28.2365 18.601C27.3089 19.5286 26.0514 20.0504 24.7396 20.0521ZM24.7396 12.2396C24.173 12.2396 23.6192 12.4076 23.1481 12.7224C22.677 13.0371 22.3099 13.4845 22.0931 14.0079C21.8763 14.5314 21.8195 15.1073 21.9301 15.663C22.0406 16.2187 22.3134 16.7291 22.714 17.1297C23.1147 17.5304 23.6251 17.8032 24.1807 17.9137C24.7364 18.0242 25.3124 17.9675 25.8358 17.7507C26.3593 17.5339 26.8066 17.1667 27.1214 16.6956C27.4362 16.2246 27.6042 15.6707 27.6042 15.1042C27.6036 14.3446 27.3017 13.6163 26.7646 13.0792C26.2275 12.5421 25.4992 12.2401 24.7396 12.2396ZM30.2084 39.5833H19.7917C19.5154 39.5833 19.2505 39.4736 19.0551 39.2782C18.8598 39.0829 18.75 38.8179 18.75 38.5417V37.5C18.749 37.3055 18.8023 37.1147 18.9042 36.949C19.006 36.7833 19.1521 36.6494 19.3261 36.5625C19.7795 36.3382 20.161 35.9913 20.4274 35.5612C20.6938 35.1312 20.8344 34.6351 20.8333 34.1292V27.3292C20.8344 26.8233 20.6938 26.3272 20.4274 25.8971C20.161 25.467 19.7795 25.1202 19.3261 24.8958C19.1521 24.8089 19.006 24.675 18.9042 24.5094C18.8023 24.3437 18.749 24.1528 18.75 23.9583V22.9167C18.75 22.6404 18.8598 22.3754 19.0551 22.1801C19.2505 21.9847 19.5154 21.875 19.7917 21.875H28.125C28.4013 21.875 28.6662 21.9847 28.8616 22.1801C29.0569 22.3754 29.1667 22.6404 29.1667 22.9167V34.2354C29.1677 34.7227 29.3075 35.1996 29.5696 35.6104C29.8318 36.0212 30.2054 36.3489 30.6469 36.5552C30.827 36.6388 30.9795 36.7722 31.0864 36.9396C31.1932 37.107 31.25 37.3014 31.25 37.5V38.5417C31.25 38.8179 31.1403 39.0829 30.9449 39.2782C30.7496 39.4736 30.4846 39.5833 30.2084 39.5833ZM21.5427 37.5H28.4281C27.5685 36.6307 27.0854 35.458 27.0834 34.2354V23.9583H21.5427C22.4263 24.8575 22.9199 26.0686 22.9167 27.3292V34.1292C22.9199 35.3898 22.4263 36.6009 21.5427 37.5Z" fill="#0099CC"/>
</svg>
