<svg xmlns="http://www.w3.org/2000/svg" xmlns:xlink="http://www.w3.org/1999/xlink"  width="163" height="38"><defs><path id="a" d="M0 37.524h163.348V0H0z"/></defs><g fill="none" fill-rule="evenodd"><path fill="#93CFA9" d="M23.139 20.364v-6.612h-12.33V.669H0v36.17H10.81v-15.09h12.345v15.09h10.751c-2.12-.521-4.01-1.335-5.627-2.44-4.504-3.125-5.14-8.686-5.14-14.035"/><path fill="#12C2F2" d="M57.103 2.548V.668h-10.12V19.03c.049-7.438 3.912-13.324 10.12-16.482M46.982 19.323v.882c0 5.349-.847 8.421-6.835 8.421-5.126 0-6.113-2.969-6.237-7.287v15.5h-.005c1.844.453 3.862.685 6.031.685 5.545 0 10.106-1.604 13.179-4.602-3.834-3.197-6.093-7.907-6.133-13.599"/><path fill="#00B7B1" d="M33.91 21.34c-.01-.37-.015-.747-.015-1.135V.67H23.154v13.083h-.015v6.612c0 5.35.636 10.91 5.139 14.035 1.616 1.105 3.507 1.919 5.627 2.44h.005v-15.5z"/><path fill="#65C6C1" d="M69.19 8.475c2.971 0 5.843.582 8.411 1.642L80.17 2.33C77.601 1.218 73.471 0 68.485 0c-4.29 0-8.153.905-11.382 2.548v16.518c0-6.302 5.036-10.592 12.087-10.592"/><path fill="#65C2BF" d="M46.982 19.323c0-.05-.003-.099-.003-.15 0-.048.003-.095.003-.143v.293"/><path fill="#65C6C1" d="M70.349 28.76c-.806.212-1.613.264-2.57.264-6.093 0-10.676-4.078-10.676-9.957v.767c0 5.349-.583 9.692-3.868 12.976l-.12.112c3.494 2.916 8.292 4.576 13.91 4.576 3.273 0 6.8-.53 9.922-1.59.554-.21 1.41-.528 3.022-1.217V18.538h-9.62V28.76z"/><path fill="#00B3BE" d="M57.103 19.833V2.548c-6.208 3.158-10.071 9.043-10.12 16.482v.293c.039 5.692 2.298 10.401 6.131 13.6.04-.039.082-.075.12-.114 3.286-3.283 3.869-7.626 3.869-12.976"/><path fill="#58585B" d="M98.929 10.97V6.752h-4.803v4.218h-1.005V2.15h1.005v3.794h4.803V2.15h1.005v8.82zM104.404 5.456c-1.071 0-1.851.95-1.851 2.274 0 1.52.767 2.539 1.904 2.539 1.099 0 1.826-.926 1.826-2.315 0-1.52-.741-2.498-1.879-2.498zm1.456-1.35l-1.403-.952-1.455.952-.489-.568 1.944-1.56 1.892 1.56-.489.568zm-1.535 7.009c-1.627 0-2.725-1.296-2.725-3.227 0-.925.198-1.547.687-2.155.57-.714 1.363-1.11 2.223-1.11 1.627 0 2.739 1.309 2.739 3.2 0 1.89-1.244 3.292-2.924 3.292zM111.667 5.535c-.702 0-1.442.463-1.998 1.23v2.353c.556.78 1.204 1.19 1.865 1.19 1.045 0 1.773-1.031 1.773-2.486 0-1.348-.675-2.287-1.64-2.287m-.146 5.607c-.728 0-1.31-.291-1.852-.926v3.808h-.9V4.821h.9v.912c.793-.78 1.416-1.098 2.196-1.098 1.429 0 2.407 1.217 2.407 2.976 0 2.09-1.124 3.53-2.751 3.53"/><mask id="b" fill="#fff"><use xlink:href="#a"/></mask><path fill="#58585B" d="M115.807 10.97h.913V4.82h-.913v6.15zm.463-6.835a.593.593 0 0 1-.595-.595c0-.33.264-.595.595-.595.33 0 .596.264.596.595 0 .33-.265.595-.596.595zM120.238 11.101c-1.07 0-1.56-.462-1.56-1.454V5.52h-1.033V4.82h1.032V3.142h.9V4.82h1.574v.701h-1.575v3.65c0 .264.014.529.04.648.066.356.358.529.913.529.199 0 .357-.027.622-.08v.701c-.45.106-.635.132-.913.132M125.477 7.849c-1.734.462-2.514.992-2.514 1.692 0 .397.278.675.688.675.516 0 1.217-.41 1.826-1.085V7.85zm1.07 3.266c-.62 0-.978-.384-1.018-1.07-.237.224-.33.303-.476.41-.529.408-1.058.62-1.587.62-.834 0-1.442-.62-1.442-1.467 0-1.177 1.11-1.997 3.453-2.513V6.83c0-1.032-.212-1.362-.86-1.362-.25 0-.476.052-.767.184-.384.16-.662.318-1.191.728l-.476-.569c.74-.7 1.799-1.19 2.58-1.19.555 0 1.005.185 1.27.543.264.33.343.726.343 1.533v2.989c0 .092.013.185.027.278.053.251.199.37.45.37.092 0 .159-.014.33-.053l.119.621c-.278.146-.503.212-.754.212zM132.302 10.97v-.966c-.687.728-1.521 1.124-2.355 1.124-.555 0-1.005-.198-1.296-.542-.304-.37-.397-.806-.397-1.824V4.82h.9v3.664c0 .515.013.74.04.952.066.515.436.82.965.82.649 0 1.468-.476 2.143-1.244V4.82h.927v6.15h-.927zM139.035 10.97l-1.864-2.605-1.84 2.605h-1.07l2.367-3.266-2.143-2.884h1.176l1.602 2.209 1.601-2.209h1.045l-2.13 2.884 2.434 3.266zM96.335 23.03c-1.005 0-1.786-.278-2.394-.833-.61-.556-.86-1.309-.86-2.526v-5.646h1.005v5.646c0 .701.04.966.238 1.362.332.701 1.099 1.098 2.064 1.098.675 0 1.27-.172 1.747-.503.661-.463.86-1.005.86-2.235v-5.368h.926v5.554c0 2.155-1.35 3.451-3.586 3.451M105.978 22.845v-3.716c0-.463 0-.542-.013-.793-.04-.649-.383-.992-.952-.992-.688 0-1.429.41-2.17 1.217v4.284h-.913v-6.15h.913v.913c.304-.277.41-.357.609-.502.556-.397 1.124-.595 1.707-.595.582 0 1.018.185 1.336.555.304.37.396.767.396 1.706v4.073h-.913zM108.756 22.844h.913v-6.149h-.913v6.149zm.463-6.834a.593.593 0 0 1-.596-.595c0-.33.265-.594.596-.594.331 0 .596.264.596.594 0 .331-.265.595-.596.595zM114.047 22.845h-.833l-2.514-6.15h1.032l1.959 4.946 2.05-4.945h.939zM120.159 17.277c-.873 0-1.562.675-1.734 1.72l3.216-.066c-.026-1.019-.596-1.654-1.482-1.654m1.852 5.065c-.741.463-1.35.661-2.025.661-1.6 0-2.645-1.243-2.645-3.134 0-1.957 1.23-3.372 2.911-3.372 1.507 0 2.354 1.058 2.354 2.896v.291h-4.247v.199c0 1.414.648 2.26 1.746 2.26a2.77 2.77 0 0 0 1.231-.304c.291-.145.437-.238.926-.58l.437.567c-.239.238-.344.304-.688.516M127.17 17.529c-.212-.093-.305-.106-.437-.106-.555 0-1.256.701-1.693 1.68v3.742h-.9v-6.149h.9v1.19c.052-.106.105-.185.132-.225.159-.238.463-.568.728-.767.278-.211.595-.33.952-.33.199 0 .304.026.57.119l-.252.846zM131.31 22.554c-.49.317-1.033.45-1.904.45-.187 0-.345-.014-.503-.027-.371-.027-.556-.066-1.02-.212l.16-.714c.159.04.277.067.37.093.29.053.648.092.939.092 1.138 0 1.852-.41 1.852-1.058 0-.25-.12-.476-.357-.674-.198-.172-.371-.264-.966-.555-.754-.37-.992-.49-1.27-.7a1.322 1.322 0 0 1-.542-1.072c0-1.019.926-1.693 2.34-1.693.173 0 .36.014.57.04.33.026.503.053.927.145l-.186.727c-.568-.118-.926-.158-1.27-.158-.86 0-1.403.317-1.403.82 0 .357.24.542 1.02.925l.436.213c.66.316.953.488 1.23.753.29.277.463.7.463 1.11 0 .596-.317 1.138-.886 1.495M133.599 22.844h.913v-6.149h-.913v6.149zm.462-6.834a.592.592 0 0 1-.595-.595c0-.33.265-.594.595-.594.331 0 .596.264.596.594 0 .331-.265.595-.596.595zM138.03 22.977c-1.072 0-1.561-.463-1.561-1.455v-4.125h-1.033v-.701h1.033v-1.68h.9v1.68h1.573v.701h-1.574v3.65c0 .264.013.529.039.647.067.357.358.529.914.529.198 0 .357-.026.621-.08v.701c-.45.107-.635.133-.912.133M143.268 19.724c-1.734.463-2.514.992-2.514 1.693 0 .396.278.674.688.674.516 0 1.217-.41 1.826-1.084v-1.283zm1.07 3.266c-.62 0-.978-.383-1.018-1.071-.237.224-.33.304-.476.41-.529.41-1.058.622-1.587.622-.834 0-1.442-.622-1.442-1.468 0-1.178 1.111-1.997 3.453-2.513v-.264c0-1.031-.212-1.362-.86-1.362-.25 0-.476.053-.767.185-.384.158-.662.317-1.191.727l-.476-.569c.74-.7 1.799-1.19 2.58-1.19.556 0 1.005.186 1.27.543.264.33.343.727.343 1.534v2.988c0 .093.013.185.027.277.053.252.199.371.45.371.092 0 .159-.013.331-.053l.118.622c-.277.145-.503.211-.754.211zM146.072 22.844h.913v-6.149h-.913v6.149zm.462-6.834a.592.592 0 0 1-.594-.595c0-.33.264-.594.594-.594.332 0 .597.264.597.594 0 .331-.265.595-.597.595zM151.906 17.529c-.212-.093-.305-.106-.437-.106-.555 0-1.256.701-1.693 1.68v3.742h-.9v-6.149h.9v1.19c.052-.106.106-.185.132-.225a3.57 3.57 0 0 1 .728-.767 1.54 1.54 0 0 1 .952-.33c.199 0 .304.026.57.119l-.252.846zM155.57 17.277c-.873 0-1.562.675-1.734 1.72l3.215-.066c-.026-1.019-.595-1.654-1.481-1.654m1.852 5.065c-.741.463-1.35.661-2.025.661-1.6 0-2.645-1.243-2.645-3.134 0-1.957 1.23-3.372 2.91-3.372 1.508 0 2.355 1.058 2.355 2.896v.291h-4.247v.199c0 1.414.648 2.26 1.746 2.26.398 0 .847-.105 1.23-.304.292-.145.438-.238.927-.58l.436.567c-.238.238-.343.304-.687.516M162.462 22.554c-.49.317-1.033.45-1.905.45-.186 0-.344-.014-.503-.027-.37-.027-.556-.066-1.02-.212l.16-.714c.16.04.278.067.37.093.291.053.649.092.939.092 1.138 0 1.853-.41 1.853-1.058 0-.25-.12-.476-.357-.674-.199-.172-.371-.264-.967-.555-.753-.37-.992-.49-1.27-.7a1.324 1.324 0 0 1-.542-1.072c0-1.019.926-1.693 2.341-1.693.172 0 .358.014.57.04.33.026.503.053.926.145l-.186.727c-.568-.118-.926-.158-1.269-.158-.86 0-1.403.317-1.403.82 0 .357.239.542 1.02.925l.436.213c.66.316.952.488 1.23.753.29.277.462.7.462 1.11 0 .596-.316 1.138-.885 1.495M98.73 34.787c-.45.092-.926.158-1.376.158-2.765 0-4.63-1.825-4.63-4.523 0-2.723 2.077-4.68 4.948-4.68.833 0 1.507.131 2.46.489l-.278.78c-.211-.066-.37-.132-.476-.158a5.838 5.838 0 0 0-1.68-.24c-2.342 0-3.916 1.508-3.916 3.743 0 2.196 1.508 3.743 3.651 3.743.57 0 1.244-.12 1.826-.318V30.53h1.006v3.755c-.715.29-1.019.383-1.535.503M104.445 29.153c-.874 0-1.561.674-1.733 1.719l3.214-.066c-.026-1.018-.595-1.653-1.481-1.653m1.851 5.065c-.74.462-1.349.661-2.024.661-1.6 0-2.645-1.243-2.645-3.135 0-1.956 1.23-3.37 2.91-3.37 1.508 0 2.355 1.056 2.355 2.894v.292h-4.246v.198c0 1.415.648 2.261 1.746 2.261.397 0 .846-.105 1.23-.304.291-.145.437-.237.925-.582l.438.57c-.238.237-.344.303-.689.515M112.474 34.72v-3.716c0-.462 0-.542-.014-.793-.04-.648-.383-.992-.952-.992-.688 0-1.43.41-2.17 1.217v4.284h-.912v-6.15h.913v.914a5.76 5.76 0 0 1 .608-.503c.555-.397 1.124-.595 1.707-.595.582 0 1.018.185 1.336.556.304.37.396.767.396 1.706v4.072h-.912zM118.36 27.83l-2.117-1.309.675-.806 1.919 1.547-.477.569zm-.674 1.323c-.873 0-1.562.674-1.733 1.719l3.214-.066c-.026-1.018-.595-1.653-1.48-1.653zm1.852 5.065c-.74.463-1.349.661-2.025.661-1.6 0-2.645-1.243-2.645-3.134 0-1.957 1.23-3.372 2.91-3.372 1.509 0 2.355 1.058 2.355 2.896v.29h-4.246v.199c0 1.415.648 2.261 1.746 2.261.397 0 .847-.106 1.23-.304.291-.145.437-.238.926-.582l.437.569c-.239.238-.344.305-.688.516zM124.154 34.72h-.833l-2.513-6.15h1.031l1.958 4.947 2.05-4.946h.94zM130.266 29.153c-.874 0-1.561.674-1.734 1.719l3.215-.066c-.026-1.018-.595-1.653-1.481-1.653m1.851 5.065c-.74.462-1.349.661-2.023.661-1.601 0-2.647-1.243-2.647-3.135 0-1.956 1.23-3.37 2.911-3.37 1.508 0 2.355 1.056 2.355 2.894v.292h-4.246v.198c0 1.415.647 2.261 1.745 2.261.398 0 .847-.105 1.23-.304.292-.145.438-.237.927-.582l.437.57c-.238.237-.344.303-.689.515" mask="url(#b)"/></g></svg>