<svg width="19" height="19" viewBox="0 0 19 19" fill="none" xmlns="http://www.w3.org/2000/svg">
<path d="M9.49122 0C6.1198 0 3.37372 2.39783 3.37372 5.3417C3.37301 5.40534 3.38403 5.46867 3.40635 5.52926C3.46345 7.4036 4.39331 9.04291 5.4863 10.5623C6.61735 12.1328 7.9265 13.6047 8.76663 15.1075C8.82187 15.2065 8.90758 15.2902 9.01415 15.3491C9.12073 15.408 9.24398 15.4399 9.37011 15.4411C9.49624 15.4423 9.62027 15.4129 9.72833 15.3561C9.83639 15.2993 9.92421 15.2173 9.98198 15.1194C10.8656 13.6178 12.2414 12.1435 13.4295 10.5742C14.6163 9.00492 15.6305 7.30982 15.6305 5.3512C15.6317 5.27578 15.6165 5.20085 15.5856 5.13041C15.4537 2.28744 12.7797 0 9.49122 0ZM9.49122 1.18705C12.1285 1.18705 14.2493 3.04002 14.2493 5.3417C14.2486 5.38434 14.2531 5.42693 14.2629 5.46872C14.2221 7.02137 13.401 8.46007 12.2957 9.92014C11.3605 11.1558 10.3028 12.4319 9.39062 13.7579C8.52465 12.4379 7.52682 11.1642 6.63911 9.93201C5.56107 8.43277 4.75492 6.95846 4.75492 5.35001C4.75475 5.31538 4.75111 5.28082 4.74404 5.24674C4.76827 4.16186 5.27926 3.12864 6.16707 2.3694C7.05488 1.61017 8.24854 1.18559 9.49122 1.18705ZM9.49122 3.56351C8.37375 3.56351 7.45205 4.36833 7.45205 5.34408C7.45205 6.31983 8.37375 7.12464 9.49122 7.12464C10.61 7.12464 11.5304 6.31983 11.5304 5.34408C11.5304 4.36833 10.61 3.56351 9.49122 3.56351ZM9.49122 4.75055C9.87458 4.75055 10.1709 5.00933 10.1709 5.34408C10.1709 5.67882 9.87458 5.9376 9.49122 5.9376C9.4016 5.93872 9.31264 5.92413 9.22959 5.8947C9.14654 5.86527 9.0711 5.82159 9.00773 5.76625C8.94435 5.71092 8.89433 5.64504 8.86063 5.57253C8.82692 5.50001 8.81021 5.42233 8.8115 5.34408C8.8115 5.00933 9.10785 4.75055 9.49122 4.75055ZM15.0513 10.9552C14.893 10.9556 14.7397 11.0042 14.618 11.0927C14.4963 11.1812 14.4138 11.3041 14.3848 11.44C14.3558 11.576 14.382 11.7165 14.4591 11.8374C14.5361 11.9582 14.659 12.0518 14.8066 12.1019C16.162 12.5815 17.0334 13.2094 17.4086 13.7875C17.7852 14.3656 17.7757 14.8654 17.2849 15.4803C16.2993 16.71 13.1576 17.7997 9.57143 17.8128C5.98385 17.8247 2.79868 16.7646 1.75734 15.5313C1.23668 14.914 1.21085 14.4119 1.56023 13.8362C1.91096 13.2617 2.74974 12.6278 4.08335 12.1387C4.1695 12.111 4.24832 12.0683 4.31506 12.0133C4.3818 11.9582 4.43507 11.8919 4.47166 11.8184C4.50825 11.7448 4.52741 11.6656 4.52796 11.5854C4.52852 11.5053 4.51047 11.4258 4.4749 11.3519C4.43933 11.278 4.38699 11.2111 4.32102 11.1554C4.25505 11.0996 4.17682 11.0561 4.09107 11.0275C4.00531 10.9988 3.9138 10.9857 3.82205 10.9888C3.7303 10.9918 3.64022 11.0111 3.55725 11.0455C2.03467 11.6034 0.924006 12.3536 0.359837 13.2807C-0.204332 14.2066 -0.106452 15.3248 0.662993 16.2364C2.20188 18.0573 5.70789 19.0141 9.57958 18.9998C13.4499 18.9856 16.9233 18.0063 18.3996 16.1628C19.1378 15.2405 19.1881 14.1175 18.59 13.2011C17.9945 12.2847 16.8594 11.5464 15.3164 11.0015C15.2326 10.9704 15.1425 10.9542 15.0513 10.9541V10.9552Z" fill="#0099CC"/>
</svg>
