<svg width="20" height="22" viewBox="0 0 20 22" fill="none" xmlns="http://www.w3.org/2000/svg">
<path d="M4.48175 7.90604L4.45837 7.94557L4.43999 7.98765C4.14179 8.67048 4.26069 9.41062 4.47367 10.0226C4.69191 10.6496 5.0526 11.2689 5.41409 11.7985C5.77925 12.3336 6.16606 12.8071 6.45932 13.145C6.60659 13.3147 6.7318 13.452 6.82102 13.5476C6.86566 13.5955 6.90139 13.633 6.92647 13.6591L6.95592 13.6896L6.95753 13.6913L6.95914 13.693L6.98815 13.7243C7.01297 13.7509 7.04865 13.7887 7.0941 13.8359C7.18491 13.9303 7.3152 14.0625 7.47632 14.2176C7.79685 14.5261 8.24731 14.9328 8.75737 15.3128C9.26062 15.6877 9.85774 16.0638 10.4699 16.2795C11.0706 16.4911 11.8129 16.5901 12.488 16.2112C12.8555 16.0144 13.1591 15.7113 13.4013 15.4424C13.5279 15.3019 13.652 15.154 13.7679 15.0157L13.7789 15.0026C13.8935 14.8658 14.0008 14.7377 14.1097 14.6152C14.5989 14.0649 14.9004 13.8953 15.1806 13.9222C15.3664 13.9401 15.7861 14.0832 16.3563 14.3895C16.8985 14.6808 17.4929 15.074 18.0065 15.5021C18.5312 15.9395 18.919 16.3699 19.1084 16.7243C19.2878 17.0602 19.2122 17.1458 19.1863 17.1752C19.1861 17.1754 19.1859 17.1756 19.1858 17.1758L19.1857 17.1758C17.8237 18.7461 16.933 19.5118 16.1615 19.9054C15.4202 20.2836 14.7261 20.3519 13.6273 20.3519H13.6145L13.6018 20.3523C11.9403 20.4089 10.0589 19.3981 8.43855 18.175C6.93109 17.037 5.78927 15.8243 5.4658 15.4807C5.449 15.4629 5.4344 15.4474 5.42208 15.4344L5.42212 15.4343L5.41571 15.4277L5.41567 15.4277L5.41552 15.4275L5.41545 15.4274L5.41358 15.4255L5.4046 15.4161L5.36639 15.3759C5.33223 15.3398 5.28113 15.2852 5.21556 15.2136C5.08437 15.0705 4.89549 14.86 4.66851 14.594C4.21379 14.0611 3.60993 13.3104 3.01145 12.4377C1.78485 10.6491 0.697399 8.51283 0.751956 6.72545L0.752305 6.71402V6.70257C0.752305 5.53525 0.817231 4.77982 1.1845 3.97581C1.56194 3.14955 2.29073 2.2054 3.77277 0.769507C3.79985 0.743635 3.80168 0.74881 3.80206 0.749877C3.8021 0.749976 3.80212 0.750039 3.80215 0.75004C3.83045 0.750887 3.92148 0.766445 4.08388 0.867056C4.41504 1.07221 4.82359 1.4926 5.24201 2.06113C5.65003 2.61555 6.02542 3.25293 6.30429 3.82684C6.59551 4.42619 6.73655 4.86532 6.75535 5.05289C6.78446 5.40786 6.58906 5.75035 6.07565 6.24506C5.9539 6.36238 5.82453 6.47901 5.6864 6.60255C5.67087 6.61644 5.6552 6.63045 5.6394 6.64456C5.51799 6.75306 5.38947 6.8679 5.26639 6.98341C4.99356 7.23947 4.69434 7.54657 4.48175 7.90604Z" stroke="#0099CC" stroke-width="1.5"/>
</svg>
