<svg width="50" height="50" viewBox="0 0 50 50" fill="none" xmlns="http://www.w3.org/2000/svg">
<path d="M27.1853 24.686H36.4855V17.6953H42.5589V6.99071H36.4855V0H27.1853V6.99071H21.1118V17.6953H27.1853V24.686ZM24.0414 14.3232V10.3628H30.1148V3.37205H33.5558V10.3628H39.6292V14.3232H33.5558V21.314H30.1148V14.3232H24.0414ZM49.0448 29.0112C47.514 26.7035 44.7054 26.2149 42.6504 27.8981L42.5841 27.9524L34.7066 36.0589C34.7425 35.7825 34.7614 35.5 34.7614 35.2123C34.7614 32.061 32.5339 29.4973 29.7961 29.4973H21.5197C20.5142 28.1668 18.0425 25.5684 14.0738 25.5684C10.1365 25.5684 7.72135 28.0134 6.7285 29.2904H0V32.6625H7.42663L8.21285 32.6845L8.64301 31.916C8.7602 31.7234 10.5168 28.9404 14.0738 28.9404C17.6794 28.9404 19.516 31.9894 19.587 32.1099L20.0082 32.8693H29.796C30.9184 32.8693 31.8317 33.9205 31.8317 35.2124C31.8317 36.5022 30.9214 37.5516 29.8016 37.5551H21.5292V40.9272H34.3712L44.4063 30.6005C45.1611 30.0315 46.1635 30.2245 46.7159 31.0575C47.2727 31.8969 47.1606 33.0893 46.4606 33.772L46.4199 33.8117L35.0703 46.6279H0V50H36.2674L48.3992 36.3008C50.2503 34.4494 50.5369 31.2609 49.0448 29.0112Z" fill="#0099CC"/>
</svg>
