<svg width="50" height="50" viewBox="0 0 50 50" fill="none" xmlns="http://www.w3.org/2000/svg">
<path d="M29.1668 30H0.833496V33.3333H29.1668V30Z" fill="white"/>
<path d="M27.5 33.3333H2.5V49.1667H27.5V33.3333Z" fill="white"/>
<path d="M23.3332 37.5H6.6665V42.5H23.3332V37.5Z" fill="white"/>
<path d="M23.3335 43.3333H6.66683C6.44582 43.3333 6.23385 43.2455 6.07757 43.0892C5.92129 42.933 5.8335 42.721 5.8335 42.5V37.5C5.8335 37.279 5.92129 37.067 6.07757 36.9107C6.23385 36.7545 6.44582 36.6667 6.66683 36.6667H23.3335C23.5545 36.6667 23.7665 36.7545 23.9228 36.9107C24.079 37.067 24.1668 37.279 24.1668 37.5V42.5C24.1668 42.721 24.079 42.933 23.9228 43.0892C23.7665 43.2455 23.5545 43.3333 23.3335 43.3333ZM7.50016 41.6667H22.5002V38.3333H7.50016V41.6667Z" fill="#0099CC"/>
<path d="M3.3335 30V19.7771C3.33349 19.353 3.46292 18.939 3.70449 18.5904C3.94606 18.2418 4.28827 17.9752 4.68537 17.8263L10.0002 15.8333H15.0002L20.315 17.8263C20.7121 17.9752 21.0543 18.2418 21.2958 18.5904C21.5374 18.939 21.6668 19.353 21.6668 19.7771V30H3.3335Z" fill="white"/>
<path d="M15.8332 15.8333L12.4998 19.1667L9.1665 15.8333L10.8332 12.5H14.1665L15.8332 15.8333Z" fill="white"/>
<path d="M16.6668 4.99998H8.3335V10.4871C8.33349 10.8468 8.42665 11.2005 8.60391 11.5135C8.78116 11.8266 9.03646 12.0884 9.34495 12.2735L11.4283 13.5235C11.7521 13.7178 12.1226 13.8204 12.5002 13.8204C12.8778 13.8204 13.2483 13.7178 13.572 13.5235L15.6554 12.2735C15.9639 12.0884 16.2192 11.8266 16.3964 11.5135C16.5737 11.2005 16.6668 10.8468 16.6668 10.4871V4.99998Z" fill="white"/>
<path d="M6.6665 2.91666V0.833328H12.0832C12.6357 0.833328 13.1656 1.05282 13.5563 1.44352C13.947 1.83422 14.1665 2.36413 14.1665 2.91666V5H8.74984C8.1973 5 7.6674 4.7805 7.2767 4.3898C6.886 3.9991 6.6665 3.4692 6.6665 2.91666Z" fill="white"/>
<path d="M17.4998 4.99999H14.1665V1.66666L15.9218 2.10551C16.3726 2.2182 16.7727 2.47833 17.0586 2.84455C17.3445 3.21076 17.4998 3.66204 17.4998 4.12666V4.99999Z" fill="white"/>
<path d="M9.16667 15.8333L12.5 19.1666L7.5 20L9.16667 15.8333Z" fill="white"/>
<path d="M15.8333 15.8333L12.5 19.1666L17.5 20L15.8333 15.8333Z" fill="white"/>
<path d="M49.1668 38.3333H34.1668L33.3335 42.5H46.0418C46.8706 42.5 47.6655 42.1708 48.2515 41.5847C48.8376 40.9987 49.1668 40.2038 49.1668 39.375V38.3333Z" fill="white"/>
<path d="M46.6665 33.3333H35.8807C34.9247 33.3333 33.9977 33.6621 33.2553 34.2645C32.513 34.8668 32.0003 35.7062 31.8034 36.6417L29.1665 49.1667H33.3332L36.6665 38.3333H44.5832C44.8568 38.3333 45.1277 38.2795 45.3804 38.1748C45.6332 38.0701 45.8629 37.9166 46.0563 37.7232C46.2498 37.5297 46.4032 37.3 46.5079 37.0473C46.6126 36.7945 46.6665 36.5236 46.6665 36.25V33.3333Z" fill="white"/>
<path d="M46.6665 33.3333H36.6665V23.7037C36.6665 22.9086 36.8182 22.1208 37.1135 21.3825L38.3332 18.3333H44.5832C45.1357 18.3333 45.6656 18.5528 46.0563 18.9435C46.447 19.3342 46.6665 19.8641 46.6665 20.4167V33.3333Z" fill="white"/>
<path d="M35 4.16667H41.875C42.7038 4.16667 43.4987 4.49591 44.0847 5.08196C44.6708 5.66801 45 6.46287 45 7.29167V9.16667H37.0833C36.5308 9.16667 36.0009 8.94718 35.6102 8.55648C35.2195 8.16578 35 7.63587 35 7.08334V4.16667ZM33.3333 49.1667H25C25 48.2826 25.3512 47.4348 25.9763 46.8096C26.6014 46.1845 27.4493 45.8333 28.3333 45.8333H34.1667L33.3333 49.1667Z" fill="white"/>
<path d="M36.6667 9.16667V11.6667L35.4523 14.0955C35.4047 14.1908 35.3822 14.2967 35.387 14.4031C35.3917 14.5095 35.4237 14.613 35.4797 14.7036C35.5357 14.7942 35.6139 14.869 35.7069 14.9209C35.8 14.9728 35.9047 15 36.0113 15H37.5V16.25C37.5 16.5236 37.5539 16.7945 37.6586 17.0473C37.7633 17.3 37.9167 17.5297 38.1102 17.7231C38.3036 17.9166 38.5333 18.0701 38.7861 18.1748C39.0388 18.2795 39.3097 18.3333 39.5833 18.3333H42.9167C43.1903 18.3333 43.4612 18.2795 43.7139 18.1748C43.9667 18.0701 44.1964 17.9166 44.3898 17.7231C44.5833 17.5297 44.7367 17.3 44.8414 17.0473C44.9461 16.7945 45 16.5236 45 16.25V9.16667H36.6667ZM35.625 29.1667H38.3333V33.3333H32.5V32.2917C32.5 31.4629 32.8292 30.668 33.4153 30.082C34.0013 29.4959 34.7962 29.1667 35.625 29.1667Z" fill="white"/>
<path d="M49.1665 37.5H47.2186C47.4044 37.1095 47.5005 36.6824 47.4998 36.25V24.1667H45.8332V32.5H39.1665V30H42.4998C42.7209 30 42.9328 29.9122 43.0891 29.7559C43.2454 29.5997 43.3332 29.3877 43.3332 29.1667V22.5H41.6665V28.3333H37.4998V23.7037C37.4992 23.0145 37.6307 22.3316 37.8872 21.692L38.8977 19.1667H44.5832C44.9146 19.167 45.2323 19.2988 45.4667 19.5332C45.701 19.7675 45.8328 20.0853 45.8332 20.4167V22.5H47.4998V20.4167C47.4991 19.8 47.3033 19.1994 46.9404 18.7008C46.5775 18.2022 46.0662 17.8312 45.4796 17.6409C45.7122 17.2143 45.8338 16.736 45.8332 16.25V7.29168C45.832 6.24223 45.4146 5.2361 44.6725 4.49402C43.9304 3.75195 42.9243 3.33453 41.8748 3.33334H34.9998C34.7788 3.33334 34.5669 3.42114 34.4106 3.57742C34.2543 3.7337 34.1665 3.94566 34.1665 4.16668V7.08334C34.1669 7.63522 34.3237 8.17569 34.6187 8.64212C34.9136 9.10855 35.3347 9.48185 35.8332 9.71876V11.4703L34.7068 13.7231C34.5957 13.9455 34.5433 14.1925 34.5545 14.4408C34.5657 14.689 34.6402 14.9303 34.7708 15.1417C34.9015 15.3532 35.084 15.5277 35.3011 15.6487C35.5182 15.7697 35.7626 15.8333 36.0111 15.8333H36.6665V16.25C36.6659 16.9964 36.9525 17.7143 37.4669 18.2551L36.3397 21.0729C36.0044 21.9094 35.8324 22.8024 35.8332 23.7037V28.3333H35.6248C34.5754 28.3345 33.5693 28.7519 32.8272 29.494C32.0851 30.2361 31.6677 31.2422 31.6665 32.2917V33.3333C31.6664 33.5034 31.7184 33.6693 31.8154 33.809C31.9124 33.9486 32.0498 34.0553 32.2091 34.1146C31.5962 34.7747 31.1741 35.5888 30.9879 36.4701L29.1921 45H28.3332C27.2285 45.0013 26.1694 45.4406 25.3883 46.2218C24.6071 47.0029 24.1677 48.062 24.1665 49.1667C24.1665 49.3877 24.2543 49.5997 24.4106 49.7559C24.5669 49.9122 24.7788 50 24.9998 50H33.3332C33.519 50 33.6995 49.9379 33.846 49.8235C33.9925 49.7091 34.0965 49.5491 34.1416 49.3688L34.9749 46.0354C34.9759 46.0316 34.9767 46.0276 34.9776 46.0238L35.1553 46.0784L35.9998 43.3333H40.8332V46.6667H38.7498C37.9766 46.6676 37.2352 46.9751 36.6884 47.5219C36.1416 48.0687 35.8341 48.8101 35.8332 49.5833V50H37.4998V49.5833C37.5002 49.2519 37.632 48.9342 37.8664 48.6999C38.1007 48.4655 38.4184 48.3337 38.7498 48.3333H44.5832C44.9146 48.3337 45.2323 48.4655 45.4667 48.6999C45.701 48.9342 45.8328 49.2519 45.8332 49.5833V50H47.4998V49.5833C47.499 48.8101 47.1914 48.0687 46.6446 47.5219C46.0978 46.9751 45.3564 46.6676 44.5832 46.6667H42.4998V43.3333H46.0415C47.091 43.3322 48.0971 42.9147 48.8392 42.1727C49.5812 41.4306 49.9987 40.4245 49.9998 39.375V38.3333C49.9998 38.1123 49.912 37.9004 49.7558 37.7441C49.5995 37.5878 49.3875 37.5 49.1665 37.5ZM35.8332 7.08334V5.00001H41.8748C42.4824 5.0007 43.0649 5.24236 43.4945 5.67199C43.9242 6.10161 44.1658 6.6841 44.1665 7.29168V8.33334H37.0832C36.7518 8.33299 36.434 8.20117 36.1997 7.96683C35.9653 7.73249 35.8335 7.41475 35.8332 7.08334ZM36.3482 14.1667L37.4118 12.0394C37.4697 11.9237 37.4999 11.7961 37.4998 11.6667V10H44.1665V16.25C44.1661 16.5814 44.0343 16.8992 43.8 17.1335C43.5656 17.3678 43.2479 17.4997 42.9165 17.5H39.5832C39.2518 17.4997 38.934 17.3678 38.6997 17.1335C38.4653 16.8992 38.3335 16.5814 38.3332 16.25V15C38.3332 14.779 38.2454 14.567 38.0891 14.4108C37.9328 14.2545 37.7209 14.1667 37.4998 14.1667H36.3482ZM33.3332 32.2917C33.3339 31.6841 33.5755 31.1016 34.0051 30.672C34.4348 30.2424 35.0173 30.0007 35.6248 30H37.4998V32.5H33.3332V32.2917ZM32.6825 48.3333H25.976C26.1489 47.8463 26.4682 47.4246 26.8903 47.1262C27.3123 46.8278 27.8163 46.6673 28.3332 46.6667H33.0992L32.6825 48.3333ZM33.7433 45H30.8957L32.6192 36.8133C32.7793 36.0663 33.1901 35.3965 33.7834 34.9151C34.3766 34.4337 35.1167 34.1696 35.8807 34.1667H45.8332V36.25C45.8328 36.5814 45.701 36.8992 45.4667 37.1335C45.2323 37.3678 44.9146 37.4997 44.5832 37.5H36.6665C36.4883 37.5 36.3148 37.5571 36.1714 37.663C36.0281 37.7689 35.9225 37.9179 35.87 38.0882L33.7433 45ZM48.3332 39.375C48.3325 39.9826 48.0908 40.5651 47.6612 40.9947C47.2316 41.4243 46.6491 41.666 46.0415 41.6667H36.5128L37.2819 39.1667H48.3332V39.375Z" fill="#0099CC"/>
<path d="M18.3335 30H12.5002V25.8333H15.2085C16.0373 25.8333 16.8322 26.1626 17.4182 26.7486C18.0043 27.3347 18.3335 28.1295 18.3335 28.9583V30Z" fill="white"/>
<path d="M20.8335 5.41669V10L18.3335 13.3334H29.5835C30.136 13.3334 30.6659 13.1139 31.0566 12.7232C31.4473 12.3325 31.6668 11.8026 31.6668 11.25V5.41669C31.6668 4.86416 31.4473 4.33425 31.0566 3.94355C30.6659 3.55285 30.136 3.33336 29.5835 3.33336H22.9168C22.3643 3.33336 21.8344 3.55285 21.4437 3.94355C21.053 4.33425 20.8335 4.86416 20.8335 5.41669Z" fill="white"/>
<path d="M29.5833 14.1667H18.3333C18.1786 14.1667 18.0269 14.1236 17.8952 14.0422C17.7636 13.9609 17.6572 13.8444 17.588 13.706C17.5188 13.5676 17.4895 13.4126 17.5034 13.2585C17.5173 13.1044 17.5738 12.9572 17.6667 12.8333L20 9.7222V5.41668C20.0009 4.6434 20.3085 3.90205 20.8552 3.35526C21.402 2.80847 22.1434 2.5009 22.9167 2.50002H29.5833C30.3566 2.5009 31.098 2.80847 31.6448 3.35526C32.1915 3.90205 32.4991 4.6434 32.5 5.41668V11.25C32.4991 12.0233 32.1915 12.7646 31.6448 13.3114C31.098 13.8582 30.3566 14.1658 29.5833 14.1667ZM20 12.5H29.5833C29.9147 12.4997 30.2325 12.3678 30.4668 12.1335C30.7012 11.8992 30.833 11.5814 30.8333 11.25V5.41668C30.833 5.08527 30.7012 4.76754 30.4668 4.53319C30.2325 4.29885 29.9147 4.16704 29.5833 4.16668H22.9167C22.5853 4.16704 22.2675 4.29885 22.0332 4.53319C21.7988 4.76754 21.667 5.08527 21.6667 5.41668V10C21.6667 10.1803 21.6082 10.3558 21.5 10.5L20 12.5Z" fill="#0099CC"/>
<path d="M29.1668 5.83334H23.3335V7.50001H29.1668V5.83334Z" fill="#0099CC"/>
<path d="M29.1668 9.16669H23.3335V10.8334H29.1668V9.16669Z" fill="#0099CC"/>
<path d="M29.1667 29.1667H22.5V19.7771C22.4981 19.1838 22.3161 18.6051 21.9782 18.1174C21.6403 17.6298 21.1622 17.2562 20.6074 17.0461L16.6178 15.5499L16.6074 15.5239C16.6045 15.5167 16.6015 15.5096 16.5984 15.5024L16.5963 15.4974C16.5933 15.4909 16.5904 15.4845 16.5874 15.478L16.586 15.4751L16.5792 15.4611L15.5141 13.3309L16.0845 12.9886C16.5154 12.7283 16.872 12.3614 17.1199 11.9233C17.3678 11.4851 17.4987 10.9905 17.5 10.4871V5.83333C17.721 5.83333 17.933 5.74554 18.0893 5.58926C18.2455 5.43298 18.3333 5.22101 18.3333 5V4.12667C18.3341 3.47602 18.1169 2.84385 17.7165 2.33101C17.3161 1.81816 16.7555 1.45417 16.1241 1.29708L14.3688 0.85823C14.2887 0.838154 14.2061 0.830149 14.1238 0.83448C13.5796 0.29922 12.8467 -0.000516003 12.0833 6.66849e-07H6.66667C6.44565 6.66849e-07 6.23369 0.087798 6.07741 0.244078C5.92113 0.400359 5.83333 0.61232 5.83333 0.833334V2.91667C5.83373 3.46854 5.99051 4.00901 6.28548 4.47544C6.58046 4.94187 7.00156 5.31517 7.5 5.55208V10.4875C7.50142 10.9909 7.63245 11.4854 7.88047 11.9235C8.12848 12.3615 8.48513 12.7283 8.91604 12.9885L9.48646 13.3308L8.42136 15.461L8.41448 15.475L8.41313 15.4779C8.4101 15.4844 8.40719 15.4908 8.40427 15.4973L8.40208 15.5023C8.39906 15.5095 8.39604 15.5166 8.39313 15.5237L8.38271 15.5498L4.39313 17.046C3.83817 17.2561 3.36005 17.6296 3.02201 18.1173C2.68397 18.6049 2.50194 19.1837 2.5 19.7771V25H4.16667V19.7771C4.16748 19.5228 4.24545 19.2748 4.39027 19.0658C4.53509 18.8568 4.73993 18.6967 4.97771 18.6067L7.5449 17.644L6.72625 19.6905C6.67135 19.8278 6.65396 19.9772 6.67585 20.1234C6.69774 20.2696 6.75813 20.4073 6.85083 20.5225C6.94353 20.6377 7.06519 20.7261 7.20334 20.7787C7.34149 20.8314 7.49116 20.8463 7.63698 20.822L12.5 20.0115L17.363 20.822C17.5088 20.8463 17.6585 20.8314 17.7967 20.7787C17.9348 20.7261 18.0565 20.6377 18.1492 20.5225C18.2419 20.4073 18.3023 20.2696 18.3242 20.1234C18.346 19.9772 18.3287 19.8278 18.2738 19.6905L17.4551 17.644L20.0223 18.6067C20.2601 18.6967 20.4649 18.8568 20.6097 19.0658C20.7546 19.2748 20.8325 19.5228 20.8333 19.7771V29.1667H19.1667V28.9583C19.1655 27.9089 18.7481 26.9028 18.006 26.1607C17.2639 25.4186 16.2578 25.0012 15.2083 25H7.5V26.6667H11.6667V29.1667H4.16667V26.6667H2.5V29.1667H0.833333C0.61232 29.1667 0.400358 29.2545 0.244078 29.4107C0.0877973 29.567 0 29.779 0 30V33.3333C0 33.5543 0.0877973 33.7663 0.244078 33.9226C0.400358 34.0789 0.61232 34.1667 0.833333 34.1667H1.66667V49.1667C1.66667 49.3877 1.75446 49.5996 1.91074 49.7559C2.06703 49.9122 2.27899 50 2.5 50H22.5V48.3333H3.33333V34.1667H26.6667V43.3333H28.3333V34.1667H29.1667C29.3877 34.1667 29.5996 34.0789 29.7559 33.9226C29.9122 33.7663 30 33.5543 30 33.3333V30C30 29.779 29.9122 29.567 29.7559 29.4107C29.5996 29.2545 29.3877 29.1667 29.1667 29.1667ZM15 2.73406L15.7198 2.91396C15.9904 2.98127 16.2307 3.13726 16.4023 3.35706C16.5739 3.57686 16.667 3.8478 16.6667 4.12667V4.16667H15V2.73406ZM8.75 4.16667C8.41859 4.16631 8.10086 4.0345 7.86651 3.80015C7.63217 3.56581 7.50036 3.24808 7.5 2.91667V1.66667H12.0833C12.4147 1.66703 12.7325 1.79884 12.9668 2.03318C13.2012 2.26752 13.333 2.58526 13.3333 2.91667V4.16667H8.75ZM9.16667 10.4871V5.83333H15.8333V10.4871C15.8327 10.7028 15.7766 10.9148 15.6703 11.1025C15.564 11.2903 15.4111 11.4474 15.2265 11.559L13.1431 12.809C12.9489 12.9257 12.7266 12.9874 12.5 12.9874C12.2734 12.9874 12.0511 12.9257 11.8569 12.809L9.77354 11.559C9.58885 11.4474 9.436 11.2903 9.32971 11.1025C9.22341 10.9148 9.16726 10.7028 9.16667 10.4871ZM8.82375 18.9345L9.47104 17.3162L10.7657 18.6109L8.82375 18.9345ZM10.1806 15.6687L10.9202 14.1904L10.9998 14.2381C11.4529 14.5107 11.9717 14.6547 12.5004 14.6547C13.0292 14.6547 13.5479 14.5107 14.001 14.2381L14.0806 14.1904L14.8202 15.6687L12.5 17.9881L10.1806 15.6687ZM14.2343 18.6109L15.529 17.3162L16.1763 18.9345L14.2343 18.6109ZM13.3333 26.6667H15.2083C15.8159 26.6674 16.3984 26.909 16.828 27.3386C17.2576 27.7683 17.4993 28.3508 17.5 28.9583V29.1667H13.3333V26.6667ZM28.3333 32.5H1.66667V30.8333H28.3333V32.5Z" fill="#0099CC"/>
</svg>
