<svg width="40" height="50" viewBox="0 0 40 50" fill="none" xmlns="http://www.w3.org/2000/svg">
<path d="M17.0115 42.4907L16.6873 42.4519L16.9825 39.9538C17.0704 39.2123 16.9951 38.4605 16.7616 37.7512C16.5282 37.0419 16.1424 36.3922 15.6313 35.8479L6.91099 26.5413L8.09068 20.6032C8.15559 20.2763 8.15406 19.9397 8.08618 19.6134C8.0183 19.2871 7.88547 18.9778 7.69558 18.7039C7.50569 18.43 7.26263 18.1971 6.98087 18.0191C6.69912 17.8411 6.38442 17.7216 6.05552 17.6677C5.92195 17.6459 5.78685 17.6349 5.65152 17.6348C5.12227 17.6333 4.60651 17.8016 4.17999 18.1149C3.75346 18.4283 3.43865 18.8701 3.28179 19.3756L0.905031 26.9541C0.474566 28.3321 0.506529 29.813 0.996046 31.1711L2.73628 35.979C3.15386 37.1321 3.88475 38.146 4.84683 38.9065L5.93159 39.764C6.16114 39.9465 6.35202 40.1729 6.49312 40.43C6.63421 40.6871 6.72268 40.9698 6.75337 41.2614C6.20102 41.2106 5.65062 41.3771 5.21896 41.7254C4.78731 42.0738 4.50838 42.5766 4.44136 43.1272L4.28804 44.4054L4.28784 44.406V44.4066L3.90191 47.623C3.87976 47.8154 3.93469 48.0087 4.0547 48.1607C4.1747 48.3127 4.35 48.4109 4.54226 48.434C4.73453 48.4571 4.9281 48.4031 5.08065 48.2838C5.2332 48.1645 5.33231 47.9897 5.3563 47.7976L5.65376 45.3181L17.169 46.7825L16.8813 49.1803C16.8686 49.2763 16.8751 49.374 16.9004 49.4675C16.9258 49.5611 16.9694 49.6487 17.0288 49.7252C17.0882 49.8018 17.1622 49.8658 17.2466 49.9135C17.3309 49.9613 17.4239 49.9918 17.5201 50.0034C17.6163 50.0149 17.7139 50.0073 17.8071 49.9808C17.9004 49.9544 17.9874 49.9097 18.0633 49.8494C18.1391 49.7891 18.2023 49.7143 18.249 49.6294C18.2957 49.5446 18.3252 49.4512 18.3356 49.3549L18.709 46.2423L18.7094 46.24L18.7096 46.2371L18.8751 44.8592C18.9082 44.5813 18.8863 44.2996 18.8106 44.0302C18.7349 43.7608 18.6069 43.5089 18.4339 43.289C18.2608 43.069 18.0462 42.8853 17.8021 42.7484C17.5581 42.6114 17.2895 42.5239 17.0116 42.4907H17.0115ZM5.75542 37.7576C5.00703 37.1659 4.43844 36.3773 4.11353 35.4803L2.37329 30.6723C1.9926 29.6162 1.96773 28.4645 2.30249 27.393L4.67944 19.8142C4.74376 19.6068 4.87287 19.4254 5.04783 19.2968C5.22279 19.1682 5.43437 19.0991 5.65152 19.0996C5.70778 19.0997 5.76394 19.1043 5.81948 19.1133C5.95441 19.1355 6.08348 19.1846 6.19903 19.2577C6.31458 19.3308 6.41425 19.4264 6.49209 19.5388C6.56994 19.6513 6.62438 19.7782 6.65217 19.9121C6.67996 20.0459 6.68053 20.1841 6.65386 20.3182L5.46284 26.3132C4.811 26.7623 4.34753 27.4358 4.16103 28.2051C3.97453 28.9744 4.07809 29.7854 4.45191 30.4831L6.5271 34.3649C6.6187 34.5363 6.7746 34.6642 6.9605 34.7205C7.05255 34.7485 7.1492 34.758 7.24493 34.7485C7.34065 34.7391 7.43358 34.7109 7.51841 34.6655C7.60324 34.6202 7.6783 34.5586 7.73931 34.4842C7.80033 34.4098 7.8461 34.3242 7.87401 34.2321C7.90192 34.1401 7.91143 34.0434 7.90199 33.9477C7.89255 33.852 7.86435 33.759 7.819 33.6742L5.7436 29.792C5.60649 29.5382 5.53489 29.2543 5.5353 28.9658C5.53475 28.5093 5.71174 28.0705 6.02886 27.7422L14.5624 36.8494C14.9274 37.2383 15.203 37.7023 15.3698 38.2089C15.5365 38.7156 15.5904 39.2526 15.5277 39.7822L15.2329 42.2773L8.22935 41.437C8.22083 40.8931 8.0918 40.3579 7.85156 39.8699C7.61131 39.3819 7.26583 38.9533 6.83999 38.6148L5.75542 37.7576ZM17.4207 44.6846L17.3435 45.3279L5.82827 43.8635L5.89566 43.3018C5.91741 43.1265 6.00772 42.9671 6.14681 42.8583C6.2859 42.7495 6.46244 42.7003 6.63775 42.7214L7.38403 42.8109H7.38452L16.837 43.9451C17.0124 43.9658 17.1725 44.0553 17.2819 44.194C17.3914 44.3326 17.4413 44.5091 17.4207 44.6846ZM27.4933 21.7904C29.5231 18.9127 30.5959 15.6261 30.5959 12.2855V4.58399C30.5959 4.40903 30.5332 4.23984 30.4193 4.10706C30.3054 3.97427 30.1477 3.88665 29.9748 3.86006C28.1085 3.57468 26.2836 3.06493 24.5396 2.3419C23.1156 1.75216 21.7591 1.01123 20.4933 0.131837C20.3667 0.0434465 20.2155 -0.00266764 20.0611 8.60042e-05C19.9067 0.00283965 19.7572 0.0543201 19.6338 0.147169C18.7057 0.843426 17.7148 1.45196 16.6741 1.96494C14.5884 2.9841 12.3477 3.64917 10.0437 3.93291C9.86703 3.95559 9.70467 4.04187 9.58701 4.1756C9.46935 4.30933 9.40444 4.48135 9.40444 4.65947V12.2856C9.40444 15.6261 10.4772 18.9127 12.507 21.7904C14.2656 24.2836 16.734 26.4535 19.6454 28.0656C19.7539 28.1257 19.876 28.1573 20.0001 28.1573C20.1243 28.1573 20.2463 28.1257 20.3549 28.0656C23.2663 26.4535 25.7347 24.2836 27.4933 21.7904ZM20.0001 26.5833C17.4355 25.101 15.2645 23.1585 13.704 20.946C11.8495 18.3168 10.8693 15.322 10.8693 12.2856V5.29541C13.1108 4.95594 15.2872 4.27568 17.323 3.27822C18.2874 2.80238 19.2124 2.25075 20.0895 1.62852C21.3167 2.43916 22.6184 3.13089 23.977 3.69434C25.6354 4.38242 27.3635 4.8887 29.131 5.2043V12.2856C29.131 15.322 28.1508 18.3169 26.2963 20.946C24.7358 23.1585 22.5648 25.101 20.0001 26.5833ZM27.6662 6.9791C27.6662 6.81574 27.6115 6.65706 27.511 6.5283C27.4105 6.39953 27.2698 6.30807 27.1113 6.26846C25.8503 5.95359 24.6145 5.5452 23.4142 5.04668C22.4106 4.62946 21.4353 4.14712 20.4946 3.60274C20.3802 3.53646 20.25 3.50236 20.1179 3.50404C19.9857 3.50573 19.8564 3.54314 19.7438 3.61231C19.1684 3.96559 18.5772 4.29233 17.9719 4.59151C16.3568 5.38571 14.6553 5.99057 12.9013 6.39404C12.7401 6.43138 12.5962 6.52224 12.4932 6.65181C12.3902 6.78137 12.3341 6.942 12.3341 7.10752V12.2856C12.3341 15.0181 13.2217 17.7208 14.901 20.1017C16.1097 21.8153 17.6882 23.3305 19.5927 24.6051C19.7133 24.6858 19.8551 24.7289 20.0001 24.7289C20.1452 24.7289 20.287 24.6858 20.4076 24.6051C22.3121 23.3305 23.8906 21.8153 25.0993 20.1017C26.7786 17.7208 27.6662 15.0181 27.6662 12.2856V6.9791ZM26.2013 12.2856C26.2013 14.7142 25.4064 17.1248 23.9022 19.2573C22.8267 20.7504 21.5076 22.0518 20.0001 23.1069C18.4927 22.0517 17.1735 20.7503 16.0981 19.2571C14.594 17.1247 13.799 14.7141 13.799 12.2854V7.68301C15.4637 7.25939 17.0797 6.66339 18.6209 5.90469C19.1363 5.64997 19.6423 5.37648 20.1377 5.08477C21.0166 5.57403 21.9227 6.01289 22.8514 6.39922C23.9424 6.85242 25.0613 7.23511 26.2013 7.54492V12.2856ZM39.0955 26.9546L36.7185 19.3753C36.5281 18.7685 36.1124 18.2578 35.5569 17.9483C35.0014 17.6387 34.3483 17.5539 33.7322 17.7113C33.116 17.8687 32.5836 18.2563 32.2446 18.7943C31.9056 19.3323 31.7857 19.9799 31.9096 20.6036L33.0893 26.5413L24.369 35.8479C23.8579 36.3923 23.472 37.042 23.2386 37.7513C23.0052 38.4607 22.9298 39.2125 23.0178 39.9541L23.313 42.4519L22.9888 42.4907C22.711 42.5239 22.4423 42.6114 22.1983 42.7484C21.9543 42.8853 21.7396 43.069 21.5666 43.2889C21.3935 43.5089 21.2655 43.7607 21.1898 44.0301C21.1141 44.2995 21.0922 44.5812 21.1253 44.8591L21.2907 46.2372L21.2909 46.24L21.2913 46.2423L21.6647 49.3549C21.6759 49.4506 21.7059 49.5431 21.753 49.6272C21.8 49.7113 21.8632 49.7852 21.9389 49.8449C22.0146 49.9045 22.1013 49.9486 22.194 49.9746C22.2868 50.0007 22.3838 50.0082 22.4794 49.9967C22.5751 49.9852 22.6675 49.955 22.7515 49.9077C22.8355 49.8604 22.9093 49.7971 22.9687 49.7212C23.0281 49.6454 23.072 49.5586 23.0978 49.4657C23.1236 49.3729 23.1308 49.2759 23.1191 49.1803L22.8314 46.7825L34.3465 45.318L34.644 47.7976C34.668 47.9897 34.7671 48.1645 34.9196 48.2838C35.0722 48.4031 35.2658 48.4571 35.458 48.434C35.6503 48.4109 35.8256 48.3127 35.9456 48.1607C36.0656 48.0087 36.1205 47.8154 36.0984 47.623L35.7125 44.4066V44.406L35.7124 44.4054L35.559 43.1272C35.4917 42.5767 35.2127 42.0741 34.7811 41.7258C34.3495 41.3775 33.7992 41.2109 33.2469 41.2614C33.2776 40.9698 33.366 40.6872 33.5071 40.4301C33.6482 40.173 33.839 39.9466 34.0685 39.7641L35.1538 38.9063C36.1157 38.1457 36.8466 37.1319 37.2641 35.9788L39.0042 31.1714C39.4937 29.8134 39.5258 28.3325 39.0955 26.9546ZM33.3625 42.7214C33.5378 42.7004 33.7143 42.7496 33.8534 42.8584C33.9925 42.9671 34.0828 43.1266 34.1046 43.3018L34.172 43.8635L22.6569 45.3279L22.5797 44.6846C22.5591 44.5091 22.609 44.3327 22.7184 44.194C22.8279 44.0553 22.9879 43.9658 23.1633 43.9451L32.6158 42.8109H32.6163L33.3625 42.7214ZM37.6269 30.6726L35.8867 35.48C35.5619 36.377 34.9934 37.1656 34.2452 37.7573L33.1602 38.6149C32.7344 38.9534 32.3889 39.382 32.1487 39.87C31.9085 40.358 31.7795 40.8932 31.7709 41.437L24.7674 42.2773L24.4725 39.7825C24.4098 39.2528 24.4637 38.7157 24.6304 38.2091C24.7972 37.7024 25.0728 37.2383 25.4379 36.8494L33.9714 27.7421C34.2886 28.0705 34.4656 28.5093 34.465 28.9658C34.4654 29.2544 34.3937 29.5385 34.2565 29.7924L32.1813 33.6742C32.136 33.759 32.1078 33.852 32.0983 33.9477C32.0889 34.0434 32.0984 34.1401 32.1263 34.2321C32.1542 34.3242 32.2 34.4098 32.261 34.4842C32.322 34.5585 32.3971 34.6201 32.4819 34.6655C32.5668 34.7108 32.6597 34.739 32.7554 34.7485C32.8511 34.7579 32.9478 34.7484 33.0398 34.7205C33.1319 34.6925 33.2175 34.6468 33.2919 34.5858C33.3662 34.5247 33.4278 34.4497 33.4732 34.3648L35.5482 30.4834C35.9221 29.7857 36.0257 28.9746 35.8393 28.2053C35.6528 27.4359 35.1893 26.7623 34.5375 26.3132L33.3465 20.3186C33.3199 20.1846 33.3204 20.0467 33.348 19.913C33.3757 19.7792 33.4299 19.6524 33.5075 19.54C33.5851 19.4277 33.6845 19.332 33.7998 19.2588C33.9151 19.1856 34.0439 19.1363 34.1786 19.1138C34.2348 19.1045 34.2918 19.0998 34.3488 19.0996C34.5659 19.0991 34.7775 19.1682 34.9524 19.2967C35.1274 19.4253 35.2565 19.6066 35.3209 19.814L37.698 27.3936C38.0326 28.4651 38.0076 29.6166 37.6269 30.6726Z" fill="#0099CC"/>
</svg>
