<svg width="50" height="50" viewBox="0 0 50 50" fill="none" xmlns="http://www.w3.org/2000/svg">
<path d="M20.1616 24.1935H17.7423V21.7742C17.7423 21.5603 17.6573 21.3552 17.506 21.2039C17.3548 21.0527 17.1497 20.9677 16.9358 20.9677H13.71C13.4961 20.9677 13.291 21.0527 13.1397 21.2039C12.9885 21.3552 12.9035 21.5603 12.9035 21.7742V24.1935H10.4842C10.2703 24.1935 10.0652 24.2785 9.91394 24.4298C9.7627 24.581 9.67773 24.7861 9.67773 25V28.2258C9.67773 28.4397 9.7627 28.6448 9.91394 28.7961C10.0652 28.9473 10.2703 29.0323 10.4842 29.0323H12.9035V31.4516C12.9035 31.6655 12.9885 31.8706 13.1397 32.0219C13.291 32.1731 13.4961 32.2581 13.71 32.2581H16.9358C17.1497 32.2581 17.3548 32.1731 17.506 32.0219C17.6573 31.8706 17.7423 31.6655 17.7423 31.4516V29.0323H20.1616C20.3755 29.0323 20.5806 28.9473 20.7319 28.7961C20.8831 28.6448 20.9681 28.4397 20.9681 28.2258V25C20.9681 24.7861 20.8831 24.581 20.7319 24.4298C20.5806 24.2785 20.3755 24.1935 20.1616 24.1935ZM19.3552 27.4194H16.9358C16.7219 27.4194 16.5168 27.5043 16.3656 27.6556C16.2143 27.8068 16.1293 28.0119 16.1293 28.2258V30.6452H14.5164V28.2258C14.5164 28.0119 14.4315 27.8068 14.2802 27.6556C14.129 27.5043 13.9239 27.4194 13.71 27.4194H11.2906V25.8065H13.71C13.9239 25.8065 14.129 25.7215 14.2802 25.5702C14.4315 25.419 14.5164 25.2139 14.5164 25V22.5806H16.1293V25C16.1293 25.2139 16.2143 25.419 16.3656 25.5702C16.5168 25.7215 16.7219 25.8065 16.9358 25.8065H19.3552V27.4194Z" fill="#0099CC"/>
<path d="M46.7742 30.6452H30.6452V16.9355C30.6452 16.7433 30.5765 16.5574 30.4516 16.4113L25.8065 10.9919V8.06452H26.6129C26.8268 8.06452 27.0319 7.97955 27.1832 7.82831C27.3344 7.67707 27.4194 7.47195 27.4194 7.25806V0.806452C27.4194 0.592567 27.3344 0.387443 27.1832 0.236204C27.0319 0.0849652 26.8268 0 26.6129 0H4.03226C3.81837 0 3.61325 0.0849652 3.46201 0.236204C3.31077 0.387443 3.22581 0.592567 3.22581 0.806452V7.25806C3.22581 7.47195 3.31077 7.67707 3.46201 7.82831C3.61325 7.97955 3.81837 8.06452 4.03226 8.06452H4.83871V10.9919L0.193548 16.4113C0.0686245 16.5574 -1.47835e-05 16.7433 2.38831e-09 16.9355V37.9032C2.38831e-09 38.9726 0.424826 39.9983 1.18102 40.7545C1.55545 41.1289 1.99996 41.4259 2.48918 41.6285C2.9784 41.8312 3.50273 41.9355 4.03226 41.9355H19.3548V46.7742C19.3548 47.6297 19.6947 48.4502 20.2997 49.0552C20.9046 49.6601 21.7251 50 22.5806 50H46.7742C47.6297 50 48.4502 49.6601 49.0552 49.0552C49.6601 48.4502 50 47.6297 50 46.7742V33.871C50 33.0154 49.6601 32.1949 49.0552 31.59C48.4502 30.985 47.6297 30.6452 46.7742 30.6452ZM4.83871 1.6129H25.8065V6.45161H4.83871V1.6129ZM24.1935 8.06452V10.4839H6.45161V8.06452H24.1935ZM6.01613 12.0968H24.629L28.0887 16.129H2.55645L6.01613 12.0968ZM4.03226 40.3226C3.39061 40.3226 2.77523 40.0677 2.32152 39.614C1.8678 39.1603 1.6129 38.5449 1.6129 37.9032V37.0968H19.3548V40.3226H4.03226ZM19.3548 33.871V35.4839H1.6129V17.7419H29.0323V30.6452H22.5806C21.7251 30.6452 20.9046 30.985 20.2997 31.59C19.6947 32.1949 19.3548 33.0154 19.3548 33.871ZM48.3871 46.7742C48.3871 47.202 48.2172 47.6122 47.9147 47.9147C47.6122 48.2172 47.202 48.3871 46.7742 48.3871H22.5806C22.1529 48.3871 21.7426 48.2172 21.4402 47.9147C21.1377 47.6122 20.9677 47.202 20.9677 46.7742V33.871C20.9677 33.4432 21.1377 33.033 21.4402 32.7305C21.7426 32.428 22.1529 32.2581 22.5806 32.2581H46.7742C47.202 32.2581 47.6122 32.428 47.9147 32.7305C48.2172 33.033 48.3871 33.4432 48.3871 33.871V46.7742Z" fill="#0099CC"/>
<path d="M24.9999 33.871C24.5214 33.871 24.0537 34.0128 23.6558 34.2787C23.2579 34.5445 22.9478 34.9224 22.7647 35.3645C22.5816 35.8065 22.5337 36.293 22.6271 36.7623C22.7204 37.2316 22.9508 37.6627 23.2892 38.0011C23.6275 38.3394 24.0586 38.5698 24.5279 38.6632C24.9972 38.7565 25.4837 38.7086 25.9258 38.5255C26.3678 38.3424 26.7457 38.0323 27.0115 37.6344C27.2774 37.2366 27.4193 36.7688 27.4193 36.2903C27.4193 35.6487 27.1644 35.0333 26.7107 34.5796C26.2569 34.1259 25.6416 33.871 24.9999 33.871ZM24.9999 37.0968C24.8404 37.0968 24.6845 37.0495 24.5519 36.9609C24.4193 36.8722 24.3159 36.7463 24.2549 36.5989C24.1938 36.4516 24.1778 36.2894 24.209 36.133C24.2401 35.9765 24.3169 35.8328 24.4297 35.7201C24.5425 35.6073 24.6862 35.5305 24.8426 35.4994C24.999 35.4682 25.1612 35.4842 25.3085 35.5452C25.4559 35.6063 25.5818 35.7097 25.6705 35.8423C25.7591 35.9749 25.8064 36.1308 25.8064 36.2903C25.8064 36.5042 25.7214 36.7093 25.5702 36.8606C25.4189 37.0118 25.2138 37.0968 24.9999 37.0968ZM31.4515 33.871C30.973 33.871 30.5053 34.0128 30.1074 34.2787C29.7096 34.5445 29.3995 34.9224 29.2163 35.3645C29.0332 35.8065 28.9853 36.293 29.0787 36.7623C29.172 37.2316 29.4024 37.6627 29.7408 38.0011C30.0791 38.3394 30.5102 38.5698 30.9795 38.6632C31.4489 38.7565 31.9353 38.7086 32.3774 38.5255C32.8195 38.3424 33.1973 38.0323 33.4632 37.6344C33.729 37.2366 33.8709 36.7688 33.8709 36.2903C33.8709 35.6487 33.616 35.0333 33.1623 34.5796C32.7086 34.1259 32.0932 33.871 31.4515 33.871ZM31.4515 37.0968C31.292 37.0968 31.1361 37.0495 31.0035 36.9609C30.8709 36.8722 30.7675 36.7463 30.7065 36.5989C30.6454 36.4516 30.6295 36.2894 30.6606 36.133C30.6917 35.9765 30.7685 35.8328 30.8813 35.7201C30.9941 35.6073 31.1378 35.5305 31.2942 35.4994C31.4506 35.4682 31.6128 35.4842 31.7602 35.5452C31.9075 35.6063 32.0335 35.7097 32.1221 35.8423C32.2107 35.9749 32.258 36.1308 32.258 36.2903C32.258 36.5042 32.173 36.7093 32.0218 36.8606C31.8705 37.0118 31.6654 37.0968 31.4515 37.0968ZM37.9031 33.871C37.4246 33.871 36.9569 34.0128 36.559 34.2787C36.1612 34.5445 35.8511 34.9224 35.668 35.3645C35.4848 35.8065 35.4369 36.293 35.5303 36.7623C35.6236 37.2316 35.8541 37.6627 36.1924 38.0011C36.5308 38.3394 36.9618 38.5698 37.4312 38.6632C37.9005 38.7565 38.3869 38.7086 38.829 38.5255C39.2711 38.3424 39.6489 38.0323 39.9148 37.6344C40.1806 37.2366 40.3225 36.7688 40.3225 36.2903C40.3225 35.6487 40.0676 35.0333 39.6139 34.5796C39.1602 34.1259 38.5448 33.871 37.9031 33.871ZM37.9031 37.0968C37.7436 37.0968 37.5877 37.0495 37.4551 36.9609C37.3225 36.8722 37.2191 36.7463 37.1581 36.5989C37.097 36.4516 37.0811 36.2894 37.1122 36.133C37.1433 35.9765 37.2201 35.8328 37.3329 35.7201C37.4457 35.6073 37.5894 35.5305 37.7458 35.4994C37.9023 35.4682 38.0644 35.4842 38.2118 35.5452C38.3591 35.6063 38.4851 35.7097 38.5737 35.8423C38.6623 35.9749 38.7096 36.1308 38.7096 36.2903C38.7096 36.5042 38.6246 36.7093 38.4734 36.8606C38.3222 37.0118 38.117 37.0968 37.9031 37.0968ZM44.3548 33.871C43.8763 33.871 43.4085 34.0128 43.0106 34.2787C42.6128 34.5445 42.3027 34.9224 42.1196 35.3645C41.9365 35.8065 41.8885 36.293 41.9819 36.7623C42.0752 37.2316 42.3057 37.6627 42.644 38.0011C42.9824 38.3394 43.4135 38.5698 43.8828 38.6632C44.3521 38.7565 44.8385 38.7086 45.2806 38.5255C45.7227 38.3424 46.1005 38.0323 46.3664 37.6344C46.6322 37.2366 46.7741 36.7688 46.7741 36.2903C46.7741 35.6487 46.5192 35.0333 46.0655 34.5796C45.6118 34.1259 44.9964 33.871 44.3548 33.871ZM44.3548 37.0968C44.1953 37.0968 44.0393 37.0495 43.9067 36.9609C43.7741 36.8722 43.6707 36.7463 43.6097 36.5989C43.5487 36.4516 43.5327 36.2894 43.5638 36.133C43.5949 35.9765 43.6717 35.8328 43.7845 35.7201C43.8973 35.6073 44.041 35.5305 44.1974 35.4994C44.3539 35.4682 44.516 35.4842 44.6634 35.5452C44.8107 35.6063 44.9367 35.7097 45.0253 35.8423C45.1139 35.9749 45.1612 36.1308 45.1612 36.2903C45.1612 36.5042 45.0762 36.7093 44.925 36.8606C44.7738 37.0118 44.5686 37.0968 44.3548 37.0968ZM24.9999 41.9355C24.5214 41.9355 24.0537 42.0774 23.6558 42.3432C23.2579 42.609 22.9478 42.9869 22.7647 43.429C22.5816 43.8711 22.5337 44.3575 22.6271 44.8268C22.7204 45.2961 22.9508 45.7272 23.2892 46.0656C23.6275 46.4039 24.0586 46.6343 24.5279 46.7277C24.9972 46.821 25.4837 46.7731 25.9258 46.59C26.3678 46.4069 26.7457 46.0968 27.0115 45.6989C27.2774 45.3011 27.4193 44.8333 27.4193 44.3548C27.4193 43.7132 27.1644 43.0978 26.7107 42.6441C26.2569 42.1904 25.6416 41.9355 24.9999 41.9355ZM24.9999 45.1613C24.8404 45.1613 24.6845 45.114 24.5519 45.0254C24.4193 44.9368 24.3159 44.8108 24.2549 44.6634C24.1938 44.5161 24.1778 44.3539 24.209 44.1975C24.2401 44.0411 24.3169 43.8974 24.4297 43.7846C24.5425 43.6718 24.6862 43.595 24.8426 43.5639C24.999 43.5328 25.1612 43.5487 25.3085 43.6098C25.4559 43.6708 25.5818 43.7742 25.6705 43.9068C25.7591 44.0394 25.8064 44.1953 25.8064 44.3548C25.8064 44.5687 25.7214 44.7738 25.5702 44.9251C25.4189 45.0763 25.2138 45.1613 24.9999 45.1613ZM31.4515 41.9355C30.973 41.9355 30.5053 42.0774 30.1074 42.3432C29.7096 42.609 29.3995 42.9869 29.2163 43.429C29.0332 43.8711 28.9853 44.3575 29.0787 44.8268C29.172 45.2961 29.4024 45.7272 29.7408 46.0656C30.0791 46.4039 30.5102 46.6343 30.9795 46.7277C31.4489 46.821 31.9353 46.7731 32.3774 46.59C32.8195 46.4069 33.1973 46.0968 33.4632 45.6989C33.729 45.3011 33.8709 44.8333 33.8709 44.3548C33.8709 43.7132 33.616 43.0978 33.1623 42.6441C32.7086 42.1904 32.0932 41.9355 31.4515 41.9355ZM31.4515 45.1613C31.292 45.1613 31.1361 45.114 31.0035 45.0254C30.8709 44.9368 30.7675 44.8108 30.7065 44.6634C30.6454 44.5161 30.6295 44.3539 30.6606 44.1975C30.6917 44.0411 30.7685 43.8974 30.8813 43.7846C30.9941 43.6718 31.1378 43.595 31.2942 43.5639C31.4506 43.5328 31.6128 43.5487 31.7602 43.6098C31.9075 43.6708 32.0335 43.7742 32.1221 43.9068C32.2107 44.0394 32.258 44.1953 32.258 44.3548C32.258 44.5687 32.173 44.7738 32.0218 44.9251C31.8705 45.0763 31.6654 45.1613 31.4515 45.1613ZM37.9031 41.9355C37.4246 41.9355 36.9569 42.0774 36.559 42.3432C36.1612 42.609 35.8511 42.9869 35.668 43.429C35.4848 43.8711 35.4369 44.3575 35.5303 44.8268C35.6236 45.2961 35.8541 45.7272 36.1924 46.0656C36.5308 46.4039 36.9618 46.6343 37.4312 46.7277C37.9005 46.821 38.3869 46.7731 38.829 46.59C39.2711 46.4069 39.6489 46.0968 39.9148 45.6989C40.1806 45.3011 40.3225 44.8333 40.3225 44.3548C40.3225 43.7132 40.0676 43.0978 39.6139 42.6441C39.1602 42.1904 38.5448 41.9355 37.9031 41.9355ZM37.9031 45.1613C37.7436 45.1613 37.5877 45.114 37.4551 45.0254C37.3225 44.9368 37.2191 44.8108 37.1581 44.6634C37.097 44.5161 37.0811 44.3539 37.1122 44.1975C37.1433 44.0411 37.2201 43.8974 37.3329 43.7846C37.4457 43.6718 37.5894 43.595 37.7458 43.5639C37.9023 43.5328 38.0644 43.5487 38.2118 43.6098C38.3591 43.6708 38.4851 43.7742 38.5737 43.9068C38.6623 44.0394 38.7096 44.1953 38.7096 44.3548C38.7096 44.5687 38.6246 44.7738 38.4734 44.9251C38.3222 45.0763 38.117 45.1613 37.9031 45.1613ZM44.3548 41.9355C43.8763 41.9355 43.4085 42.0774 43.0106 42.3432C42.6128 42.609 42.3027 42.9869 42.1196 43.429C41.9365 43.8711 41.8885 44.3575 41.9819 44.8268C42.0752 45.2961 42.3057 45.7272 42.644 46.0656C42.9824 46.4039 43.4135 46.6343 43.8828 46.7277C44.3521 46.821 44.8385 46.7731 45.2806 46.59C45.7227 46.4069 46.1005 46.0968 46.3664 45.6989C46.6322 45.3011 46.7741 44.8333 46.7741 44.3548C46.7741 43.7132 46.5192 43.0978 46.0655 42.6441C45.6118 42.1904 44.9964 41.9355 44.3548 41.9355ZM44.3548 45.1613C44.1953 45.1613 44.0393 45.114 43.9067 45.0254C43.7741 44.9368 43.6707 44.8108 43.6097 44.6634C43.5487 44.5161 43.5327 44.3539 43.5638 44.1975C43.5949 44.0411 43.6717 43.8974 43.7845 43.7846C43.8973 43.6718 44.041 43.595 44.1974 43.5639C44.3539 43.5328 44.516 43.5487 44.6634 43.6098C44.8107 43.6708 44.9367 43.7742 45.0253 43.9068C45.1139 44.0394 45.1612 44.1953 45.1612 44.3548C45.1612 44.5687 45.0762 44.7738 44.925 44.9251C44.7738 45.0763 44.5686 45.1613 44.3548 45.1613ZM37.9031 23.8629C37.6471 24.1177 37.444 24.4205 37.3053 24.7541C37.1667 25.0876 37.0953 25.4452 37.0953 25.8064C37.0953 26.1676 37.1667 26.5253 37.3053 26.8588C37.444 27.1923 37.6471 27.4952 37.9031 27.75L38.379 28.2258C38.6337 28.4818 38.9366 28.685 39.2701 28.8236C39.6037 28.9622 39.9613 29.0336 40.3225 29.0336C40.6837 29.0336 41.0413 28.9622 41.3749 28.8236C41.7084 28.685 42.0113 28.4818 42.2661 28.2258L45.9677 24.5242C46.2237 24.2694 46.4269 23.9665 46.5655 23.633C46.7041 23.2995 46.7755 22.9418 46.7755 22.5806C46.7755 22.2194 46.7041 21.8618 46.5655 21.5283C46.4269 21.1947 46.2237 20.8919 45.9677 20.6371L45.4919 20.1613C44.9683 19.6614 44.2722 19.3825 43.5483 19.3825C42.8244 19.3825 42.1283 19.6614 41.6048 20.1613L37.9031 23.8629ZM41.129 27.0887C40.9088 27.2904 40.6211 27.4024 40.3225 27.4024C40.0239 27.4024 39.7362 27.2904 39.5161 27.0887L39.0402 26.6129C38.8275 26.3984 38.7081 26.1085 38.7081 25.8064C38.7081 25.5043 38.8275 25.2145 39.0402 25L40.3225 23.7177L42.4112 25.8064L41.129 27.0887ZM43.5483 20.9677C43.85 20.9682 44.1395 21.0869 44.3548 21.2984L44.8306 21.7742C45.0433 21.9887 45.1627 22.2785 45.1627 22.5806C45.1627 22.8827 45.0433 23.1726 44.8306 23.3871L43.5483 24.6693L41.4596 22.5806L42.7419 21.2984C42.9571 21.0869 43.2466 20.9682 43.5483 20.9677ZM37.5725 15.3226C37.8273 15.5786 38.1301 15.7818 38.4637 15.9204C38.7972 16.059 39.1549 16.1304 39.5161 16.1304C39.8772 16.1304 40.2349 16.059 40.5684 15.9204C40.902 15.7818 41.2048 15.5786 41.4596 15.3226L41.9354 14.8468C42.1914 14.592 42.3946 14.2891 42.5332 13.9556C42.6719 13.6221 42.7432 13.2644 42.7432 12.9032C42.7432 12.542 42.6719 12.1844 42.5332 11.8508C42.3946 11.5173 42.1914 11.2144 41.9354 10.9597L38.2338 7.25805C37.7102 6.75817 37.0141 6.47925 36.2902 6.47925C35.5663 6.47925 34.8703 6.75817 34.3467 7.25805L33.8709 7.73386C33.6149 7.98864 33.4117 8.2915 33.2731 8.62504C33.1344 8.95857 33.0631 9.31621 33.0631 9.67741C33.0631 10.0386 33.1344 10.3962 33.2731 10.7298C33.4117 11.0633 33.6149 11.3662 33.8709 11.621L37.5725 15.3226ZM41.129 12.9032C41.1285 13.2049 41.0098 13.4945 40.7983 13.7097L40.3225 14.1855C40.1024 14.3872 39.8146 14.4991 39.5161 14.4991C39.2175 14.4991 38.9297 14.3872 38.7096 14.1855L37.4273 12.9032L39.5161 10.8145L40.7983 12.0968C41.0098 12.312 41.1285 12.6015 41.129 12.9032ZM35.008 8.87096L35.4838 8.39515C35.6983 8.1824 35.9881 8.06303 36.2902 8.06303C36.5923 8.06303 36.8822 8.1824 37.0967 8.39515L38.379 9.67741L36.2902 11.7661L35.008 10.4839C34.7952 10.2694 34.6759 9.97951 34.6759 9.67741C34.6759 9.37531 34.7952 9.08544 35.008 8.87096Z" fill="#0099CC"/>
</svg>
