<svg width="50" height="50" viewBox="0 0 50 50" fill="none" xmlns="http://www.w3.org/2000/svg">
<g clip-path="url(#clip0_287_82)">
<path d="M43.75 50H29.1667V36.4584H20.8333V50H6.25V28.125C6.25 27.8488 6.35975 27.5838 6.5551 27.3885C6.75045 27.1931 7.0154 27.0834 7.29167 27.0834C7.56793 27.0834 7.83289 27.1931 8.02824 27.3885C8.22359 27.5838 8.33333 27.8488 8.33333 28.125V47.9167H18.75V34.375H31.25V47.9167H41.6667V29.1667C41.6667 28.8904 41.7764 28.6255 41.9718 28.4301C42.1671 28.2348 42.4321 28.125 42.7083 28.125C42.9846 28.125 43.2496 28.2348 43.4449 28.4301C43.6403 28.6255 43.75 28.8904 43.75 29.1667V50Z" fill="#0099CC"/>
<path d="M48.958 28.125C48.6898 28.1253 48.4319 28.0219 48.2382 27.8364L24.9996 5.60831L1.7611 27.8364C1.56149 28.0275 1.29418 28.1314 1.01795 28.1253C0.741724 28.1193 0.479218 28.0037 0.288179 27.8041C0.0971405 27.6045 -0.00678185 27.3372 -0.000725987 27.061C0.00532987 26.7848 0.120868 26.5223 0.320471 26.3312L24.9996 2.72498L49.6778 26.3302C49.8282 26.4739 49.9321 26.6594 49.9762 26.8627C50.0202 27.0661 50.0024 27.2779 49.9249 27.471C49.8475 27.6642 49.714 27.8296 49.5417 27.9462C49.3693 28.0627 49.166 28.125 48.958 28.125ZM40.6246 15.625C40.3484 15.625 40.0834 15.5152 39.8881 15.3199C39.6927 15.1245 39.583 14.8596 39.583 14.5833V8.33331H33.333C33.0567 8.33331 32.7917 8.22356 32.5964 8.02821C32.4011 7.83286 32.2913 7.56791 32.2913 7.29164C32.2913 7.01538 32.4011 6.75042 32.5964 6.55507C32.7917 6.35972 33.0567 6.24998 33.333 6.24998H41.6663V14.5833C41.6663 14.8596 41.5566 15.1245 41.3612 15.3199C41.1659 15.5152 40.9009 15.625 40.6246 15.625Z" fill="#0099CC"/>
</g>
<defs>
<clipPath id="clip0_287_82">
<rect width="50" height="50" fill="white"/>
</clipPath>
</defs>
</svg>
