<svg width="81" height="75" viewBox="0 0 81 75" fill="none" xmlns="http://www.w3.org/2000/svg">
<path d="M73.6919 58.8963C72.1819 58.734 70.9119 58.1209 69.5519 56.9037C68.7919 56.2184 68.1319 55.5242 67.4819 54.857C65.8419 53.1439 64.1519 51.3677 60.7419 49.5825L60.5619 49.1317C64.2919 47.5538 67.6819 45.417 70.6319 42.7572C79.0619 35.1925 82.7319 24.364 80.2119 14.5002C80.0819 13.9952 79.6419 13.5985 79.0819 13.4903C71.5319 11.9215 63.2519 12.9764 56.1019 16.3846C53.0719 9.69448 47.8619 4.04128 41.3119 0.353623C40.8219 0.0831348 40.2119 0.0831348 39.7219 0.353623C33.1419 4.05029 27.9219 9.7035 24.8919 16.3846C17.7419 12.9764 9.46194 11.9215 1.91194 13.4903C1.35194 13.6075 0.911942 14.0043 0.781942 14.5002C-1.73806 24.364 1.93194 35.1925 10.3619 42.7572C13.3319 45.426 16.7119 47.5538 20.4319 49.1136C20.3919 49.2128 20.3519 49.312 20.3119 49.4202C20.2919 49.4743 20.2719 49.5194 20.2519 49.5735C16.8419 51.3587 15.1619 53.1259 13.5219 54.839C12.8819 55.5152 12.2119 56.2094 11.4519 56.8947C10.0919 58.1119 8.81194 58.734 7.31194 58.8873C6.49194 58.9774 5.90194 59.6446 6.00194 60.393C6.09194 61.0782 6.74194 61.5831 7.49194 61.5831C7.22194 61.8897 6.98194 62.2143 6.78194 62.5659C5.48194 64.8651 5.83194 67.9576 7.66194 70.2658C9.56194 72.6641 12.4119 73.7551 14.4719 74.251C16.4919 74.7379 18.7519 74.9813 21.2319 74.9813C26.6119 74.9813 33.0619 73.8363 40.5019 71.5641C47.9419 73.8363 54.3919 74.9813 59.7719 74.9813C62.2519 74.9813 64.5019 74.7379 66.5319 74.251C68.5919 73.7551 71.4419 72.6641 73.3419 70.2658C75.1719 67.9576 75.5219 64.8651 74.2219 62.5659C74.0219 62.2143 73.7819 61.8987 73.5119 61.5831C73.5119 61.5831 73.5119 61.5831 73.5219 61.5831C74.2719 61.5831 74.9219 61.0782 75.0119 60.393C75.1019 59.6537 74.5119 58.9865 73.6919 58.8963ZM40.5319 3.10359C46.6219 6.75518 51.3519 12.2822 53.9319 18.7739C54.5619 20.3517 55.0619 22.0378 55.4319 23.7779C55.8919 25.8246 56.1219 28.0155 56.1219 30.2876C56.1219 31.4778 56.0119 32.7491 55.8119 34.1015C55.6219 33.8761 55.4219 33.6597 55.2019 33.4614C53.9319 32.3343 52.6319 31.7122 50.4319 31.1712C49.9219 31.045 49.4219 30.9549 48.9319 30.8557C46.4419 30.3778 45.4919 30.1885 45.4619 27.6188C47.4019 25.6443 48.6219 22.6689 48.6219 19.8739C48.6219 15.546 45.4419 12.751 40.5219 12.751C35.6019 12.751 32.4219 15.546 32.4219 19.8739C32.4219 22.6599 33.6319 25.6353 35.5819 27.6188C35.5519 30.1885 34.6019 30.3778 32.1119 30.8557C31.6219 30.9458 31.1119 31.045 30.6019 31.1712C28.4019 31.7122 27.1119 32.3253 25.8119 33.4794C25.5819 33.6868 25.3719 33.9122 25.1719 34.1556C25.0119 32.8753 24.9219 31.586 24.9219 30.2876C24.9219 28.1328 25.1519 25.9328 25.5919 23.7599C25.9519 22.0558 26.4619 20.3697 27.1119 18.7739C29.6619 12.3002 34.4219 6.77321 40.5319 3.10359ZM35.4119 19.8919C35.4119 16.051 38.6119 15.4739 40.5119 15.4739C42.4119 15.4739 45.6119 16.051 45.6119 19.8919C45.6119 23.4443 42.9919 27.1951 40.5119 27.1951C38.0319 27.1951 35.4119 23.4443 35.4119 19.8919ZM70.9019 68.697C69.8219 70.0584 68.0019 71.1043 65.7619 71.6363C59.8519 73.0518 52.1219 71.8707 45.2119 70.0584C48.0019 69.2109 51.6219 68.4445 55.0319 69.1117C55.8419 69.265 56.6419 68.8142 56.8219 68.0839C57.0019 67.3535 56.4919 66.6322 55.6819 66.47C50.9019 65.5232 46.0219 66.8667 42.7719 67.9667C42.0419 68.2101 41.2819 68.4535 40.5119 68.697C39.7419 68.4535 38.9819 68.2101 38.2519 67.9667C35.0019 66.8757 30.1219 65.5323 25.3419 66.47C24.5319 66.6322 24.0219 67.3535 24.2019 68.0839C24.3819 68.8142 25.1819 69.274 25.9919 69.1117C28.7719 68.5617 31.8419 68.8593 35.8119 70.0584C28.9019 71.8707 21.1719 73.0518 15.2719 71.6363C13.0319 71.0953 11.2119 70.0584 10.1319 68.697C8.96194 67.2183 8.69194 65.2077 9.48194 63.8102C10.4519 62.1061 12.6819 61.4118 14.4419 61.3307C16.5619 61.2405 18.6919 61.7815 20.9419 62.3676L21.2619 62.4487C23.9019 63.1339 26.4919 63.72 29.1919 63.4044C29.6119 63.3593 29.9919 63.152 30.2319 62.8364C33.1119 59.1037 34.2719 55.2808 33.7719 51.1693C33.5719 49.5464 33.2619 48.1489 32.9719 46.7964C32.5519 44.894 32.1619 43.0908 32.1319 40.8908C32.1219 40.1515 31.4519 39.5564 30.6319 39.5564C30.6319 39.5564 30.6219 39.5564 30.6119 39.5564C29.7819 39.5654 29.1219 40.1785 29.1319 40.9268C29.1619 43.3703 29.6019 45.3809 30.0319 47.3284C30.3119 48.6268 30.6119 49.9702 30.7919 51.4759C31.1919 54.7758 30.3619 57.7512 28.1619 60.7897C26.2219 60.8709 24.1819 60.402 22.0919 59.861L21.7819 59.7799C19.3919 59.1578 16.9119 58.5176 14.3019 58.6438C14.1119 58.6528 13.9319 58.6799 13.7519 58.6979C14.5319 57.9856 15.2019 57.2914 15.8319 56.6242C17.4419 54.9381 18.9619 53.3423 22.2319 51.7103C22.5419 51.557 22.7819 51.3046 22.9119 50.998C23.0119 50.7636 23.1019 50.5292 23.1719 50.3398C23.3719 49.853 23.5619 49.3571 23.7419 48.8702C23.7419 48.8612 23.7519 48.8612 23.7519 48.8522C24.5619 46.7423 25.4419 44.2358 25.8719 41.585C25.9519 41.1072 26.0119 40.6293 26.0819 40.1515L26.1719 39.4933C26.2519 38.9613 26.3419 38.4834 26.4519 38.0597C26.7519 36.9146 27.2519 36.031 27.9419 35.4089C28.8319 34.6155 29.6719 34.2278 31.3819 33.813C31.8419 33.7048 32.2919 33.6147 32.7319 33.5335C34.9319 33.1097 37.5719 32.5958 38.3519 29.5122C39.0419 29.7737 39.7619 29.927 40.5219 29.927C41.2819 29.927 42.0019 29.7737 42.6919 29.5122C43.4619 32.5958 46.1119 33.1188 48.3119 33.5335C48.7519 33.6147 49.2119 33.7048 49.6619 33.813C51.3719 34.2278 52.2119 34.6245 53.1319 35.4359C53.8019 36.031 54.2819 36.8966 54.5919 38.0597C54.6919 38.4384 54.7619 38.808 54.8319 39.1957C54.8319 39.2047 54.8319 39.2138 54.8319 39.2138C54.9019 39.6285 54.9619 40.0433 55.0119 40.467C55.0619 40.8457 55.1119 41.2154 55.1719 41.585C55.5819 44.1547 56.4319 46.5981 57.2819 48.8612V48.8702V48.8792L58.1219 50.998C58.2519 51.2956 58.4919 51.548 58.8019 51.7103C62.0819 53.3423 63.6019 54.9381 65.2219 56.6332C65.8619 57.3004 66.5219 57.9947 67.3019 58.6979C67.1119 58.6799 66.9319 58.6528 66.7519 58.6438C64.1219 58.5176 61.6619 59.1668 59.2719 59.7799L58.9619 59.861C56.8719 60.402 54.8319 60.8709 52.9019 60.7897C50.8719 57.8504 49.8219 53.5947 50.2719 49.9882C50.4619 48.4013 50.7819 47.2923 51.0819 46.2194C51.5019 44.7137 51.9019 43.2981 51.9319 40.9268C51.9419 40.1785 51.2719 39.5654 50.4519 39.5564C50.4419 39.5564 50.4419 39.5564 50.4319 39.5564C49.6119 39.5564 48.9419 40.1515 48.9319 40.8908C48.9019 42.9375 48.5619 44.1457 48.1719 45.5522C47.8619 46.6612 47.5119 47.9145 47.2919 49.6817C46.7419 54.1808 48.1219 59.3471 50.8219 62.8364C51.0619 63.152 51.4419 63.3593 51.8619 63.4044C54.5619 63.72 57.1519 63.1249 59.7919 62.4487L60.1019 62.3676C62.3519 61.7815 64.4919 61.2315 66.6019 61.3307C68.3619 61.4118 70.6019 62.1061 71.5619 63.8102C72.3419 65.1987 72.0719 67.2093 70.9019 68.697Z" fill="#0099CC"/>
</svg>
