<svg width="50" height="52" viewBox="0 0 50 52" fill="none" xmlns="http://www.w3.org/2000/svg">
<path d="M47.8491 37.2672L33.3776 37.8636C33.3681 37.7201 33.3553 37.577 33.3392 37.4342C33.3334 37.383 33.3269 37.3319 33.3202 37.2808C33.2397 36.6608 33.0961 36.0511 32.8917 35.4617L38.3247 34.118C38.7376 34.0159 39.098 33.7587 39.3346 33.3974C39.5711 33.036 39.6666 32.5969 39.602 32.1669C39.5374 31.7369 39.3176 31.3474 38.986 31.0756C38.6543 30.8037 38.2351 30.6693 37.8114 30.699L29.805 31.2597C29.1132 30.7541 28.3497 30.3601 27.5413 30.0914L27.1941 26.3566H38.974C38.9637 26.9329 38.9423 27.5089 38.9085 28.0768C38.9023 28.1753 38.9152 28.2741 38.9464 28.3675C38.9776 28.4609 39.0264 28.5471 39.0902 28.6211C39.154 28.6951 39.2314 28.7555 39.318 28.7988C39.4046 28.8421 39.4987 28.8675 39.5949 28.8735C39.6911 28.8795 39.7875 28.866 39.8786 28.8338C39.9697 28.8016 40.0536 28.7512 40.1257 28.6857C40.1978 28.6202 40.2565 28.5407 40.2985 28.4519C40.3405 28.363 40.365 28.2666 40.3706 28.168C40.4062 27.57 40.4287 26.9633 40.4392 26.3566H48.5226C48.4446 29.1019 47.9063 31.8129 46.9313 34.3713C46.8962 34.4631 46.8791 34.5611 46.881 34.6597C46.8829 34.7582 46.9037 34.8554 46.9423 34.9458C46.9809 35.0361 47.0365 35.1177 47.1059 35.186C47.1754 35.2543 47.2572 35.3079 47.3469 35.3437C47.4366 35.3796 47.5322 35.397 47.6285 35.3949C47.7247 35.3929 47.8196 35.3714 47.9077 35.3318C47.9959 35.2922 48.0755 35.2351 48.1421 35.1639C48.2087 35.0928 48.2609 35.0088 48.2958 34.917C50.0264 30.3626 50.4498 25.3965 49.5163 20.6039C48.5827 15.8112 46.3311 11.3918 43.0267 7.86633C43.0109 7.84794 42.9942 7.83049 42.9769 7.81397C42.8777 7.70895 42.7788 7.60359 42.6777 7.5C40.3616 5.11481 37.6067 3.2238 34.5723 1.93644C31.538 0.649082 28.2845 -0.00906486 25.0001 9.46871e-05H25C21.7156 -0.0090834 18.4621 0.649055 15.4277 1.93641C12.3933 3.22377 9.63839 5.11479 7.32232 7.5C7.22207 7.60269 7.12414 7.70709 7.02581 7.81119C7.00723 7.82876 6.98955 7.84731 6.97285 7.86677C3.65732 11.4042 1.40197 15.8415 0.474315 20.6523C-0.453337 25.463 -0.0143591 30.4454 1.73918 35.0083C1.77447 35.1 1.82705 35.1836 1.89392 35.2545C1.96078 35.3254 2.04063 35.3821 2.12889 35.4213C2.21715 35.4605 2.3121 35.4816 2.40831 35.4832C2.50451 35.4849 2.6001 35.4671 2.68959 35.4309C2.77908 35.3947 2.86074 35.3408 2.92988 35.2723C2.99903 35.2037 3.05431 35.1219 3.09257 35.0315C3.13083 34.9411 3.15132 34.8438 3.15287 34.7453C3.15442 34.6467 3.137 34.5488 3.1016 34.4572C2.10574 31.8739 1.55613 29.1328 1.47734 26.3566H9.56077C9.57127 26.9629 9.59378 27.5696 9.62935 28.168C9.64069 28.3586 9.72256 28.5376 9.85826 28.6685C9.99397 28.7994 10.1733 28.8724 10.3597 28.8726C10.3747 28.8726 10.3898 28.8721 10.405 28.8712C10.5989 28.8591 10.7801 28.7686 10.9089 28.6196C11.0376 28.4706 11.1033 28.2754 11.0915 28.0768C11.0577 27.5085 11.0363 26.9325 11.0259 26.3566H22.8022L22.4566 30.0922C21.649 30.3608 20.8862 30.7545 20.195 31.2596L12.1887 30.699C11.7649 30.6693 11.3457 30.8037 11.0141 31.0755C10.6824 31.3474 10.4625 31.7369 10.398 32.1669C10.3334 32.5969 10.4288 33.036 10.6654 33.3974C10.9019 33.7588 11.2624 34.0159 11.6753 34.118L17.1083 35.4616C16.8399 36.2358 16.6764 37.044 16.6224 37.8637L2.15088 37.2672C1.63805 37.246 1.13587 37.421 0.742002 37.758C0.348132 38.0951 0.0907234 38.5701 0.0198325 39.0908C-0.0510583 39.6114 0.069636 40.1405 0.358445 40.5751C0.647254 41.0096 1.08353 41.3186 1.58244 41.442L5.58182 42.4311C4.22127 43.2714 3.31384 44.7634 3.31384 46.4616C3.31384 49.0814 5.47205 51.2128 8.12484 51.2128C10.7776 51.2128 12.9358 49.0814 12.9358 46.4616C12.9356 45.6258 12.7127 44.806 12.2911 44.0904L19.3156 45.8276C19.4927 46.0434 19.6758 46.2519 19.8661 46.4502C21.3953 48.0439 23.1706 48.8862 25 48.8862C26.8294 48.8862 28.6047 48.0439 30.1338 46.4502C30.3249 46.251 30.5088 46.0417 30.6865 45.8249C30.6979 45.8226 30.7093 45.8214 30.7207 45.8186L37.7088 44.0904C37.2872 44.806 37.0643 45.6258 37.0641 46.4616C37.0641 49.0814 39.2223 51.2128 41.8751 51.2128C44.5279 51.2128 46.6861 49.0814 46.6861 46.4616C46.6861 44.7634 45.7787 43.2714 44.4181 42.4311L48.4176 41.442C48.9165 41.3186 49.3527 41.0096 49.6415 40.575C49.9303 40.1405 50.051 39.6114 49.9801 39.0908C49.9092 38.5701 49.6518 38.0951 49.2579 37.758C48.8641 37.421 48.3619 37.246 47.8491 37.2672ZM37.9114 32.1959C37.9688 32.1919 38.0257 32.2101 38.0706 32.247C38.1156 32.2839 38.1454 32.3367 38.1541 32.395C38.1629 32.4534 38.1499 32.5129 38.1179 32.5619C38.0858 32.6109 38.0369 32.6458 37.9809 32.6597L32.2719 34.0716C31.9944 33.5692 31.6693 33.096 31.3014 32.6587L37.9114 32.1959ZM48.5227 24.8563H40.4393C40.3529 19.8217 39.3989 15.0312 37.6966 10.9738C39.2708 10.5203 40.811 9.95099 42.3052 9.27042C46.1536 13.5221 48.363 19.0608 48.5227 24.8563ZM41.2054 8.12538C39.8616 8.70741 38.4818 9.19838 37.0751 9.59513C36.7488 8.9193 36.4007 8.2681 36.0306 7.64154C34.7527 5.48283 33.2828 3.74912 31.6816 2.4822C35.2493 3.56056 38.5143 5.49517 41.2054 8.12538ZM25.7323 1.53414C29.1249 1.83893 32.3135 4.25601 34.7781 8.41937C35.0748 8.92072 35.3566 9.44018 35.6233 9.97777C32.3784 10.7488 29.0616 11.1575 25.7308 11.1967L25.7323 1.53414ZM25.7306 12.6973C29.2794 12.6572 32.8127 12.2094 36.264 11.3623C37.9432 15.275 38.8869 19.9371 38.9741 24.8563H27.0546L26.7383 21.4551C26.7102 21.1428 26.6021 20.8436 26.425 20.5877C26.2478 20.3318 26.0079 20.1283 25.7295 19.9978L25.7306 12.6973ZM24.336 25.683L24.7139 21.5974C24.7206 21.5253 24.7533 21.4583 24.8056 21.4095C24.858 21.3608 24.9262 21.3337 24.9969 21.3337C25.0677 21.3337 25.1359 21.3607 25.1883 21.4095C25.2406 21.4582 25.2733 21.5252 25.28 21.5973L25.66 25.6831L26.038 29.7487C25.3481 29.6577 24.6497 29.6578 23.9598 29.7489L24.3359 25.6833L24.336 25.683ZM24.266 11.1967C20.9363 11.1572 17.6205 10.7485 14.3767 9.97777C14.6439 9.44135 14.9256 8.92189 15.2219 8.41937C17.6864 4.25608 20.8749 1.83905 24.2675 1.53416L24.266 11.1967ZM18.3183 2.4822C16.7171 3.74912 15.2472 5.48283 13.9693 7.64154C13.5991 8.26689 13.251 8.91809 12.9248 9.59513C11.5181 9.19838 10.1384 8.70741 8.79458 8.12538C11.4857 5.49518 14.7507 3.56056 18.3183 2.4822ZM9.56069 24.8563H1.47729C1.63695 19.0608 3.84644 13.5221 7.69475 9.27041C9.18898 9.95099 10.7292 10.5203 12.3034 10.9738C10.6011 15.0312 9.64705 19.8217 9.56069 24.8563ZM11.0258 24.8563C11.113 19.9371 12.0568 15.275 13.736 11.3623C17.1861 12.2091 20.7181 12.6569 24.2657 12.6973L24.2646 19.9977C23.986 20.1283 23.7459 20.3319 23.5687 20.5879C23.3915 20.844 23.2835 21.1435 23.2555 21.456L22.941 24.8563H11.0258ZM25 31.1809C26.0938 31.1845 27.1709 31.4555 28.1419 31.9712C29.1129 32.487 29.9497 33.2327 30.5827 34.1463L25 35.3874L19.4171 34.1463C20.0502 33.2327 20.887 32.487 21.858 31.9712C22.829 31.4555 23.9062 31.1845 25 31.1809ZM12.0191 32.6597C11.9631 32.6458 11.9141 32.6109 11.8821 32.5619C11.85 32.5129 11.837 32.4533 11.8458 32.395C11.8545 32.3367 11.8843 32.2838 11.9293 32.2469C11.9743 32.2101 12.0312 32.1918 12.0887 32.1959L18.6985 32.6587C18.3306 33.0959 18.0056 33.5691 17.7281 34.0715L12.0191 32.6597ZM8.12484 49.7124C6.27976 49.7124 4.77868 48.2542 4.77868 46.4616C4.77868 44.6691 6.27976 43.2108 8.12484 43.2108C9.96991 43.2108 11.471 44.6691 11.471 46.4616C11.471 48.2542 9.96991 49.7124 8.12484 49.7124ZM1.92624 39.9837C1.82113 39.9577 1.72477 39.9032 1.64727 39.8259C1.56978 39.7487 1.51399 39.6515 1.48576 39.5446C1.45753 39.4377 1.4579 39.3249 1.48682 39.2182C1.51574 39.1115 1.57216 39.0147 1.65015 38.938C1.70827 38.8797 1.77751 38.8344 1.85354 38.8049C1.92956 38.7753 2.01073 38.7622 2.09194 38.7664L16.6446 39.3662C16.7 39.9608 16.8029 40.5498 16.9523 41.1272C17.209 42.1214 17.586 43.0788 18.0745 43.9773L1.92624 39.9837ZM18.2478 40.214C18.2416 40.1833 18.2355 40.1525 18.2296 40.1218C18.2175 40.0582 18.2061 39.9948 18.1954 39.9315C18.191 39.906 18.1864 39.8805 18.1822 39.8551C18.168 39.7672 18.155 39.6796 18.1432 39.5922C18.1418 39.5819 18.1408 39.5717 18.1395 39.5614C18.1295 39.4844 18.1205 39.4076 18.1126 39.3311C18.1097 39.3033 18.1073 39.2755 18.1047 39.2477C18.0991 39.188 18.0941 39.1285 18.0897 39.0692C18.0875 39.039 18.0854 39.0089 18.0835 38.9789C18.0798 38.9191 18.0767 38.8595 18.0744 38.8003C18.0733 38.7737 18.0719 38.747 18.0711 38.7205C18.0684 38.6358 18.0667 38.5515 18.0667 38.4676C18.0667 38.3525 18.0701 38.2376 18.0753 38.1227C18.0762 38.1025 18.0769 38.0822 18.078 38.062C18.0838 37.952 18.0921 37.8422 18.1027 37.7327C18.1047 37.7114 18.1071 37.6901 18.1093 37.6688C18.1211 37.5565 18.1346 37.4444 18.1513 37.3329C18.1523 37.3263 18.1535 37.3197 18.1545 37.3131C18.171 37.205 18.1902 37.0976 18.2112 36.9906C18.2148 36.9719 18.2182 36.9532 18.222 36.9346C18.2439 36.8274 18.2681 36.721 18.2946 36.6151C18.3001 36.5933 18.3057 36.5716 18.3114 36.5498C18.3391 36.4427 18.3685 36.3362 18.4008 36.2306C18.4043 36.2191 18.4082 36.2077 18.4118 36.1962C18.4431 36.0958 18.4765 35.9961 18.512 35.8972C18.5179 35.8808 18.5234 35.8643 18.5294 35.848C18.5668 35.7458 18.6065 35.6447 18.6485 35.5446C18.6528 35.5342 18.6572 35.5239 18.6616 35.5136L24.2676 36.7598V41.5219L18.2648 40.2948C18.2592 40.2679 18.2532 40.2409 18.2478 40.214ZM25 47.3859C22.1908 47.3859 19.8398 44.7469 18.7484 41.9235L24.8492 43.1707C24.8516 43.1712 24.8539 43.1717 24.8563 43.1721L24.8567 43.1722C24.8582 43.1725 24.8597 43.1726 24.8613 43.1729C24.883 43.1772 24.905 43.1808 24.9274 43.183C24.9757 43.188 25.0243 43.188 25.0726 43.183C25.095 43.1808 25.117 43.1772 25.1387 43.1729C25.1403 43.1726 25.1418 43.1725 25.1433 43.1722L25.1437 43.1721C25.1461 43.1717 25.1484 43.1712 25.1508 43.1707L31.2515 41.9235C30.1601 44.7469 27.8092 47.3859 25 47.3859ZM31.9103 39.0697C31.906 39.1283 31.901 39.1871 31.8954 39.2461C31.8927 39.2746 31.8903 39.3031 31.8873 39.3317C31.8795 39.4069 31.8707 39.4823 31.8609 39.5579C31.8594 39.5695 31.8583 39.581 31.8567 39.5925C31.8452 39.6795 31.8322 39.7667 31.8179 39.8543C31.8136 39.8806 31.8087 39.907 31.8042 39.9333C31.7936 39.9958 31.7823 40.0583 31.7705 40.1209C31.7645 40.1521 31.7583 40.1833 31.752 40.2145C31.7467 40.2412 31.7407 40.268 31.7351 40.2948L25.7324 41.5219V36.7598L31.3384 35.5136C31.3428 35.5239 31.3472 35.5342 31.3515 35.5446C31.3933 35.6449 31.4333 35.7461 31.4707 35.8484C31.4766 35.8643 31.482 35.8804 31.4877 35.8963C31.5233 35.9958 31.5569 36.0961 31.5885 36.1972C31.592 36.2082 31.5957 36.2192 31.5991 36.2303C31.6315 36.3362 31.6611 36.443 31.6888 36.5504C31.6944 36.5718 31.6999 36.5932 31.7053 36.6146C31.7317 36.7208 31.756 36.8275 31.778 36.9349C31.7818 36.9532 31.7851 36.9716 31.7887 36.9899C31.8098 37.0973 31.829 37.2051 31.8455 37.3134C31.8465 37.3199 31.8477 37.3263 31.8487 37.3329C31.8654 37.4443 31.8789 37.5564 31.8907 37.6688C31.8929 37.6901 31.8953 37.7114 31.8973 37.7327C31.9079 37.8422 31.9161 37.952 31.922 38.062C31.9231 38.0822 31.9238 38.1025 31.9247 38.1227C31.9299 38.2376 31.9333 38.3525 31.9333 38.4676C31.9333 38.5514 31.9316 38.6358 31.9289 38.7204C31.9281 38.747 31.9267 38.7737 31.9256 38.8003C31.9232 38.8595 31.9202 38.9188 31.9165 38.9784C31.9146 39.0087 31.9125 39.0392 31.9103 39.0697ZM45.2213 46.4616C45.2213 48.2542 43.7202 49.7124 41.8751 49.7124C40.03 49.7124 38.529 48.2542 38.529 46.4616C38.529 44.6691 40.03 43.2108 41.8751 43.2108C43.7202 43.2108 45.2213 44.6691 45.2213 46.4616ZM48.0738 39.9837L31.9254 43.9773C32.4139 43.0788 32.7909 42.1214 33.0477 41.1272C33.1971 40.5498 33.3 39.9608 33.3554 39.3662L47.908 38.7664C47.9892 38.763 48.0701 38.7765 48.1461 38.806C48.222 38.8355 48.2914 38.8804 48.3499 38.938C48.4085 38.9956 48.4551 39.0648 48.4869 39.1413C48.5188 39.2179 48.5352 39.3002 48.5351 39.3834C48.5354 39.522 48.49 39.6567 48.4063 39.7657C48.3226 39.8746 48.2054 39.9514 48.0738 39.9837ZM41.8751 45.7114C41.7303 45.7114 41.5887 45.7554 41.4682 45.8379C41.3478 45.9203 41.2539 46.0375 41.1985 46.1745C41.143 46.3116 41.1285 46.4625 41.1568 46.608C41.185 46.7535 41.2548 46.8872 41.3572 46.9921C41.4597 47.097 41.5902 47.1684 41.7322 47.1974C41.8743 47.2263 42.0216 47.2115 42.1554 47.1547C42.2892 47.0979 42.4036 47.0018 42.4841 46.8784C42.5646 46.755 42.6076 46.61 42.6076 46.4616C42.6076 46.2627 42.5304 46.0718 42.393 45.9312C42.2557 45.7905 42.0694 45.7114 41.8751 45.7114ZM8.12485 45.7114C7.97999 45.7114 7.83839 45.7554 7.71794 45.8379C7.59749 45.9203 7.50362 46.0375 7.44818 46.1745C7.39275 46.3116 7.37824 46.4625 7.4065 46.608C7.43476 46.7535 7.50452 46.8872 7.60695 46.9921C7.70938 47.097 7.83989 47.1684 7.98196 47.1974C8.12404 47.2263 8.2713 47.2115 8.40514 47.1547C8.53897 47.0979 8.65336 47.0018 8.73384 46.8784C8.81432 46.755 8.85727 46.61 8.85727 46.4616C8.85727 46.2627 8.78011 46.0718 8.64275 45.9312C8.5054 45.7905 8.3191 45.7114 8.12485 45.7114Z" fill="#0099CC"/>
</svg>
