<svg width="14" height="18" viewBox="0 0 14 18" fill="none" xmlns="http://www.w3.org/2000/svg">
<path d="M2.91918 6.74081L2.90149 6.77721L2.88782 6.8153C2.67911 7.39681 2.76151 8.02159 2.91098 8.54419C3.06459 9.08128 3.31903 9.61323 3.57479 10.0692C3.83288 10.5293 4.10629 10.9367 4.31374 11.2275C4.41793 11.3736 4.50663 11.4919 4.57002 11.5746C4.60174 11.616 4.6272 11.6486 4.64518 11.6714L4.66629 11.698L4.66641 11.6981L4.68719 11.7254C4.70499 11.7486 4.73044 11.7814 4.76278 11.8223C4.82738 11.904 4.91991 12.0182 5.03431 12.1522C5.26133 12.4181 5.58252 12.7713 5.94836 13.1029C6.30546 13.4266 6.74754 13.7692 7.21753 13.9707C7.68304 14.1703 8.32967 14.289 8.91644 13.8894C9.20932 13.6978 9.43784 13.415 9.60524 13.1889C9.69553 13.0669 9.78371 12.939 9.86471 12.8214L9.8719 12.8109C9.95263 12.6937 10.027 12.5857 10.1023 12.4826C10.2628 12.2629 10.389 12.1207 10.4956 12.0393C10.5441 12.0022 10.5744 11.989 10.5873 11.9846C10.5964 11.9816 10.5988 11.9819 10.6032 11.9824L10.6033 11.9824C10.603 11.9823 10.6028 11.9823 10.6028 11.9823C10.6028 11.9824 10.621 11.9851 10.6606 11.9981C10.7019 12.0117 10.756 12.0328 10.8226 12.0638C10.9566 12.126 11.1201 12.2177 11.3026 12.337C11.6681 12.576 12.0727 12.9014 12.4232 13.2569C12.7807 13.6195 13.0424 13.9737 13.17 14.2642C13.2877 14.5323 13.2436 14.6183 13.2337 14.633L13.2337 14.6329C12.2765 15.9757 11.67 16.6 11.1709 16.9098C10.7187 17.1906 10.3025 17.2477 9.55138 17.2477H9.53583L9.5203 17.2483C9.02909 17.2687 8.46737 17.1002 7.85824 16.765C7.25425 16.4325 6.65461 15.9642 6.10524 15.4595C5.06053 14.4999 4.26761 13.4752 4.04109 13.1825C4.02939 13.1674 4.0192 13.1543 4.01057 13.1432L4.01062 13.1431L4.00507 13.1362L4.005 13.1361L4.00496 13.136L4.00486 13.1359L4.0038 13.1346L3.99779 13.1269L3.97161 13.0934C3.94807 13.0631 3.91267 13.0171 3.86713 12.9566C3.77602 12.8357 3.64453 12.6573 3.48634 12.4317C3.16944 11.9799 2.74819 11.3426 2.33059 10.6016C1.47678 9.08667 0.712972 7.26657 0.75138 5.7354L0.751616 5.726V5.71659C0.751616 4.7182 0.797677 4.07216 1.05422 3.38875C1.30475 2.72138 1.77824 1.96273 2.72842 0.826966C2.9238 0.990197 3.18087 1.31242 3.45575 1.76691C3.73865 2.23467 4.00019 2.77468 4.19497 3.26246C4.39789 3.77065 4.49708 4.14495 4.51043 4.30754C4.53159 4.62014 4.3922 4.90206 4.05253 5.30033C3.96934 5.39788 3.88052 5.49534 3.78377 5.60064C3.77295 5.61242 3.76199 5.62433 3.75092 5.63637C3.66597 5.72875 3.5744 5.82831 3.4867 5.92847C3.29107 6.15189 3.07335 6.42358 2.91918 6.74081Z" stroke="white" stroke-width="1.5"/>
</svg>
