<svg width="80" height="80" viewBox="0 0 80 80" fill="none" xmlns="http://www.w3.org/2000/svg">
<g clip-path="url(#clip0_258_407)">
<path d="M61.0004 50C55.5004 49.5 52.5004 57 48.5004 59C42.0004 62.5 30.0004 50 30.0004 50C30.0004 50 17.5004 38 20.5004 31.5C23.0004 27.5 30.5004 24.5 30.0004 19C29.5004 14 18.5004 -4 13.0004 1C1.00043 12 0.000432093 16.5 0.000432093 25.5C-0.499568 41 19.5004 60.5 19.5004 60.5C21.5004 62.5 39.0004 80.5 54.5004 80C63.5004 80 68.0004 79 79.0004 67C84.0004 61.5 66.5004 50.5 61.0004 50Z" fill="#0099CC"/>
</g>
<defs>
<clipPath id="clip0_258_407">
<rect width="80" height="80" fill="white"/>
</clipPath>
</defs>
</svg>
