<svg width="80" height="80" viewBox="0 0 80 80" fill="none" xmlns="http://www.w3.org/2000/svg">
<path d="M40.0003 77.714C39.8284 77.714 39.656 77.6749 39.4975 77.5979C20.5979 68.3424 8.85742 51.5232 8.85742 33.7062V13.8022C8.85742 13.3145 9.16657 12.8814 9.62695 12.7218L39.627 2.34794C39.868 2.26535 40.1325 2.26535 40.3736 2.34794L70.3736 12.7218C70.834 12.8814 71.1431 13.3145 71.1431 13.8022V33.7062C71.1431 51.5232 59.4026 68.3424 40.5031 77.5979C40.3446 77.6749 40.1722 77.714 40.0003 77.714ZM11.1431 14.6158V33.7062C11.1431 50.4874 22.185 66.3781 40.0003 75.2955C57.8156 66.3781 68.8574 50.4874 68.8574 33.7062V14.6158L40.0003 4.637L11.1431 14.6158Z" fill="#0099CC"/>
<path d="M51.9513 61.0935H28.0495C25.7331 61.0935 23.8486 59.2765 23.8486 57.0444V37.1158C23.8486 36.4841 24.3604 35.9729 24.9915 35.9729H55.0093C55.6405 35.9729 56.1522 36.4841 56.1522 37.1158V57.0444C56.1522 59.2765 54.2677 61.0935 51.9513 61.0935ZM26.1343 38.2586V57.0444C26.1343 58.0165 26.9937 58.8078 28.0495 58.8078H51.9513C53.0071 58.8078 53.8665 58.0165 53.8665 57.0444V38.2586H26.1343Z" fill="#0099CC"/>
<path d="M50.3804 38.2586H29.6204C28.9893 38.2586 28.4775 37.7475 28.4775 37.1158V27.9015C28.4775 21.5477 33.6466 16.3792 40.0004 16.3792C46.3542 16.3792 51.5233 21.5477 51.5233 27.9015V37.1158C51.5233 37.7475 51.0116 38.2586 50.3804 38.2586ZM30.7633 35.9729H49.2376V27.9015C49.2376 22.8089 45.0936 18.6649 40.0004 18.6649C34.9072 18.6649 30.7633 22.8089 30.7633 27.9015V35.9729ZM43.8157 55.7319H36.5027C36.1516 55.7319 35.8202 55.57 35.6031 55.2944C35.3866 55.0176 35.309 54.6571 35.3927 54.3167L36.4044 50.1995C35.2259 49.1426 34.5423 47.6336 34.5423 46.0265C34.5423 42.9294 37.0624 40.4093 40.1595 40.4093C43.2566 40.4093 45.7761 42.9294 45.7761 46.0265C45.7761 47.6336 45.0925 49.1426 43.9139 50.1995L44.9256 54.3167C45.0093 54.6571 44.9318 55.0176 44.7153 55.2944C44.4982 55.57 44.1667 55.7319 43.8157 55.7319ZM37.9602 53.4461H42.3581L41.5177 50.0265C41.4028 49.5589 41.5942 49.0689 41.996 48.8022C42.9318 48.1805 43.4904 47.1437 43.4904 46.0265C43.4904 44.1894 41.996 42.695 40.1595 42.695C38.3224 42.695 36.828 44.1894 36.828 46.0265C36.828 47.1437 37.3866 48.1805 38.3224 48.8022C38.7242 49.0689 38.9156 49.5589 38.8006 50.0265L37.9602 53.4461Z" fill="#0099CC"/>
</svg>
