<svg width="80" height="80" viewBox="0 0 80 80" fill="none" xmlns="http://www.w3.org/2000/svg">
<path d="M41.0312 2.5C21.7188 2.5 6.07812 18.1406 6.07812 37.4531C6.07812 45.2344 8.625 52.4219 12.9219 58.2344L4.01562 77.5L6.34375 76.4219L24.2812 68.1406C29.25 70.8594 34.9531 72.4062 41.0156 72.4062C60.3125 72.4062 75.9688 56.7656 75.9688 37.4531C75.9844 18.1406 60.3281 2.5 41.0312 2.5ZM59.6719 52.375C59.4687 53.3438 59.0469 54.2656 58.4375 55.0781C57.6875 56.0781 56.7187 56.8281 55.6094 57.2969C54.5 57.7656 53.2812 57.9531 52.0625 57.7969C48.7969 57.4062 45.6406 56.3594 42.8125 54.6719C39.5469 52.7344 35.1563 49.7188 31.8438 45.4062C28.3125 41.2656 26.3906 36.4219 25.1719 32.8125C24.125 29.7031 23.75 26.3906 24.0469 23.125C24.1562 21.8906 24.5938 20.7344 25.2812 19.75C25.9688 18.7656 26.9219 17.9687 28.0469 17.4531C28.9688 17.0156 29.9688 16.8125 30.9531 16.8125C32.3594 16.8125 34.0781 16.7969 35.2656 17.6406C37.1094 18.9375 37.8906 21.5 37.8906 23.75C37.8906 23.9531 37.875 24.1719 37.8594 24.375C37.75 25.6094 37.6406 26.6875 36.9375 27.6719C36.25 28.6563 34.9844 29.5156 33.8594 30.0469C34.7188 34.6719 36.2031 38.1094 38.25 40.3281C39.125 41.5469 40.3125 42.7031 41.8281 43.7812C43.3438 44.8594 45.1719 45.8438 47.3438 46.75C48.0938 45.7656 49.2031 44.7031 50.3125 44.2344C51.4062 43.7656 52.5 43.875 53.7187 44.0312C53.9219 44.0625 54.1406 44.0938 54.3437 44.1406C56.5312 44.6094 58.875 45.9062 59.7656 47.9844C60.3281 49.3281 59.9687 51 59.6719 52.375Z" fill="#0099CC"/>
</svg>
